<svg width="588" height="329" fill="none" xmlns="http://www.w3.org/2000/svg"><path d="M13.87 48.392c0-10.87-5.653-33.044 94.059-46.632 99.712-13.589 216.198 56.435 267.507 55.27 51.31-1.262 186.155-49.21 208.144 20.966 21.99 70.176-52.826 52.899-45.496 129.287 7.33 76.388 1.517 130.549-86.442 112.01-87.959-18.442-183.248-32.031-299.01-8.638C36.744 334.047-48.056 289.107 32.826 183.308c53.71-70.37-18.957-102.07-18.957-134.916z" fill="#D5F4FE"/><path d="M293.454 171.432a101.233 101.233 0 0 0 6.113-23.687l-16.086-8.804c.128-2.672.175-5.389.056-8.073-.036-.949-.116-1.859-.153-2.809l15.953-9.085a100.41 100.41 0 0 0-6.49-23.548l-18.38.44c-1.615-3.25-3.482-6.388-5.519-9.411l9.277-15.832a102.41 102.41 0 0 0-17.416-17.148l-15.689 9.592a82.653 82.653 0 0 0-9.457-5.397l.135-18.328c-7.515-2.955-15.443-5.024-23.663-6.158l-8.757 16.145a75.837 75.837 0 0 0-8.066-.056c-.948.037-1.858.117-2.808.195l-9.032-16.006c-8.211 1.256-16.136 3.431-23.568 6.496l.438 18.397c-3.249 1.658-6.383 3.486-9.362 5.527l-15.691-9.32a102.453 102.453 0 0 0-17.134 17.434l9.584 15.662a82.616 82.616 0 0 0-5.392 9.466l-18.351-.177a101.589 101.589 0 0 0-6.115 23.729l16.088 8.762c-.128 2.673-.175 5.39-.098 8.072.037.949.117 1.859.195 2.811l-15.951 9.043c1.254 8.219 3.429 16.11 6.49 23.549l18.38-.44a89.342 89.342 0 0 0 5.519 9.411l-9.319 15.829c5.086 6.424 10.946 12.143 17.416 17.149l15.648-9.594a85.869 85.869 0 0 0 9.457 5.396l-.137 18.37a100.642 100.642 0 0 0 23.624 6.115l8.797-16.102c2.669.128 5.343.173 8.063.097.949-.037 1.858-.117 2.768-.197l9.032 16.006c8.251-1.254 16.135-3.431 23.568-6.496l-.438-18.397a89.38 89.38 0 0 0 9.403-5.525l15.814 9.326a102.502 102.502 0 0 0 17.134-17.434l-9.543-15.66c1.957-3.038 3.796-6.205 5.392-9.466l18.271.131zm-97.567 22.572c-32.939-1.574-58.475-29.7-56.899-62.669 1.576-32.97 29.678-58.532 62.616-56.957 32.939 1.574 58.474 29.7 56.899 62.669-1.576 32.969-29.678 58.531-62.616 56.957z" fill="#008ED9"/><path d="M143.26 131.539c-1.464 30.626 22.234 56.727 52.831 58.19 30.597 1.462 56.677-22.26 58.14-52.886 1.464-30.626-22.234-56.728-52.831-58.19-30.597-1.463-56.677 22.26-58.14 52.886zm97.388.988c.908 23.199-17.15 42.731-40.287 43.644-23.177.911-42.69-17.162-43.6-40.32-.908-23.199 17.15-42.731 40.284-43.603 23.221-.95 42.734 17.122 43.603 40.279zM308.606 234.672c-2.012 29.492 20.297 55.184 49.761 57.196 29.464 2.011 55.135-20.321 57.146-49.813 2.012-29.492-20.297-55.185-49.807-57.198-29.416-2.055-55.04 20.279-57.1 49.815zm82.515-12.519c8.456 15.986 2.321 35.774-13.606 44.242-16.161 8.549-36.243 2.163-44.494-14.231-7.743-15.396-1.712-34.957 13.376-43.326 16.041-8.926 36.182-2.815 44.724 13.315z" fill="#008ED9"/><path d="M447.707 250.967a88.17 88.17 0 0 0 .713-18.795l-14.396-4.166a83.385 83.385 0 0 0-2.646-11.535l11.183-10.039c-1.159-2.885-2.458-5.776-3.945-8.583-1.488-2.807-3.074-5.48-4.85-8.069l-14.582 3.616a71.152 71.152 0 0 0-8.018-8.685l4.666-14.246a87.835 87.835 0 0 0-15.925-9.99l-10.83 10.427c-3.637-1.473-7.427-2.628-11.277-3.507l-3.096-14.711c-6.166-.897-12.455-1.151-18.733-.663l-4.21 14.407a71.373 71.373 0 0 0-11.478 2.652l-10.029-11.193c-2.88 1.115-5.768 2.415-8.575 3.95-2.805 1.489-5.478 3.124-8.063 4.855l3.521 14.545c-3.131 2.494-6.037 5.138-8.677 8.026l-14.233-4.669a85.183 85.183 0 0 0-9.98 15.894l10.417 10.84c-1.471 3.64-2.579 7.436-3.459 11.29l-14.696 3.1a88.122 88.122 0 0 0-.713 18.795l14.395 4.166a72.015 72.015 0 0 0 2.646 11.535l-11.183 10.039a89.3 89.3 0 0 0 3.948 8.537 85.069 85.069 0 0 0 4.85 8.069l14.582-3.616c2.445 3.132 5.178 6.045 8.017 8.685l-4.667 14.293c4.956 3.9 10.263 7.261 15.878 9.987l10.877-10.425a68.832 68.832 0 0 0 11.278 3.461l3.097 14.71a87.886 87.886 0 0 0 18.777.712l4.164-14.409a71.922 71.922 0 0 0 11.524-2.649l10.075 11.194c2.88-1.114 5.724-2.463 8.529-3.952a91.691 91.691 0 0 0 8.062-4.855l-3.611-14.595c3.129-2.448 6.039-5.184 8.677-8.026l14.279 4.671a87.939 87.939 0 0 0 9.982-15.941l-10.414-10.886c1.471-3.639 2.623-7.387 3.503-11.241l14.646-3.01zm-89.45 43.214c-30.756-2.119-54.034-28.878-51.914-59.663 2.121-30.786 28.856-54.087 59.613-51.968 30.756 2.119 54.034 28.878 51.96 59.666-2.164 30.737-28.902 54.085-59.659 51.965z" fill="#008ED9"/><path d="M138.988 131.335c-1.575 32.969 23.96 61.095 56.899 62.669 32.938 1.574 61.04-23.988 62.616-56.957 1.575-32.969-23.96-61.095-56.899-62.67-32.979-1.576-61.04 23.989-62.616 56.958zm115.243 5.508c-1.463 30.626-27.543 54.348-58.14 52.886-30.597-1.463-54.295-27.564-52.831-58.19 1.463-30.626 27.543-54.348 58.14-52.886 30.597 1.462 54.295 27.564 52.831 58.19zM306.296 234.516c-2.12 30.785 21.157 57.544 51.914 59.663 30.756 2.119 57.492-21.182 59.612-51.968 2.12-30.785-21.204-57.546-51.96-59.665-30.708-2.164-57.446 21.184-59.566 51.97zm109.265 7.495c-2.012 29.492-27.684 51.87-57.146 49.813-29.464-2.011-51.82-27.706-49.762-57.196 2.012-29.492 27.685-51.87 57.147-49.813 29.462 2.058 51.773 27.704 49.761 57.196z" fill="#D5F4FE"/><path d="M325.957 80.87c-1.353 19.883 13.676 37.144 33.542 38.497 19.865 1.353 37.111-13.693 38.464-33.577 1.354-19.884-13.676-37.144-33.542-38.497-19.822-1.306-37.068 13.739-38.464 33.576zm55.58-8.417c5.666 10.76 1.58 24.104-9.172 29.776-10.889 5.756-24.39 1.479-29.951-9.59-5.237-10.382-1.159-23.546 9.007-29.157 10.766-5.985 24.364-1.883 30.116 8.971z" fill="#1174B9"/><path d="M419.62 91.846c.603-4.185.759-8.391.471-12.664l-9.675-2.794a57.195 57.195 0 0 0-1.779-7.75l7.534-6.768a48.34 48.34 0 0 0-2.68-5.776 51.718 51.718 0 0 0-3.278-5.447l-9.835 2.444a51.689 51.689 0 0 0-5.408-5.862l3.147-9.623a58.34 58.34 0 0 0-10.74-6.744l-7.277 7.004a49.672 49.672 0 0 0-7.591-2.335l-2.079-9.917a59.421 59.421 0 0 0-12.608-.468l-2.836 9.682a46.286 46.286 0 0 0-7.744 1.781l-6.761-7.54a61.151 61.151 0 0 0-5.769 2.638c-1.883.986-3.684 2.11-5.44 3.237l2.396 9.842a51.666 51.666 0 0 0-5.857 5.413l-9.613-3.149a59.477 59.477 0 0 0-6.737 10.706l6.995 7.328a51.162 51.162 0 0 0-2.334 7.599l-9.908 2.081a60.072 60.072 0 0 0-.471 12.664l9.72 2.796a46.536 46.536 0 0 0 1.779 7.75l-7.406 6.909a50.905 50.905 0 0 0 2.637 5.73 54.264 54.264 0 0 0 3.278 5.446l9.835-2.443a47.574 47.574 0 0 0 5.41 5.817l-3.147 9.622c3.323 2.625 6.932 4.904 10.698 6.698l7.321-7.002c2.46 1.014 4.977 1.762 7.592 2.335l2.079 9.917a59.91 59.91 0 0 0 12.652.47l2.794-9.729a46.389 46.389 0 0 0 7.744-1.781l6.76 7.54a60.404 60.404 0 0 0 5.725-2.64c1.883-.986 3.684-2.11 5.441-3.281l-2.395-9.843a51.599 51.599 0 0 0 5.857-5.413l9.613 3.149a59.442 59.442 0 0 0 6.737-10.706l-6.995-7.327a49.819 49.819 0 0 0 2.334-7.6l9.814-1.996zm-60.242 29.129c-20.713-1.439-36.378-19.446-34.984-40.18 1.439-20.732 19.431-36.414 40.146-35.02 20.712 1.438 36.378 19.445 34.983 40.18-1.394 20.733-19.433 36.458-40.145 35.02z" fill="#1174B9"/><path d="M324.438 80.797c-1.439 20.731 14.271 38.741 34.984 40.18 20.712 1.438 38.707-14.289 40.146-35.02 1.438-20.732-14.272-38.742-34.984-40.18-20.713-1.439-38.752 14.286-40.146 35.02zm73.523 5.038c-1.353 19.884-18.644 34.927-38.464 33.576-19.866-1.353-34.893-18.658-33.542-38.497 1.353-19.884 18.644-34.927 38.464-33.576 19.911 1.355 34.938 18.66 33.542 38.497z" fill="#D5F4FE"/></svg>