<svg width="588" height="324" fill="none" xmlns="http://www.w3.org/2000/svg"><path d="M13.613 48.651c0-10.87-5.652-33.043 94.06-46.631C207.385-11.57 323.87 58.455 375.18 57.29c51.309-1.262 186.154-49.21 208.144 20.965 21.99 70.177-52.826 52.899-45.496 129.288 7.33 76.388 1.517 130.549-86.442 112.01-87.959-18.442-183.248-32.031-299.01-8.639C36.487 334.306-48.312 289.366 32.57 183.568c53.71-70.37-18.957-102.07-18.957-134.917z" fill="#D5F4FE"/><path d="M372.193 43.221H206.175c-4.342 0-7.902 3.313-7.902 7.353v223.028c0 4.04 3.56 7.354 7.902 7.354h166.018c4.341 0 7.901-3.314 7.901-7.354V50.574c.087-4.12-3.473-7.353-7.901-7.353z" fill="#026BB5"/><path d="M372.193 38.857H206.175c-4.342 0-7.902 3.313-7.902 7.354v223.027c0 4.041 3.56 7.354 7.902 7.354h166.018c4.341 0 7.901-3.313 7.901-7.354V46.211c.087-4.04-3.473-7.354-7.901-7.354z" fill="#1174B9"/><path d="M365.42 51.948H213.034V264.31H365.42V51.949z" fill="#fff"/><path d="M365.42 47.665H213.034v212.361H365.42V47.666z" fill="#fff"/><path d="M241.528 47.665c.08 5.818 4.801 10.828 10.881 10.828h75.206c6.08 0 10.8-5.01 10.88-10.828h-96.967z" fill="#19A0D0"/><path d="M336.177 33.605c-.8-3.475-3.921-5.98-7.441-5.98h-25.042c0-7.596-6.08-13.737-13.601-13.737-7.52 0-13.601 6.141-13.601 13.737H251.45c-3.52 0-6.64 2.505-7.44 5.98l-2.08 8.97c-1.6 6.868 3.6 13.494 10.64 13.494h75.046c7.041 0 12.241-6.626 10.641-13.495l-2.08-8.97zm-44.884.566c-4.64.888-8.56-3.152-7.68-7.758.48-2.586 2.56-4.687 5.12-5.172 4.641-.889 8.561 3.152 7.681 7.758-.4 2.586-2.48 4.687-5.121 5.172z" fill="#5BC7F3"/><path d="M260.53 104.15h-34.297c-.869 0-1.65-.647-1.65-1.536V70.695c0-.808.695-1.535 1.65-1.535h34.297c.869 0 1.65.647 1.65 1.535v32c0 .808-.694 1.455-1.65 1.455zm-29.087-6.384h22.228c.868 0 1.65-.647 1.65-1.535V77.079c0-.808-.695-1.535-1.65-1.535h-20.579c-.868 0-1.649.646-1.649 1.535v20.687zM272.946 81.766h38.292c.955 0 1.737.727 1.737 1.616v2.828c0 .89-.782 1.617-1.737 1.617h-38.292c-.955 0-1.736-.728-1.736-1.617v-2.828c-.087-.889.694-1.616 1.736-1.616zM272.946 94.372h80.231c.955 0 1.736.727 1.736 1.616v2.828c0 .89-.781 1.616-1.736 1.616h-80.231c-.955 0-1.736-.727-1.736-1.616v-2.828c-.087-.889.694-1.616 1.736-1.616z" fill="#E5E5E5"/><path d="M272.946 81.766h38.292c.955 0 1.737.727 1.737 1.616v2.828c0 .89-.782 1.617-1.737 1.617h-38.292c-.955 0-1.736-.728-1.736-1.617v-2.828c-.087-.889.694-1.616 1.736-1.616zM272.946 94.372h80.231c.955 0 1.736.727 1.736 1.616v2.828c0 .89-.781 1.616-1.736 1.616h-80.231c-.955 0-1.736-.727-1.736-1.616v-2.828c-.087-.889.694-1.616 1.736-1.616zM260.53 155.22h-34.297c-.869 0-1.65-.647-1.65-1.536v-31.999c0-.808.695-1.536 1.65-1.536h34.297c.869 0 1.65.647 1.65 1.536v31.999c0 .889-.694 1.536-1.65 1.536zm-29.087-6.384h22.228c.868 0 1.65-.647 1.65-1.535v-19.152c0-.808-.695-1.535-1.65-1.535h-20.579c-.868 0-1.649.646-1.649 1.535v20.687zM272.952 132.028h38.292c.955 0 1.737.727 1.737 1.616v2.828c0 .889-.782 1.616-1.737 1.616h-38.292c-.955 0-1.736-.727-1.736-1.616v-2.828c-.087-.889.694-1.616 1.736-1.616zM354.826 145.442h-83.704v6.06h83.704v-6.06z" fill="#E5E5E5"/><path d="M272.952 132.028h38.292c.955 0 1.737.727 1.737 1.616v2.828c0 .889-.782 1.616-1.737 1.616h-38.292c-.955 0-1.736-.727-1.736-1.616v-2.828c-.087-.889.694-1.616 1.736-1.616zM354.826 145.442h-83.704v6.06h83.704v-6.06zM260.53 206.29h-34.297c-.869 0-1.65-.647-1.65-1.536v-31.999c0-.808.695-1.535 1.65-1.535h34.297c.869 0 1.65.646 1.65 1.535v31.999c0 .889-.694 1.536-1.65 1.536zm-29.087-6.384h22.228c.868 0 1.65-.646 1.65-1.535v-19.152c0-.808-.695-1.535-1.65-1.535h-20.579c-.868 0-1.649.647-1.649 1.535v20.687zM274.251 183.098h38.292c.955 0 1.736.727 1.736 1.616v2.828c0 .889-.781 1.617-1.736 1.617h-38.292c-.955 0-1.737-.728-1.737-1.617v-2.828c-.086-.889.695-1.616 1.737-1.616zM274.251 196.431h80.23c.956 0 1.737.727 1.737 1.616v2.829c0 .888-.781 1.616-1.737 1.616h-80.23c-.955 0-1.737-.728-1.737-1.616v-2.748c-.086-.889.695-1.697 1.737-1.697z" fill="#E5E5E5"/><path d="M274.251 183.098h38.292c.955 0 1.736.727 1.736 1.616v2.828c0 .889-.781 1.617-1.736 1.617h-38.292c-.955 0-1.737-.728-1.737-1.617v-2.828c-.086-.889.695-1.616 1.737-1.616zM274.251 196.431h80.23c.956 0 1.737.727 1.737 1.616v2.829c0 .888-.781 1.616-1.737 1.616h-80.23c-.955 0-1.737-.728-1.737-1.616v-2.748c-.086-.889.695-1.697 1.737-1.697z" fill="#E5E5E5"/><path d="M261.919 69.16l-17.193 16.161a2.017 2.017 0 0 1-2.691.081l-4.776-3.96c-.781-.646-2.084-.565-2.779.162l-3.299 3.475c-.695.727-.608 1.94.174 2.586l11.114 9.131c.781.646 1.997.646 2.692-.08l23.183-21.657c.781-.727.781-1.94 0-2.586l-3.56-3.232c-.781-.808-2.084-.808-2.865-.081zM261.919 118.452l-17.193 16.162a2.018 2.018 0 0 1-2.691.081l-4.776-3.96c-.868-.646-2.084-.566-2.779.162l-3.299 3.474c-.695.728-.608 1.94.174 2.586l11.114 9.131c.781.647 1.997.647 2.692-.08l23.096-21.737c.782-.728.782-1.94 0-2.586l-3.56-3.233c-.694-.727-1.997-.727-2.778 0zM261.919 167.826l-17.193 16.161a2.018 2.018 0 0 1-2.691.081l-4.776-3.96c-.868-.646-2.084-.565-2.779.162l-3.299 3.475c-.695.727-.608 1.939.174 2.585l11.114 9.132c.781.646 1.997.646 2.692-.081l23.096-21.737c.782-.728.782-1.94 0-2.586l-3.56-3.232c-.694-.728-1.997-.728-2.778 0z" fill="#B7D553"/><path d="M260.531 256.39h-34.297c-.869 0-1.65-.646-1.65-1.535v-32c0-.808.695-1.535 1.65-1.535h34.297c.869 0 1.65.646 1.65 1.535v32c0 .889-.694 1.535-1.65 1.535zm-29.087-6.384h22.228c.868 0 1.65-.646 1.65-1.535V229.32c0-.808-.695-1.536-1.65-1.536h-20.579c-.868 0-1.649.647-1.649 1.536v20.686zM274.251 233.199h38.292c.955 0 1.736.727 1.736 1.616v2.828c0 .889-.781 1.616-1.736 1.616h-38.292c-.955 0-1.737-.727-1.737-1.616v-2.828c-.086-.889.695-1.616 1.737-1.616zM274.251 246.613h80.231c.955 0 1.736.727 1.736 1.616v2.828c0 .889-.781 1.616-1.736 1.616h-80.231c-.955 0-1.737-.727-1.737-1.616v-2.828c-.086-.889.695-1.616 1.737-1.616z" fill="#E5E5E5"/><path d="M261.922 217.926l-17.193 16.161a2.015 2.015 0 0 1-2.691.081l-4.776-3.959c-.868-.647-2.084-.566-2.779.161l-3.299 3.475c-.695.727-.608 1.939.174 2.586l11.114 9.131c.781.646 1.997.646 2.691-.081l23.097-21.737c.782-.727.782-1.939 0-2.586l-3.56-3.232c-.695-.727-1.997-.727-2.778 0z" fill="#B7D553"/><path d="M451.344 267.741l-16.808 15.295-53.953-59.95 16.808-15.296 53.953 59.951z" fill="#E3E3E3"/><path d="M466.375 301.014l-.197.169c-5.292 4.837-12.519 5.531-16.135 1.514l-41.658-45.206 19.528-18.573 41.508 46.137c3.626 3.983 2.246 11.122-3.046 15.959z" fill="#B7D553"/><path opacity=".2" d="M384.372 227.151l2.53 3.224 30.867.62-19.644-22.1-13.753 18.256z" fill="#BBBCBF"/><path d="M399.181 123.539c-25.362-27.947-68.579-29.993-96.509-4.576-27.93 25.417-30.008 68.693-4.657 96.674 25.362 27.946 68.579 29.992 96.543 4.585 27.93-25.417 30.009-68.693 4.623-96.683zm-11.071 89.582c-24.048 21.867-61.212 20.106-83.032-3.956-21.82-24.063-20.031-61.277 4.017-83.145 24.049-21.867 61.213-20.106 83.033 3.956 21.819 24.063 20.031 61.277-4.018 83.145z" fill="#B7D553"/><path opacity=".5" d="M388.132 213.138c24.037-21.874 25.829-59.102 4.004-83.153-21.826-24.05-59.004-25.815-83.041-3.942-24.036 21.874-25.829 59.102-4.003 83.153 21.825 24.05 59.004 25.815 83.04 3.942z" fill="#D1E7F5"/><path opacity=".22" d="M308.469 155.801c4.824-18.154 21.144-31.19 39.978-31.269 18.765-.098 35.515 12.908 40.254 31.101 1.32 5.129 9.355 3.426 8.035-1.703-5.424-20.934-23.653-36.117-45.211-37.519-21.227-1.383-40.884 11.685-48.963 31.168-.791 1.874-1.384 3.842-1.932 5.785-1.36 5.084 6.469 7.556 7.839 2.437z" fill="#fff"/><path opacity=".31" d="M397.968 174.321a5.415 5.415 0 0 0 .368-7.64 5.397 5.397 0 0 0-7.63-.362 5.412 5.412 0 0 0-.367 7.639 5.395 5.395 0 0 0 7.629.363z" fill="#fff"/><path d="M409.251 256.947l18.601-17.674a1.749 1.749 0 0 0 .167-2.313l-.159-.232c-.63-.815-1.807-.885-2.562-.199L406.866 254.4c-.676.671-.693 1.79-.023 2.466l.035.01c.659.711 1.698.741 2.373.071z" fill="#309399"/><path d="M403.67 185.551c-3.883 13.625-12.557 25.411-24.417 33.113-11.718 7.593-25.89 10.636-39.696 8.799-14.127-1.889-27.143-9.308-36.326-20.103-8.955-10.543-13.761-24.26-13.681-38.059.078-14.324 5.686-28.361 15.318-38.903 9.297-10.149 22.208-16.806 35.841-18.464 14.255-1.745 28.789 2.019 40.541 10.205 11.315 7.876 19.395 19.932 22.849 33.268 2.53 9.854 2.307 20.316-.429 30.144-.548 1.943 2.465 2.794 3.014.851 3.813-13.645 2.813-28.123-2.757-41.119-5.431-12.695-15.37-23.329-27.532-29.795-12.618-6.708-27.433-8.679-41.384-5.762-13.431 2.802-25.742 10.378-34.509 20.901-9.131 11.02-14.13 25.154-14.104 39.507.024 13.829 4.967 27.322 13.547 38.134 8.798 11.098 21.562 18.746 35.371 21.632 13.705 2.856 28.093.774 40.551-5.599 15.039-7.704 26.234-21.663 30.886-37.88.479-1.962-2.535-2.813-3.083-.87z" fill="#F7F7F7"/></svg>