<svg width="588" height="574" fill="none" xmlns="http://www.w3.org/2000/svg"><path d="M13.746 203.617c0-10.87-5.652-33.043 94.06-46.632 99.712-13.588 216.198 56.435 267.507 55.271 51.309-1.262 186.155-49.211 208.144 20.965 21.99 70.176-52.826 52.899-45.496 129.287 7.33 76.389 1.517 130.55-86.442 112.011-87.959-18.442-183.248-32.031-299.01-8.639C36.621 489.272-48.179 444.332 32.703 338.534c53.71-70.37-18.957-102.071-18.957-134.917z" fill="#D5F4FE"/><path d="M404.946 422.184H151.042c-13.472 0-24.483-10.834-24.483-24.377V225.363c0-13.414 11.011-24.377 24.483-24.377h253.904c13.473 0 24.484 10.963 24.484 24.377v172.444c.13 13.543-10.882 24.377-24.484 24.377z" fill="#fff"/><path d="M429.56 198.15H126.559v51.849H429.56V198.15z" fill="#EC5D79"/><path d="M277.606 227.427c6.439 0 11.659-5.198 11.659-11.608 0-6.411-5.22-11.609-11.659-11.609-6.439 0-11.659 5.198-11.659 11.609 0 6.41 5.22 11.608 11.659 11.608z" fill="#CD3E5A"/><path d="M278.433 219.82c-3.238 0-5.829-2.58-5.829-5.804V191.96c0-3.224 2.591-5.804 5.829-5.804 3.239 0 5.83 2.58 5.83 5.804v22.056c0 3.095-2.721 5.804-5.83 5.804z" fill="#ECECEC"/><path d="M277.605 220.979c-3.238 0-5.829-2.58-5.829-5.804v-22.056c0-3.224 2.591-5.804 5.829-5.804 3.239 0 5.83 2.58 5.83 5.804v22.056c0 3.095-2.721 5.804-5.83 5.804z" fill="#fff"/><path d="M222.162 227.427c6.439 0 11.659-5.198 11.659-11.608 0-6.411-5.22-11.609-11.659-11.609-6.439 0-11.659 5.198-11.659 11.609 0 6.41 5.22 11.608 11.659 11.608z" fill="#CD3E5A"/><path d="M222.99 219.82c-3.239 0-5.83-2.58-5.83-5.804V191.96c0-3.224 2.591-5.804 5.83-5.804 3.238 0 5.829 2.58 5.829 5.804v22.056c0 3.095-2.591 5.804-5.829 5.804z" fill="#ECECEC"/><path d="M222.161 220.979a5.793 5.793 0 0 1-5.829-5.805v-22.055c0-3.224 2.591-5.804 5.829-5.804 3.239 0 5.83 2.58 5.83 5.804v22.055c0 3.096-2.591 5.805-5.83 5.805z" fill="#fff"/><path d="M170.086 227.427c6.439 0 11.658-5.198 11.658-11.608 0-6.411-5.219-11.609-11.658-11.609-6.439 0-11.659 5.198-11.659 11.609 0 6.41 5.22 11.608 11.659 11.608z" fill="#CD3E5A"/><path d="M170.784 219.82c-3.239 0-5.829-2.58-5.829-5.804V191.96c0-3.224 2.72-5.804 5.829-5.804 3.239 0 5.829 2.58 5.829 5.804v22.056c0 3.095-2.59 5.804-5.829 5.804z" fill="#ECECEC"/><path d="M169.956 220.979a5.793 5.793 0 0 1-5.829-5.805v-22.055c0-3.224 2.72-5.804 5.829-5.804 3.239 0 5.83 2.58 5.83 5.804v22.055c0 3.096-2.591 5.805-5.83 5.805z" fill="#fff"/><path d="M388.107 227.427c6.439 0 11.659-5.198 11.659-11.608 0-6.411-5.22-11.609-11.659-11.609-6.439 0-11.659 5.198-11.659 11.609 0 6.41 5.22 11.608 11.659 11.608z" fill="#CD3E5A"/><path d="M388.935 219.82c-3.239 0-5.83-2.58-5.83-5.804V191.96c0-3.224 2.591-5.804 5.83-5.804 3.238 0 5.829 2.58 5.829 5.804v22.056c0 3.095-2.591 5.804-5.829 5.804z" fill="#ECECEC"/><path d="M388.107 220.979c-3.239 0-5.83-2.58-5.83-5.805v-22.055c0-3.224 2.591-5.804 5.83-5.804 3.238 0 5.829 2.58 5.829 5.804v22.055c0 3.096-2.591 5.805-5.829 5.805z" fill="#fff"/><path d="M333.051 227.427c6.439 0 11.659-5.198 11.659-11.608 0-6.411-5.22-11.609-11.659-11.609-6.439 0-11.659 5.198-11.659 11.609 0 6.41 5.22 11.608 11.659 11.608z" fill="#CD3E5A"/><path d="M333.879 219.82c-3.239 0-5.83-2.58-5.83-5.804V191.96c0-3.224 2.591-5.804 5.83-5.804 3.238 0 5.829 2.58 5.829 5.804v22.056c0 3.095-2.72 5.804-5.829 5.804z" fill="#ECECEC"/><path d="M333.051 220.979c-3.239 0-5.83-2.58-5.83-5.805v-22.055c0-3.224 2.591-5.804 5.83-5.804 3.238 0 5.829 2.58 5.829 5.804v22.055c0 3.096-2.72 5.805-5.829 5.805z" fill="#fff"/><path fill="#ECECEC" d="M247.803 264.293h23.734v21.98h-23.734zM281.857 264.293h23.734v21.98h-23.734zM315.913 264.293h23.734v21.98h-23.734zM349.968 264.293h23.734v21.98h-23.734zM384.022 264.293h23.734v21.98h-23.734zM145.638 293.76h23.734v21.98h-23.734zM179.693 293.76h23.734v21.98h-23.734zM213.749 293.76h23.734v21.98h-23.734zM247.803 293.76h23.734v21.98h-23.734zM281.857 293.76h23.734v21.98h-23.734zM315.913 293.76h23.734v21.98h-23.734zM349.968 293.76h23.734v21.98h-23.734zM384.022 293.76h23.734v21.98h-23.734zM145.638 323.227h23.734v21.98h-23.734zM179.693 323.227h23.734v21.98h-23.734zM213.749 323.227h23.734v21.98h-23.734zM247.803 323.227h23.734v21.98h-23.734zM281.857 323.227h23.734v21.98h-23.734zM315.913 323.227h23.734v21.98h-23.734zM349.968 323.227h23.734v21.98h-23.734zM384.022 323.227h23.734v21.98h-23.734zM145.638 352.694h23.734v21.98h-23.734zM179.693 352.694h23.734v21.98h-23.734zM213.749 352.694h23.734v21.98h-23.734zM247.803 352.694h23.734v21.98h-23.734zM281.857 352.694h23.734v21.98h-23.734zM315.913 352.694h23.734v21.98h-23.734zM349.968 352.694h23.734v21.98h-23.734zM384.022 352.694h23.734v21.98h-23.734zM145.638 382.161h23.734v21.98h-23.734zM179.693 382.161h23.734v21.98h-23.734zM213.749 382.161h23.734v21.98h-23.734zM247.803 382.161h23.734v21.98h-23.734z"/><path d="M375.329 341.848c-1.069 1.428-6.538 9.047-17.815 3.797-11.277-5.25-17.5-10.174-8.592-21.671 8.415-10.859 19.363-5.096 23.409.274 3.237 4.295 4.204 10.325 4.283 12.803" stroke="#5BC7F3" stroke-width="4" stroke-linecap="round" stroke-linejoin="round"/><path d="M397.996 300.575l-2.116 2.116-19.416 33.876 33.617-19.674 2.116-2.117-14.201-14.201z" fill="#D7E6F7"/><path d="M380.312 329.104l-4.054 7.256 7.239-4.141-3.185-3.115z" fill="#19A0D0"/><path d="M395.57 302.588l-13.605 23.727 20.782-20.783-5.06-5.06-2.117 2.116z" fill="#EFF6FE"/><path d="M505.951 192.103c2.636-2.637 7.989-1.586 11.914 2.339s4.976 9.277 2.339 11.914l-3.678 3.678c-2.637 2.637-7.99 1.586-11.914-2.339-3.925-3.925-4.976-9.277-2.339-11.914l3.678-3.678z" fill="#5BC7F3"/><path d="M502.771 205.508l12.872-12.871c-3.533-2.354-7.541-2.684-9.692-.533l-3.678 3.677c-2.185 2.186-1.855 6.194.498 9.727z" fill="#5BC7F3"/><path d="M395.57 302.588l14.253 14.254 104.743-104.744-14.253-14.253L395.57 302.588z" fill="#5BC7F3"/><path d="M395.569 302.588l6.869 6.868 104.743-104.743-6.868-6.868-104.744 104.743z" fill="#5BC7F3"/><path d="M400.63 307.649l3.563 3.563 104.743-104.743-3.563-3.563L400.63 307.649zM500.312 197.845l14.253 14.253 3.956-3.955-14.254-14.253-3.955 3.955z" fill="#19A0D0"/></svg>