<svg width="516" height="384" fill="none" xmlns="http://www.w3.org/2000/svg"><path d="M383.704 142.346c-52.41-24.829-86.841-17.583-129.277-39.154-42.435-21.571-238.462-84.994-173.823 76.399C98.5 267.425 59.725 252.322 43.766 310.06c-15.96 57.738 43.793 70.492 88.739 73.079 87.586 5.04 60.771-32.47 150.07-32.47C495.51 441.258 510.36 142.346 383.704 142.346z" fill="#D5F4FE"/><path d="M51.461 383.986s156.864-168.1 311.237 0H51.461z" fill="#B7D553"/><path d="M152.999 383.986s156.863-153.5 311.237 0H152.999z" fill="#B7D553"/><path d="M51.461 383.468s208.038-55.859 412.774 0H51.461z" fill="#F4BC68"/><g clip-path="url(#clip0)"><path d="M283.884 260.741c.238-.848-.442-1.492-.442-1.492l-4.389 3.087 3.47 12.11s.851.102.783-1.425c0-.271-.102-.271-.068-.509 0 0 .476-.067.476-.848 0-.407-.068-.61-.068-.61s.374-.102.408-.679c0 0-.034-.916-.442-1.594 0 0-.306-1.798-.476-2.205 0 0 .272-.814.34-1.289 0 0 .612-2.51.919-2.68.306-.102-.511-1.866-.511-1.866z" fill="#E9AC7D"/><path d="M279.393 251.548s-1.565 11.263-1.565 13.23c0 1.968 2.654 9.193 4.525 10.686 0 0 1.089-.475.17-3.257 0 0-1.905-6.038-1.735-6.581.136-.577 1.565-5.122 2.177-5.326.579-.203 1.225 1.696 1.463 3.189.408 2.646.272 4.105 1.123 4.071.51 0 .408-6.174.408-6.174s-.646-5.937-2.722-10.516l-3.844.678z" fill="#FFC79B"/><path d="M278.917 189.708s1.259 20.523.851 25.001c-.374 4.443-1.939 17.097-.34 37.857l3.674 1.357s3.198-22.117 4.457-36.093c0 0 1.258-13.875 3.198-27.478l-11.84-.644z" fill="#FFC79B"/><path d="M292.866 142.827s-8.506.712-10.581 14.383c-2.041 13.671-3.946 29.988-4.491 31.955 0 0 1.599 7.802 13.235 4.749l1.905-12.144-.068-38.943z" fill="#F1F1F1"/><path d="M318.109 85.125s8.131-6.547 14.357-2.443c10.683 7.056 3.709 26.901 1.939 33.516-1.769 6.615-3.708 25.95 1.668 24.695 0 0 .612.95-2.994 2.002-3.607 1.051-12.52-9.227-10.819-20.829 1.701-11.635 7.893-31.92 1.123-32.192l-5.274-4.75z" fill="#2D100C"/><path d="M297.663 269.256c0 1.934-1.633 3.46-2.892 3.46s-2.246-1.56-2.246-3.46c0-1.934 1.021-3.46 2.246-3.46 1.259 0 2.892 1.56 2.892 3.46z" fill="#DBDFE3"/><path d="M290.731 189.671s-5.972 2.545-13.959-1.366c0 0-1.466-.166-1.166 2.707 0 0 .44 2.557-.858 5.213-.77 1.616 9.701 5.375 14.692 2.508 0 0 1.602-1.027 1.111-2.04-.663-1.301-.602-3.918.537-5.231 0 0 .306-1.197-.357-1.791z" fill="#F1F1F1"/><path d="M307.937 339.645l4.695-88.063-20.957-14.824 2.994 102.887h13.268z" fill="#45BDEE"/><path opacity=".7" d="M303.038 318.206c.34 5.971-5.239 7.599-8.744 7.904l.341 11.873 13.404-.916 4.593-85.485-9.424-6.648c-1.327 19.335-.51 67.234-.17 73.272z" fill="#45BDEE"/><path d="M308.89 336.321s-4.015 18.318-2.586 23.644c1.497 5.631-.51 11.262-1.633 13.365 0 0-3.878 2.646-12.315 0 0 0-2.824-1.221-8.267 0 0 0-11.091 2.477-17.453 0 0 0-1.599-7.938 4.218-10.584 4.185-1.899 15.344-4.036 18.134-7.429 2.823-3.392 4.252-17.979 4.252-17.979l15.65-1.017z" fill="#715040"/><path d="M298.037 337.033l-4.797.306s-.238 2.374-.715 5.427c2.45 1.798 7.451 4.41 14.629 2.816.545-3.427 1.157-6.48 1.497-8.108l-10.614-.441z" fill="#583C2D"/><path d="M292.321 373.364c8.472 2.646 12.316 0 12.316 0 .681-1.255 1.701-3.833 2.041-6.92-2.143 3.426-9.662 2.239-10.512 2.408-1.021.17-4.083-.407-7.077-.916-2.993-.508-12.485 3.189-20.48 2.171-1.225-.169-1.701-1.153-1.871-2.306-.715 2.815-.17 5.563-.17 5.563 6.327 2.476 17.452 0 17.452 0 5.478-1.221 8.301 0 8.301 0z" fill="#593D2F"/><path d="M293.002 339.238c-.477 4.037-1.837 13.467-4.049 16.113-1.429 1.696-4.933 3.087-8.607 4.308-2.518 1.391-5.035 2.884-5.239 3.393-.477 1.085 13.37-1.629 15.854-3.46 2.483-1.832 8.165-17.81 8.165-17.81l-6.124-2.544z" fill="#BD7B62"/><path d="M297.765 340.799s-5.137 15.333-6.804 17.232c-1.667 1.866-12.044 4.41-13.235 4.037-1.19-.373 9.696-3.63 11.534-6.242 2.585-3.697 4.252-15.808 4.252-15.808l4.253.781z" fill="#3C2618"/><path d="M295.451 330.418s-3.368-.034-3.13 1.934c.238 1.967-.034 6.14-.476 7.7-.442 1.561 6.6 4.478 17.589 1.12 0 0 2.075-1.629 1.259-4.512 0 0 2.449-5.563-.579-6.377-2.585-.679-9.356-.238-14.663.135zM266.397 370.718s-1.054.713-1.054 1.255v3.121s7.212 2.951 21.127 0c0 0 3.742-.95 6.192-.068 2.415.848 10.342.848 12.826-.475 0 0 .884-1.323.816-3.867l-.306-1.051s-7.281 1.56-12.758.542c0 0-4.321-1.051-6.906-.339-2.382.611-10.105 2.985-19.937.882z" fill="#926553"/><path d="M299.84 345.548c-.102.644-.544 1.119-.952 1.051-.409-.068-.647-.644-.511-1.289.102-.644.545-1.119.953-1.051.408.034.612.644.51 1.289z" fill="#9DD1E4"/><path d="M299.568 345.48c-.068.407-.34.678-.578.644-.238-.034-.375-.407-.306-.78.068-.407.34-.678.578-.644.238.034.374.407.306.78z" fill="#192629"/><path d="M298.479 350.025c-.102.645-.544 1.12-.952 1.052-.408-.068-.647-.644-.511-1.289.103-.644.545-1.119.953-1.052.408.034.612.645.51 1.289z" fill="#9DD1E4"/><path d="M298.207 349.958c-.068.407-.34.678-.579.644-.238-.034-.374-.407-.306-.78.068-.407.34-.679.579-.645.238.034.374.408.306.781z" fill="#192629"/><path d="M296.812 353.723c-.102.645-.544 1.119-.952 1.052-.408-.068-.647-.645-.511-1.289.103-.645.545-1.12.953-1.052.374.068.612.644.51 1.289z" fill="#9DD1E4"/><path d="M296.506 353.689c-.068.407-.34.679-.578.645-.238-.034-.375-.407-.306-.781.068-.407.34-.678.578-.644.238.034.374.373.306.78z" fill="#192629"/><path d="M294.805 357.76c-.17.644-.612 1.085-1.021.983-.408-.101-.578-.678-.442-1.323.17-.644.612-1.085 1.021-.983.408.068.612.678.442 1.323z" fill="#9DD1E4"/><path d="M294.533 357.692c-.102.373-.374.645-.612.611-.238-.068-.375-.441-.272-.815.102-.373.374-.644.612-.61.238.068.374.407.272.814z" fill="#192629"/><path d="M290.995 361.864c-.579.306-1.191.306-1.395-.067-.204-.34.102-.916.68-1.222.579-.305 1.191-.305 1.395.068.204.373-.102.916-.68 1.221z" fill="#9DD1E4"/><path d="M290.824 361.627c-.34.203-.748.17-.85-.034-.136-.204.068-.543.408-.746.34-.204.748-.17.851.034.136.203-.034.542-.409.746z" fill="#192629"/><path d="M285.619 363.866c-.646.169-1.224 0-1.326-.407-.103-.407.34-.848.952-1.018.646-.17 1.225 0 1.327.407.102.407-.306.848-.953 1.018z" fill="#9DD1E4"/><path d="M285.551 363.594c-.374.102-.748 0-.816-.237-.068-.238.204-.509.578-.611.374-.101.748 0 .816.238.068.237-.204.509-.578.61z" fill="#192629"/><path d="M279.938 364.748c-.647.169-1.225 0-1.327-.407-.102-.407.34-.848.952-1.018.647-.17 1.225 0 1.361.407.068.407-.374.848-.986 1.018z" fill="#9DD1E4"/><path d="M279.836 364.476c-.374.102-.749 0-.817-.237-.068-.237.204-.509.579-.611.374-.101.748 0 .816.238.068.237-.17.509-.578.61z" fill="#192629"/><path d="M292.083 344.225c1.565.678 6.873 1.187 6.873 1.187s-2.654 1.73-7.213.373M291.709 346.599c.986 1.73 6.022 3.291 6.022 3.291s-4.083-.305-6.464-2.409M291.301 347.854s1.973 4.614 4.763 5.733c0 0-4.559-.305-5.92-1.187M289.94 353.146c.578 1.764 4.15 4.444 4.15 4.444s-3.64-.543-5.001-2.408M288.715 355.351s.341 4.376 1.906 5.869c0 0-4.355-2.273-4.797-4.003 0 0-.749 4.41-.375 5.665 0 0-3.844-2.442-3.674-4.172 0 0-1.769 3.46-2.007 5.19 0 0-1.157-2.307-.749-3.867" stroke="#6C5040" stroke-width="1.765" stroke-miterlimit="10" stroke-linecap="round" stroke-linejoin="round"/><path d="M334.338 214.268s8.709 18.657 3.13 35.584c0 0-14.8-5.868-22.863 4.783 0 0-2.823.848-6.6-4.342-3.81-5.19-16.296-11.364-16.296-11.364l-.034-29.003 42.663 4.342z" fill="#5BC7F3"/><path opacity=".7" d="M334.337 214.268l-2.483-.238-2.042 6.14s5.41 10.889 1.123 28.224c3.198.339 5.648 1.153 6.328 1.391.034 0 .034 0 .068.034H337.433c5.614-16.86-3.096-35.551-3.096-35.551z" fill="#45BDEE"/><path d="M320.967 136.653s15.242 2.883 19.358 4.173c0 0 .817 7.53-1.973 24.152-3.164 18.997-6.26 19.472-7.995 52.275 0 0-22.556 8.209-37.491-2.409 0 0-9.696-35.313-9.832-44.811-.068-5.903 6.838-25.476 8.097-26.969 0 0 6.021-1.764 11.567-3.324 3.946-1.052 18.269-3.087 18.269-3.087z" fill="#fff"/><path d="M331.514 201.513s-4.389 7.293-4.865-33.617c.34-4.58 3.095-23.441 5.987-28.902l-4.184-.815s-6.09 12.654-7.417 27.919c-8.267-.475-28.918-.238-34.94 1.594 0 0-6.259 2.205 5.308 50.578 0 0 23.712 8.549 42.016.509 3.062-1.323-2.11-15.468-1.905-17.266z" fill="#5BC7F3"/><path opacity=".7" d="M331.514 201.513s-3.096 5.156-4.355-17.538c-.612 11.635 2.143 32.43 2.654 36.195.612-.203 1.224-.407 1.803-.61.306-.102.578-.238.884-.34h.034c.307-.135.579-.237.885-.373 3.062-1.391-2.109-15.536-1.905-17.334z" fill="#45BDEE"/><path d="M320.967 114.23s-2.245 16.724.953 23.203c0 0-3.47 5.733-11.125 8.617 0 0-2.994 4.613-4.593 8.209-1.599 3.596-3.028-7.328-3.028-7.328s-1.225-4.206-1.293-5.054c0 0 3.709-4.783 3.709-14.79l15.377-12.857z" fill="#FFC79B"/><path d="M304.637 135.16c3.64-.101 10.241-1.492 15.582-7.598-.068-3.155.102-6.344.272-8.786 0-.102.034-.238.034-.339v-.034c0-.102.034-.204.034-.306v-.067c0-.102 0-.17.034-.272v-.068c0-.068 0-.169.034-.237v-.102c0-.068 0-.136.034-.203v-.102c0-.068 0-.136.034-.204v-.102-.169-.136-.169-.102-.136-.102-.135-.102-.136-.102-.169-.034-.102-.102-.101-.034-.034-.17V114.603v-.034-.033-.17-.068V114.196l-15.411 12.857c.272 3.256-.102 5.936-.647 8.107z" fill="#E9AC7D"/><path d="M291.743 106.801s-6.226-12.28-1.973-14.01c4.253-1.696 4.184 2.748 4.184 2.748l-2.211 11.262z" fill="#442119"/><path d="M325.764 104.698c-1.497-.373-2.722.577-3.708 1.594.34-5.054-.136-10.38-2.416-14.417-6.055-10.584-28.918-7.497-27.897 14.892 0 0 .136 14.35 9.356 24.899 0 0 2.075 1.154 5.205-.101 0 0 10.513-4.817 13.166-10.652 0 0 .272-1.187 1.055-4.546.34.509.816.916 1.497.781 1.429-.306 4.695-4.173 5.511-7.429 0 0 .851-4.376-1.769-5.021z" fill="#FFC79B"/><path d="M322.124 104.969s.238 2.748-2.28 4.885c0 0-.204-2.612-1.735-6.649l4.015 1.764z" fill="#442119"/><path d="M298.139 119.929s2.075-.61 5.239-.543c3.164.068 3.709-.101 3.709-.101s-5.376 2.612-8.948.644z" fill="#DA6F8A"/><path d="M298.139 119.929s-.102 4.546 3.878 4.783c3.981.238 4.933-4.376 5.069-5.427.035 0-5.001 1.764-8.947.644z" fill="#DA6F8A"/><path d="M326.275 109.277s.136-3.053-1.157-2.849c-1.293.203-2.756 1.425-3.164 3.63 0 0 1.157.78.816 1.662-.442 1.085-.986 1.425-1.395 1.425 0 0 .205 1.797.715 1.797.85 0 3.47-1.933 4.185-5.665z" fill="#C37B6D"/><path d="M304.059 105.003s.102-.102.306-.237c.204-.17.51-.306.885-.475.204-.102.408-.136.646-.204.238-.068.476-.135.748-.135.273 0 .545-.034.817-.034.272-.034.544.068.816.101l.817.136c.238.102.51.17.748.272.477.169.919.339 1.259.576.681.441 1.123.713 1.123.713.034 0 .034.034 0 .034 0 0-.034.033-.034 0 0 0-.476-.204-1.191-.543-.34-.204-.782-.306-1.259-.407-.238-.068-.476-.136-.714-.17l-.749-.034c-.238 0-.51-.068-.748 0-.238.034-.476.068-.714.068-.239 0-.443.102-.647.136-.204.034-.408.068-.578.135-.374.102-.681.204-.885.272-.204.068-.34.135-.34.135-.068.034-.204 0-.238-.067-.136-.102-.136-.204-.068-.272z" fill="#442119"/><path d="M296.914 109.854c0 1.018-.442 1.866-1.02 1.866-.545 0-1.021-.848-1.021-1.866 0-1.017.442-1.865 1.021-1.865.578-.034 1.02.814 1.02 1.865z" fill="#211206"/><path d="M297.254 108.701s-.102-.238-.374-.509c-.102-.136-.306-.271-.476-.407a1.198 1.198 0 0 0-.307-.136c-.102-.068-.204-.068-.306-.068h-.306l-.306.102c-.204.034-.408.068-.544.17-.341.135-.647.169-.647.169l-.034-.034s.136-.237.442-.508c.068-.068.17-.136.273-.204.102-.068.238-.068.374-.136.136-.034.272-.034.408-.067l.442.101c.136.034.272.068.409.17.102.068.238.136.34.237.17.204.34.373.408.543.204.339.272.611.272.611l-.068-.034zM307.563 109.787c0 1.017-.443 1.865-1.021 1.865-.544 0-1.021-.848-1.021-1.865 0-1.018.443-1.866 1.021-1.866.578 0 1.021.848 1.021 1.866z" fill="#211206"/><path d="M308.448 108.633s-.103-.237-.375-.509c-.102-.135-.306-.271-.476-.407a1.17 1.17 0 0 0-.306-.135c-.102-.068-.204-.068-.306-.068h-.307a36.45 36.45 0 0 1-.306.101c-.204.034-.408.068-.544.17-.34.136-.647.17-.647.17l-.034-.034s.137-.238.443-.509c.068-.068.17-.136.272-.204.102-.067.238-.067.374-.135.136-.034.272-.034.408-.068l.443.102c.136.034.272.067.408.169.102.068.238.136.34.238.17.203.34.373.408.542.204.34.273.611.273.611l-.068-.034z" fill="#211206"/><path d="M299.057 111.482s.171.441.034 1.12c-.068.339-.17.746-.374 1.119s-.442.747-.782 1.086c-.17.169-.306.305-.408.441-.137.136-.205.305-.273.441-.068.135-.034.135.034.373.068.136.136.237.239.373.374.441.85.543.85.543s-.102.034-.306.034c-.204-.034-.51-.068-.817-.272a1.687 1.687 0 0 1-.408-.441c-.068-.101-.272-.475-.17-.746.068-.271.204-.475.34-.644.136-.204.306-.374.442-.543.239-.339.545-.611.749-.95.136-.136.17-.339.272-.475.102-.136.17-.305.238-.441.238-.577.34-1.018.34-1.018z" fill="#E9AC7D"/><path d="M298.139 119.929s4.593.984 8.982-.644c0 0-.987 4.206-5.274 4.036-3.334-.135-3.708-3.392-3.708-3.392z" fill="#62332E"/><path d="M301.847 123.321c2.484.102 3.845-1.289 4.593-2.442-3.64-.407-4.593 1.764-4.797 2.442h.204z" fill="#DB7675"/><path d="M291.709 105.41s.272-.373.85-.814c.136-.135.307-.203.477-.305.17-.102.374-.237.578-.305.204-.068.442-.136.68-.204.239-.102.477-.068.715-.102l.748-.034c.238.034.477.102.681.17.238.068.442.102.646.17.204.101.34.203.51.305.613.407.953.712.953.712a.164.164 0 0 1 0 .238c-.034.068-.102.068-.17.034h-.034s-.442-.136-1.055-.407c-.272-.17-.646-.272-1.054-.373-.204-.068-.409-.102-.613-.204l-.646-.034c-.204 0-.442-.068-.647 0l-.612.102c-.204.034-.374.136-.578.203-.17.068-.341.136-.511.238-.612.305-.918.644-.918.644h-.034c.034 0 .034 0 .034-.034z" fill="#442119"/><path d="M306.917 119.895c.136-.339.204-.576.204-.576-3.845 1.39-7.825.814-8.778.678.034.475.136.712.579.848.646.204 3.402 1.221 7.995-.95z" fill="#fff"/><path d="M300.249 125.187s1.292.645 3.742 0c.034 0-1.973 2.375-3.742 0z" fill="#E9AC7D"/><path d="M341.346 343.038l-3.878-93.152s-9.322-12.653-22.863 4.783c0 0 10.581 56.414 13.575 87.453l13.166.916z" fill="#5BC7F3"/><path opacity=".7" d="M337.467 249.852c-.136-.169-2.415-3.12-6.226-4.104 1.191 31.48 4.287 73.205 3.709 77.207-.477 3.223-4.865 4.037-8.506 4.139a465.98 465.98 0 0 1 1.327 10.957l13.2-4.41-3.504-83.789c0 .034 0 0 0 0z" fill="#45BDEE"/><path d="M288.885 170.338s4.049-19.098 6.668-28.461l-1.735.543s-3.742 9.43-9.015 28.054c0 0 .272 4.817 2.721 3.765.749-.339 1.974-1.425 1.361-3.901z" fill="#5BC7F3"/><path d="M324.982 341.172s2.313 19.03.884 22.117c0 0-3.98 3.494-6.532 7.158-.816 1.153-.442 3.121-.442 4.647 0 3.935 17.146 5.462 21.399-.271 0 0 1.191-4.58 2.79-6.683 0 0 0-3.697-2.144-7.022 0 0-.51-16.147 1.633-22.83l-17.588 2.884z" fill="#715040"/><path d="M340.291 374.857s1.191-4.58 2.79-6.683c0 0 0-1.018-.306-2.476-1.259.169-4.117 6.615-4.117 6.615-5.069 4.715-16.126 3.392-17.895 2.815-1.735-.543-1.599-4.104-1.599-4.308-.544 1.187-.238 2.883-.238 4.308 0 3.901 17.147 5.462 21.365-.271z" fill="#593D2F"/><path d="M325.288 344.021c2.177 1.018 7.383 2.68 16.058 1.323.272-2.714.646-5.224 1.225-7.056l-17.589 2.884s.136 1.119.306 2.849z" fill="#583C2D"/><path d="M335.018 339.781s-.204 20.455 0 22.253c.204 1.798-1.667 5.19-8.233 3.155 0 0-2.62-.136 1.089-3.664 0 0 1.156-16.384.578-19.81-.612-3.461 6.566-1.934 6.566-1.934z" fill="#BD7B62"/><path d="M326.308 364.375s4.729 2.171 7.621-.713c0 0 .374-.441.578-1.323.205-.882-1.394-20.726-.646-21.676l-4.525.441s-.374 20.286-1.156 21.1c-.783.848-2.11 1.56-1.872 2.171z" fill="#3C2618"/><path d="M326.649 330.859s-3.675.204-3.266 2.307c.408 2.103.374 6.683 0 8.413-.374 1.73 7.484 4.41 19.188 0 0 0 2.143-1.9 1.088-4.987 0 0 2.28-6.208-1.088-6.886-2.824-.577-10.173.373-15.922 1.153zM318.858 374.009s-.477.848-.647 1.797c-.204.95.341 3.834.341 3.834s3.606 6.038 17.759 2.239c1.258-.34 2.619-.781 3.572-1.663 0 0 1.225-1.017 1.395-3.697 0 0 .68-1.052 2.993-3.325 0 0 .477-6.072-1.258-6.072-1.089 0-2.96 4.987-3.198 6.412-.238 1.255-7.179 5.631-18.338 2.985-2.177-.543-1.871-1.561-2.619-2.51z" fill="#926553"/><path d="M336.685 346.09c0 .645-.307 1.154-.681 1.154-.374 0-.68-.509-.68-1.154 0-.644.306-1.153.68-1.153.374 0 .681.543.681 1.153z" fill="#9DD1E4"/><path d="M336.413 346.091c0 .373-.17.678-.408.678-.205 0-.375-.305-.375-.678 0-.374.17-.679.375-.679.204 0 .408.305.408.679z" fill="#192629"/><path d="M336.685 349.992c0 .644-.307 1.153-.681 1.153-.374 0-.68-.509-.68-1.153 0-.645.306-1.154.68-1.154.374 0 .681.509.681 1.154z" fill="#9DD1E4"/><path d="M336.413 349.991c0 .374-.17.679-.408.679-.205 0-.375-.305-.375-.679 0-.373.17-.678.375-.678.204 0 .408.305.408.678z" fill="#192629"/><path d="M336.821 354.266c0 .644-.306 1.153-.681 1.153-.374 0-.68-.509-.68-1.153 0-.645.306-1.153.68-1.153.375 0 .681.542.681 1.153z" fill="#9DD1E4"/><path d="M336.515 354.266c0 .373-.17.678-.374.678s-.409-.305-.409-.678c0-.373.171-.679.409-.679.204 0 .374.306.374.679z" fill="#192629"/><path d="M336.957 359.015c0 .644-.306 1.153-.68 1.153-.375 0-.681-.509-.681-1.153 0-.645.306-1.153.681-1.153.374-.034.68.508.68 1.153z" fill="#9DD1E4"/><path d="M336.277 359.693c.225 0 .408-.303.408-.678 0-.375-.183-.679-.408-.679-.226 0-.408.304-.408.679 0 .375.182.678.408.678z" fill="#192629"/><path d="M327.908 358.676c0 .644-.204 1.153-.477 1.153-.272 0-.476-.509-.476-1.153 0-.645.204-1.154.476-1.154.273-.034.477.509.477 1.154z" fill="#9DD1E4"/><path d="M327.704 358.676c0 .373-.137.678-.273.678-.17 0-.272-.305-.272-.678 0-.373.136-.679.272-.679s.273.306.273.679z" fill="#192629"/><path d="M327.908 354.266c0 .644-.204 1.153-.477 1.153-.272 0-.476-.509-.476-1.153 0-.645.204-1.153.476-1.153.273 0 .477.542.477 1.153z" fill="#9DD1E4"/><path d="M327.704 354.266c0 .373-.137.678-.273.678-.17 0-.272-.305-.272-.678 0-.373.136-.679.272-.679s.273.306.273.679z" fill="#192629"/><path d="M327.908 350.229c0 .645-.204 1.153-.477 1.153-.272 0-.476-.508-.476-1.153 0-.644.204-1.153.476-1.153.273 0 .477.509.477 1.153z" fill="#9DD1E4"/><path d="M327.704 350.229c0 .373-.137.678-.273.678-.17 0-.272-.305-.272-.678 0-.373.136-.678.272-.678s.273.305.273.678z" fill="#192629"/><path d="M328.112 345.819c0 .645-.204 1.154-.477 1.154-.272 0-.476-.509-.476-1.154 0-.644.204-1.153.476-1.153.273 0 .477.543.477 1.153z" fill="#9DD1E4"/><path d="M327.908 345.819c0 .373-.136.678-.273.678-.17 0-.272-.305-.272-.678 0-.373.136-.678.272-.678.137 0 .273.305.273.678z" fill="#192629"/><path d="M327.907 345.955s6.498 3.358 7.825 4.003c0 0-7.416 4.172-8.131 4.444 0 0 3.164 3.595 8.369 4.613" stroke="#6C5040" stroke-width="1.879" stroke-miterlimit="10" stroke-linecap="round" stroke-linejoin="round"/><path d="M335.902 346.09s-6.294 3.325-8.199 4.139c0 0 7.179 3.935 8.199 4.104 0 0-6.872 3.868-8.471 4.309" stroke="#6C5040" stroke-width="1.879" stroke-miterlimit="10" stroke-linecap="round" stroke-linejoin="round"/><path opacity=".6" d="M344.272 373.195s.068-.916.068-2.07c-.885.95-2.416 1.595-3.13 1.798-1.089.305-1.667 4.478-1.667 4.478-11.091 5.767-19.154 1.696-21.297.373.102.95.272 1.866.272 1.866s3.606 6.038 17.759 2.239c1.259-.34 2.619-.781 3.572-1.663 0 0 1.225-1.017 1.395-3.697.034-.034.714-1.086 3.028-3.324z" fill="#7F5747"/><path d="M288.273 174.137c.953 0 1.735-1.424 1.735-3.222 0-1.764-.782-3.223-1.735-3.223h-.986l.102 6.445h.884z" fill="#1174B9"/><path d="M289.123 170.915c0 1.764-.782 3.222-1.735 3.222-.952 0-1.735-1.424-1.735-3.222 0-1.764.783-3.223 1.735-3.223.953.034 1.735 1.459 1.735 3.223z" fill="#178FE3"/><path d="M288.375 170.915c0 1.289-.476 2.341-1.055 2.341-.578 0-1.054-1.052-1.054-2.341 0-1.289.476-2.341 1.054-2.341.579 0 1.055 1.052 1.055 2.341z" fill="#1174B9"/><path d="M286.708 170.915c0-1.12.34-2.035.816-2.273a.63.63 0 0 0-.238-.068c-.578 0-1.055 1.052-1.055 2.341 0 1.289.477 2.341 1.055 2.341a.63.63 0 0 0 .238-.068c-.476-.238-.816-1.154-.816-2.273z" fill="#0A5F9A"/><path d="M322.974 173.255c.953 0 1.735-1.424 1.735-3.222 0-1.764-.782-3.223-1.735-3.223h-.986l.102 6.445h.884z" fill="#1174B9"/><path d="M323.825 170.033c0 1.764-.783 3.222-1.735 3.222-.953 0-1.736-1.424-1.736-3.222 0-1.764.783-3.223 1.736-3.223.952.034 1.735 1.459 1.735 3.223z" fill="#178FE3"/><path d="M323.076 170.033c0 1.289-.476 2.34-1.055 2.34-.578 0-1.054-1.051-1.054-2.34s.476-2.341 1.054-2.341c.545.034 1.055 1.052 1.055 2.341z" fill="#1174B9"/><path d="M321.409 170.033c0-1.12.34-2.036.816-2.273a.63.63 0 0 0-.238-.068c-.578 0-1.054 1.052-1.054 2.341 0 1.289.476 2.34 1.054 2.34.068 0 .17-.033.238-.067-.476-.238-.816-1.154-.816-2.273z" fill="#0A5F9A"/><path d="M293.479 174.389s9.458.882 21.093 0c0 0-.102 6.31-.851 8.209-.782 1.934-3.98 8.345-10.376 8.345-7.791 0-9.152-7.497-9.152-7.497s-.884-3.799-.714-9.057z" fill="#178FE3"/><path d="M305.556 155.96h1.156c.681 0 5.58-6.92 7.213-6.615 1.633.272 7.166 6.222 9.208 6.968 0 0 1.577-17.144 1.577-17.925 0 0 .476-.916-.885-2.272-1.361-1.357-3.368-3.562-3.368-3.562s-.204 5.834-1.259 6.615c-1.055.78-10.41 7.191-10.648 7.87-.205.644-2.994 8.921-2.994 8.921z" fill="#F1F1F1"/><path d="M305.556 155.005h1.156c.681 0 5.58-6.92 7.213-6.615 1.633.272 6.6 5.869 8.641 6.615 0 0 1.293-16.995 2.144-17.572 0 0 .476-.916-.885-2.273-1.361-1.356-3.368-3.561-3.368-3.561s-.204 5.834-1.259 6.615c-1.055.78-10.41 7.191-10.648 7.87-.205.644-2.994 8.921-2.994 8.921z" fill="#fff"/><path d="M305.883 155.895s-4.083-13.041-3.641-14.636c0 0 1.429-2.239 1.94-5.292 0 0-5.818 4.851-6.532 5.971 0 0-1.497 7.564-1.599 8.616-.103 1.052.918.373 1.633.102.68-.272 1.054-1.052 1.667-.679.51.373 4.219 6.97 6.532 5.918z" fill="#F1F1F1"/><path d="M305.555 155.005s-3.266-12.992-2.823-14.587c0 0 1.429-2.239 1.939-5.292 0 0-5.818 4.851-6.532 5.971 0 0-1.497 7.565-1.599 8.616-.102 1.052.918.373 1.633.102.68-.271 1.054-1.052 1.667-.679.51.374 3.402 6.921 5.715 5.869z" fill="#fff"/><path d="M322.056 106.326c1.258.306.952 1.662.306 3.698h4.184c-.306-2.069-.374-3.8-.17-5.055 1.803-10.346 2.756-16.96-4.933-17.64-2.007-4.647-9.934-6.784-14.357-6.072-5.035.815-4.797.645-14.799 6.073-9.968 5.393-.374 14.281-.374 14.281 3.674-3.969 6.158-7.666 17.079-8.04-.409 1.697 4.933 10.652 13.064 12.755z" fill="#442119"/><path d="M320.525 116.367c.34.509.816.916 1.497.78 1.429-.305 4.695-4.172 5.511-7.429 0 0 .851-4.376-1.769-5.02-1.497-.373-2.722.577-3.708 1.594" fill="#FFC79B"/><path d="M326.275 109.277s.136-3.053-1.157-2.849c-1.293.203-2.756 1.425-3.164 3.63 0 0 1.157.78.816 1.662-.442 1.085-.986 1.425-1.395 1.425 0 0 .205 1.797.715 1.797.85 0 3.47-1.933 4.185-5.665z" fill="#E9AC7D"/><path d="M342.061 169.083s10.92 26.9 13.744 28.868c3.198 2.205 8.505-1.662 7.144-7.293-2.007-8.244-11.703-30.7-11.703-30.7l-9.185 9.125z" fill="#FFC79B"/><path d="M339.781 140.893s4.287 0 6.634 4.308c1.531 2.85 9.016 23.882 11.839 29.717 0 0-4.252 6.852-12.009 6.852 0 0-7.587-13.026-11.635-17.538 0 .034-2.484-15.978 5.171-23.339z" fill="#fff"/><path d="M357.54 173.391s-3.402 5.529-12.18 6.954c0 0-1.293.713.613 2.884 0 0 1.837 1.831 2.313 4.749.306 1.764 11.023-1.221 13.438-6.445 0 0 .715-1.764-.272-2.307-1.293-.679-2.756-2.85-2.585-4.58 0 0-.443-1.153-1.327-1.255z" fill="#fff"/><path d="M352.981 190.658s1.837 34.159 1.429 39.892c0 0 1.735 3.359 6.192 0 0 0 4.456-35.042 2.347-39.892-2.143-4.851-9.015-1.934-9.968 0z" fill="#FFC79B"/><path d="M370.672 308.063c0 .814-7.076 1.493-15.82 1.493-8.743 0-15.819-.679-15.819-1.493l-4.525-42.199h40.723l-4.559 42.199z" fill="#98ADBE"/><path opacity=".2" d="M339.067 308.063c0 .814 7.076 1.493 15.82 1.493 8.743 0 15.819-.679 15.819-1.493l4.525-42.199h-7.178c-.885 39.994-23.067 39.146-29.428 38.095l.442 4.104z" fill="#51616C"/><path opacity=".2" d="M371.693 265.864c-.476 8.65-2.45 32.769-9.934 43.522 5.307-.237 8.947-.746 8.947-1.323l4.525-42.199h-3.538z" fill="#51616C"/><path d="M375.232 265.864c0 1.764-9.117 3.155-20.344 3.155s-20.345-1.425-20.345-3.155c0-1.764 9.118-3.189 20.345-3.189 11.227.034 20.344 1.459 20.344 3.189z" fill="#6F8492"/><path d="M374.448 265.864c0 1.424-8.777 2.612-19.562 2.612-10.818 0-19.562-1.154-19.562-2.612 0-1.425 8.744-2.612 19.562-2.612 10.785 0 19.562 1.187 19.562 2.612z" fill="#667B81"/><path d="M337.91 267.187c3.368.78 9.696 1.289 16.943 1.289 7.246 0 13.574-.509 16.942-1.289-3.368-.78-9.696-1.289-16.942-1.289-7.213-.034-13.541.509-16.943 1.289z" fill="#fff"/><path d="M355.328 238.488c-10.921 0-19.766 8.854-19.766 19.709v6.683c.306-.204.68-.305 1.055-.373v-6.344c0-10.312 8.403-18.691 18.745-18.691 10.343 0 18.746 8.379 18.746 18.691v12.959h1.055v-12.959c-.069-10.821-8.948-19.675-19.835-19.675z" fill="#51616C"/><path d="M348.797 239.608c-7.723 2.68-13.269 10.007-13.269 18.623v6.683c.307-.204.681-.306 1.055-.373v-6.344c0-8.107 5.205-15.027 12.486-17.606-.136-.305-.204-.61-.272-.983z" fill="#51616C"/><path d="M362.779 241.066c.204-.271.34-.61.408-.95.783.34 1.565.747 2.28 1.188 0-.441-.068-.916-.273-1.391-.612-1.357-1.565-2.476-1.565-2.476s-.544-.034-.646.542c0 0-1.361-4.036-2.381-5.936l.068-2.069-6.192-1.391s-3.913 10.482-3.334 14.417c0 0 .102 1.492 1.156 2.951 0 0 .069.339 1.599-.339 0 0 .885-.034 1.565.475.681.509 1.565.237 2.246 0 0 0 2.619.882 3.436.034 0 0 1.395.509 2.483-.136 0 0 .953-1.798 1.565-3.189 0 0 .068-.135.137-.373a22.851 22.851 0 0 0-2.552-1.357z" fill="#FFC79B"/><path d="M297.05 84.785c-1.259.679-2.824 1.493-4.729 2.545a1.941 1.941 0 0 0-.238.135c1.803 2.24 4.457 5.123 7.995 7.667 2.177-.848 5.035-1.425 8.947-1.56-.238.983 1.361 4.24 4.287 7.293 4.151.712 8.812.508 13.949-1.086.272-1.832.408-3.46.408-4.919-5.307-.576-20.311-2.85-30.619-10.075z" fill="#623C37"/><path d="M220.503 316.273c0 .915 8.029 1.662 17.929 1.662 9.9 0 17.929-.747 17.929-1.662l5.137-47.797h-46.132l5.137 47.797z" fill="#98ADBE"/><path opacity=".2" d="M256.361 316.273c0 .915-8.029 1.662-17.929 1.662-9.9 0-17.929-.747-17.929-1.662l-5.137-47.797h8.131c.987 45.32 26.128 44.37 33.375 43.183l-.511 4.614z" fill="#51616C"/><path opacity=".2" d="M219.38 268.476c.545 9.803 2.756 37.145 11.261 49.323-5.987-.271-10.138-.848-10.138-1.526l-5.137-47.797h4.014z" fill="#51616C"/><path d="M215.366 268.476c0 1.967 10.342 3.595 23.066 3.595 12.758 0 23.066-1.628 23.066-3.595 0-2.002-10.342-3.596-23.066-3.596-12.724 0-23.066 1.594-23.066 3.596z" fill="#6F8492"/><path d="M216.25 268.476c0 1.628 9.935 2.951 22.182 2.951 12.248 0 22.182-1.323 22.182-2.951 0-1.629-9.934-2.952-22.182-2.952-12.247 0-22.182 1.323-22.182 2.952z" fill="#667B81"/><path d="M257.654 269.934c-3.844.882-10.989 1.459-19.222 1.459-8.199 0-15.377-.61-19.222-1.459 3.845-.881 10.989-1.458 19.222-1.458 8.199 0 15.378.577 19.222 1.458z" fill="#fff"/><path d="M237.922 240.15c12.35 0 22.42 10.041 22.42 22.355v4.885c-.34-.203-.749-.373-1.191-.407v-4.478c0-11.669-9.526-21.167-21.229-21.167s-21.229 9.498-21.229 21.167v11.975h-1.191v-11.975c0-12.314 10.07-22.355 22.42-22.355z" fill="#51616C"/><path d="M245.304 241.406c8.744 3.053 15.038 11.364 15.038 21.099v4.885c-.341-.203-.749-.373-1.191-.407v-4.478c0-9.193-5.92-17.029-14.153-19.946a3.41 3.41 0 0 0 .306-1.153z" fill="#51616C"/><path d="M229.485 243.068a3.135 3.135 0 0 1-.477-1.086c-.884.373-1.769.848-2.585 1.323 0-.475.068-1.051.306-1.594.68-1.561 1.769-2.816 1.769-2.816s.613-.068.749.611c0 0 1.531-4.58 3.504-7.327l-.068-2.341 6.192-1.018s4.422 11.873 3.776 16.351c0 0-.102 1.696-1.327 3.324 0 0-.102.407-1.803-.373 0 0-.987-.034-1.769.543-.783.577-1.769.271-2.552 0 0 0-2.994 1.018-3.912.034 0 0-1.565.577-2.79-.136 0 0-1.055-2.035-1.769-3.596 0 0-.068-.135-.136-.407a25.878 25.878 0 0 1 2.892-1.492z" fill="#FFC79B"/><path d="M242.889 194.491s-2.245 26.12-3.946 36.636c0 0-1.123 4.919-6.158 1.12 0 0-2.62-31.311-1.225-37.417 1.293-5.869 10.274-2.51 11.329-.339z" fill="#FFC79B"/><path d="M218.36 168.608s11.975 30.496 16.194 32.803c3.878 2.103 9.662-1.696 8.267-8.074-2.075-9.396-12.52-35.076-12.52-35.076l-11.941 10.347z" fill="#FFC79B"/><path d="M218.938 137.399s4.865.102 7.417 5.021c1.667 3.256 8.471 26.256 11.533 32.972 0 0-5.001 7.667-13.779 7.497 0 0-8.369-12.483-12.757-20.15 0 .034-1.259-17.165 7.586-25.34z" fill="#F1F1F1"/><path d="M237.139 173.662s-3.98 6.174-13.982 7.599c0 0-1.497.746.646 3.29 0 0 2.042 2.138 2.518 5.428.272 2.001 12.52-1.119 15.377-6.988 0 0 .851-2.001-.272-2.612-1.429-.814-3.062-3.324-2.824-5.224 0-.034-.476-1.391-1.463-1.493z" fill="#F1F1F1"/><path d="M167.6 166.098s-12.383 30.496-15.581 32.701c-3.606 2.51-9.628-1.9-8.097-8.243 2.279-9.329 13.268-34.805 13.268-34.805l10.41 10.347z" fill="#FFC79B"/><path d="M218.054 226.548l.272 125.275s-1.463 1.9-15.854-9.973l-5.035-100.682 20.617-14.62z" fill="#4DC1F1"/><path opacity=".7" d="M201.962 331.13l-4.525-89.996 9.118-8.684c1.497 17.402.68 73.917.306 80.091-.408 6.784 7.008 7.87 10.07 7.87.272 0 1.089-.305 1.327-.475l.068 12.314-16.364-1.12z" fill="#4CC0F0"/><path d="M200.295 331.741s4.729 21.643 3.062 27.952c-1.77 6.649.612 13.332 1.939 15.808 0 0 4.559 3.121 14.561 0 0 0 3.334-1.424 9.798 0 0 0 13.132 2.918 20.617 0 0 0 1.905-9.396-5.001-12.517-4.968-2.239-18.134-4.783-21.468-8.786-3.334-4.003-5.035-21.236-5.035-21.236l-18.473-1.221z" fill="#715040"/><path d="M213.121 332.555l5.681.374s.272 2.815.817 6.411c-2.892 2.103-8.812 5.224-17.283 3.324a198.784 198.784 0 0 0-1.769-9.566l12.554-.543z" fill="#583C2D"/><path d="M219.857 375.501c-10.002 3.121-14.561 0-14.561 0-.817-1.492-2.007-4.545-2.416-8.175 2.552 4.037 11.431 2.646 12.418 2.849 1.191.204 4.831-.508 8.369-1.085 3.538-.611 14.765 3.799 24.223 2.578 1.429-.17 2.007-1.357 2.212-2.714.85 3.325.204 6.581.204 6.581-7.485 2.918-20.617 0-20.617 0-6.498-1.492-9.832-.034-9.832-.034z" fill="#593D2F"/><path d="M219.04 335.134c.579 4.783 2.178 15.909 4.763 19.03 1.667 2.001 5.852 3.664 10.172 5.088 2.994 1.663 5.954 3.393 6.226 4.003.579 1.289-15.82-1.933-18.745-4.104-2.926-2.171-9.662-21.032-9.662-21.032l7.246-2.985z" fill="#BD7B62"/><path d="M213.427 336.999s6.056 18.149 8.029 20.388c1.973 2.238 14.255 5.19 15.649 4.783 1.429-.407-11.465-4.309-13.642-7.395-3.062-4.376-5.001-18.692-5.001-18.692l-5.035.916z" fill="#3C2618"/><path d="M216.149 324.753s3.98-.034 3.674 2.273c-.306 2.307.068 7.293.578 9.125.51 1.832-7.825 5.292-20.821 1.323 0 0-2.449-1.934-1.497-5.326 0 0-2.891-6.581.681-7.531 3.096-.848 11.125-.339 17.385.136zM250.51 372.38s1.225.815 1.225 1.493v3.698s-8.506 3.494-25.006 0c0 0-4.457-1.12-7.314-.102-2.858 1.017-12.214 1.017-15.14-.577 0 0-1.02-1.56-.952-4.579l.34-1.256s8.607 1.832 15.105.645c0 0 5.103-1.255 8.165-.407 2.824.78 11.976 3.596 23.577 1.085z" fill="#926553"/><path d="M210.977 342.596c.136.781.647 1.323 1.123 1.222.476-.102.749-.781.612-1.527-.136-.78-.646-1.323-1.122-1.221-.477.102-.749.78-.613 1.526z" fill="#9DD1E4"/><path d="M211.318 342.562c.068.475.374.815.68.747.272-.034.442-.475.374-.95s-.374-.814-.68-.746c-.306.034-.477.475-.374.949z" fill="#192629"/><path d="M212.576 347.888c.136.781.647 1.323 1.123 1.222.476-.068.748-.781.612-1.527-.136-.78-.646-1.323-1.122-1.221-.477.068-.749.78-.613 1.526z" fill="#9DD1E4"/><path d="M212.917 347.854c.068.475.374.815.68.747.306-.034.442-.475.374-.95s-.374-.814-.68-.746c-.306.034-.442.475-.374.949z" fill="#192629"/><path d="M214.584 352.298c.136.781.646 1.323 1.122 1.222.477-.102.749-.781.613-1.527-.136-.78-.647-1.323-1.123-1.221-.51.068-.783.746-.612 1.526z" fill="#9DD1E4"/><path d="M214.89 352.23c.068.475.374.815.68.747.306-.068.442-.475.374-.95s-.374-.814-.68-.746c-.272.067-.442.475-.374.949z" fill="#192629"/><path d="M216.931 357.047c.204.747.714 1.289 1.191 1.154.476-.102.714-.814.51-1.561-.17-.746-.714-1.289-1.191-1.153-.476.102-.714.814-.51 1.56z" fill="#9DD1E4"/><path d="M217.237 356.979c.102.475.443.781.715.713.272-.068.408-.509.306-.95-.102-.475-.442-.78-.715-.712-.272.034-.408.475-.306.949z" fill="#192629"/><path d="M221.456 361.932c.68.373 1.429.339 1.667-.068.238-.407-.136-1.085-.817-1.458-.68-.373-1.429-.34-1.667.068-.238.441.136 1.085.817 1.458z" fill="#9DD1E4"/><path d="M221.626 361.627c.408.237.85.204 1.02-.034.137-.271-.068-.644-.476-.882-.408-.237-.85-.203-1.02.034-.171.271.034.645.476.882z" fill="#192629"/><path d="M227.784 364.273c.748.203 1.463 0 1.599-.475.136-.475-.375-1.018-1.157-1.221-.748-.204-1.463 0-1.599.475-.102.474.408 1.017 1.157 1.221z" fill="#9DD1E4"/><path d="M227.886 363.934c.442.135.884 0 .952-.306.068-.271-.238-.61-.68-.746-.476-.136-.885 0-.987.305-.068.306.238.645.715.747z" fill="#192629"/><path d="M234.52 365.325c.748.203 1.463 0 1.599-.475.136-.475-.375-1.018-1.123-1.222-.748-.203-1.463.034-1.599.475-.136.509.374 1.052 1.123 1.222z" fill="#9DD1E4"/><path d="M234.622 365.019c.476.136.884 0 .953-.305.068-.271-.239-.611-.681-.746-.442-.136-.884 0-.952.305-.103.271.204.61.68.746z" fill="#192629"/><path d="M220.163 341.07c-1.837.814-8.131 1.391-8.131 1.391s3.13 2.069 8.539.441M220.571 343.852c-1.156 2.035-7.11 3.901-7.11 3.901s4.797-.374 7.621-2.85M221.082 345.344s-2.348 5.428-5.648 6.785c0 0 5.409-.34 7.008-1.391M222.681 351.586c-.681 2.069-4.9 5.258-4.9 5.258s4.287-.645 5.886-2.85M224.143 354.198s-.408 5.156-2.279 6.954c0 0 5.171-2.68 5.682-4.715 0 0 .884 5.19.476 6.717 0 0 4.559-2.918 4.355-4.919 0 0 2.109 4.07 2.381 6.14 0 0 1.361-2.714.885-4.546" stroke="#6C5040" stroke-width="2.086" stroke-miterlimit="10" stroke-linecap="round" stroke-linejoin="round"/><path d="M176.072 206.465s-6.43 13.027-3.062 32.973c0 0 14.561-5.767 22.488 4.681 0 0 2.79.815 6.498-4.274 3.742-5.088 16.024-11.194 16.024-11.194l.034-26.494-41.982 4.308z" fill="#5BC7F3"/><path opacity=".7" d="M173.962 212.3c5.24-12.958 6.158 1.153 6.975 2.171 0 0-2.45 15.299-1.803 20.93l-6.124 4.071c-1.871-11.025-.238-22.321.952-27.172z" fill="#4CC0F0"/><path d="M189.204 130.106s-17.589 3.528-21.637 4.783c0 0-2.722 6.785 0 23.135 3.13 18.691 7.212 43.183 7.008 52.105 0 0 27.591 7.361 42.322-3.121 0 0 8.914-65.063 5.988-68.489 0 0-10.207-3.867-15.65-5.394-3.912-1.052-18.031-3.019-18.031-3.019z" fill="#fff"/><path d="M166.478 148.797c1.599-3.697 3.674-2.035 6.158 13.874 6.225 39.452 10.954-5.291 10.954-5.291s1.021 38.943.817 54.581c-5.818-.746-9.866-1.832-9.866-1.832.204-8.922-3.879-33.414-7.009-52.105-.544-3.494-.884-6.581-1.054-9.227z" fill="#F1F1F1"/><path d="M173.656 197.747s8.471 3.359 8.948-36.873c-.34-4.478-1.905-23.068-4.729-28.427l3.98-.848s4.967 12.449 6.26 27.477c8.131-.475 22.964-.984 28.884.814 0 0 5.035 48.95 1.293 50.511 0 0-26.332 9.803-44.364 1.899-2.993-1.323-.102-12.789-.272-14.553z" fill="#5BC7F3"/><path opacity=".7" d="M173.962 212.3c-3.027-1.323-.136-12.789-.306-14.553 0 0 8.471 3.359 8.948-36.873-.272-3.698-1.395-16.894-3.334-24.458 8.199 22.253 3.742 52.783 1.769 57.702-1.837 4.613-.511 16.893-.102 20.353-2.416-.475-4.763-1.187-6.975-2.171z" fill="#4CC0F0"/><path d="M189.204 108.022s2.211 16.453-.919 22.83c0 0 3.403 5.631 10.921 8.481 0 0 2.96 4.546 4.525 8.073 1.565 3.528 2.994-7.225 2.994-7.225s1.225-4.139 1.293-4.987c0 0-2.552-4.579-2.042-13.195l-16.772-13.977z" fill="#FFC79B"/><path d="M205.942 123.864c-.034 1.798.068 3.359.272 4.749-3.3.102-10.512-.916-16.228-7.463.102-4.952-.374-10.007-.612-12.11 0-.136-.034-.237-.034-.339v-.034c0-.068 0-.102-.034-.17v-.034-.101-.17-.068-.068-.034l16.772 14.01c-.17.611-.17 1.222-.136 1.832z" fill="#E9AC7D"/><path d="M169.166 336.999l3.81-97.561s9.186-12.449 22.488 4.681c0 0-10.172 61.773-11.261 92.88h-15.037z" fill="#5BC7F3"/><path opacity=".7" d="M172.976 239.438s2.245-3.053 6.123-4.071c-1.156 30.972-4.218 77.92-3.64 81.856.511 3.561 5.92 4.104 9.662 4.07-.306 4.037-.544 7.87-.714 11.398l-15.072-5.02 3.641-88.233z" fill="#46BDEF"/><path d="M211.862 164.13s2.892-22.015 2.381-28.902l3.368 1.018s1.701 11.975-1.428 28.936c0 0-.579 3.799-2.994 2.748-.749-.306-1.94-1.391-1.327-3.8z" fill="#5BC7F3"/><path d="M170.186 134.177s-4.865 0-7.519 4.884c-1.735 3.223-10.206 27.037-13.404 33.685 0 0 4.831 7.803 13.643 7.803 0 0 8.607-14.791 13.166-19.879 0 0 2.789-18.149-5.886-26.493z" fill="#fff"/><path d="M186.074 336.66s-2.552 21.134-.987 24.56c0 0 4.423 3.867 7.247 7.938.918 1.289.476 3.46.476 5.156 0 4.376-19.052 6.072-23.747-.271 0 0-1.326-5.089-3.095-7.43 0 0 0-4.104 2.381-7.768 0 0 .578-17.945-1.803-25.34l19.528 3.155z" fill="#715040"/><path d="M169.063 374.009s-1.326-5.089-3.095-7.429c0 0 0-1.12.34-2.748 1.395.169 4.593 7.327 4.593 7.327 5.613 5.258 17.895 3.765 19.868 3.121 1.939-.611 1.803-4.546 1.769-4.783.612 1.323.272 3.222.272 4.783 0 4.41-19.052 6.106-23.747-.271z" fill="#593D2F"/><path d="M185.7 339.815c-2.416 1.119-8.199 2.951-17.861 1.458-.273-3.019-.715-5.8-1.361-7.802l19.562 3.189c.034 0-.136 1.221-.34 3.155z" fill="#583C2D"/><path d="M174.915 335.1s.204 22.728 0 24.695c-.204 1.968 1.837 5.767 9.152 3.494 0 0 2.925-.169-1.191-4.071 0 0-1.293-18.182-.646-22.015.646-3.8-7.315-2.103-7.315-2.103z" fill="#BD7B62"/><path d="M184.577 362.407s-5.239 2.409-8.437-.78c0 0-.409-.509-.647-1.493-.204-.983 1.565-22.999.715-24.051l5.035.509s.408 22.491 1.293 23.441c.85.882 2.313 1.662 2.041 2.374z" fill="#3C2618"/><path d="M184.203 325.194s4.048.238 3.606 2.578c-.442 2.341-.408 7.429 0 9.329.408 1.9-8.335 4.885-21.297 0 0 0-2.382-2.137-1.191-5.529 0 0-2.551-6.887 1.191-7.633 3.164-.645 11.329.373 17.691 1.255zM192.844 373.093s.511.95.749 2.001c.204 1.052-.375 4.241-.375 4.241s-4.014 6.682-19.732 2.476c-1.395-.373-2.926-.848-3.98-1.832 0 0-1.361-1.119-1.565-4.105 0 0-.749-1.187-3.334-3.663 0 0-.545-6.717 1.395-6.751 1.224 0 3.3 5.563 3.572 7.124.238 1.391 7.961 6.242 20.378 3.324 2.416-.61 2.076-1.73 2.892-2.815z" fill="#926553"/><path d="M173.078 342.122c0 .712.34 1.289.748 1.289.409 0 .749-.577.749-1.289 0-.713-.34-1.289-.749-1.289-.408 0-.748.576-.748 1.289z" fill="#9DD1E4"/><path d="M173.384 342.122c0 .407.204.746.442.746.238 0 .443-.339.443-.746 0-.408-.205-.747-.443-.747-.238 0-.442.339-.442.747z" fill="#192629"/><path d="M173.078 346.43c0 .712.34 1.289.748 1.289.409 0 .749-.577.749-1.289 0-.713-.34-1.289-.749-1.289-.408 0-.748.576-.748 1.289z" fill="#9DD1E4"/><path d="M173.384 346.43c0 .407.204.746.442.746.238 0 .443-.339.443-.746s-.205-.747-.443-.747c-.238 0-.442.34-.442.747z" fill="#192629"/><path d="M172.942 351.213c0 .712.34 1.289.748 1.289s.749-.577.749-1.289c0-.713-.341-1.289-.749-1.289-.408-.034-.748.542-.748 1.289z" fill="#9DD1E4"/><path d="M173.248 351.213c0 .407.204.746.442.746.238 0 .443-.339.443-.746s-.205-.747-.443-.747c-.238 0-.442.306-.442.747z" fill="#192629"/><path d="M172.772 356.437c0 .712.34 1.289.748 1.289s.749-.577.749-1.289c0-.713-.341-1.289-.749-1.289s-.748.576-.748 1.289z" fill="#9DD1E4"/><path d="M173.078 356.437c0 .407.204.746.442.746.238 0 .442-.339.442-.746s-.204-.747-.442-.747c-.238 0-.442.34-.442.747z" fill="#192629"/><path d="M182.808 356.063c0 .713.238 1.29.544 1.29.306 0 .545-.577.545-1.29 0-.712-.239-1.289-.545-1.289-.306 0-.544.577-.544 1.289z" fill="#9DD1E4"/><path d="M183.046 356.064c0 .407.136.746.306.746.17 0 .307-.339.307-.746s-.137-.747-.307-.747c-.17 0-.306.34-.306.747z" fill="#192629"/><path d="M182.808 351.213c0 .712.238 1.289.544 1.289.306 0 .545-.577.545-1.289 0-.713-.239-1.289-.545-1.289-.306-.034-.544.542-.544 1.289z" fill="#9DD1E4"/><path d="M183.046 351.213c0 .407.136.746.306.746.17 0 .307-.339.307-.746s-.137-.747-.307-.747c-.17-.033-.306.306-.306.747z" fill="#192629"/><path d="M182.808 346.701c0 .712.238 1.289.544 1.289.306 0 .545-.577.545-1.289s-.239-1.289-.545-1.289c-.306 0-.544.577-.544 1.289z" fill="#9DD1E4"/><path d="M183.046 346.701c0 .407.136.746.306.746.17 0 .307-.339.307-.746s-.137-.746-.307-.746c-.17 0-.306.339-.306.746z" fill="#192629"/><path d="M182.604 341.816c0 .713.238 1.289.544 1.289.306 0 .544-.576.544-1.289 0-.712-.238-1.289-.544-1.289-.306 0-.544.577-.544 1.289z" fill="#9DD1E4"/><path d="M182.808 341.816c0 .407.136.746.306.746.17 0 .306-.339.306-.746s-.136-.746-.306-.746c-.17 0-.306.339-.306.746z" fill="#192629"/><path d="M182.808 341.918s-7.212 3.731-8.709 4.444c0 0 8.233 4.613 9.015 4.919 0 0-3.504 4.002-9.288 5.122" stroke="#6C5040" stroke-width="2.086" stroke-miterlimit="10" stroke-linecap="round" stroke-linejoin="round"/><path d="M173.962 342.122s7.009 3.697 9.084 4.579c0 0-7.961 4.376-9.084 4.58 0 0 7.621 4.308 9.39 4.783" stroke="#6C5040" stroke-width="2.086" stroke-miterlimit="10" stroke-linecap="round" stroke-linejoin="round"/><path opacity=".6" d="M164.641 372.177s-.068-1.018-.068-2.307c.986 1.052 2.687 1.764 3.47 2.002 1.191.339 1.837 4.952 1.837 4.952 12.316 6.378 21.263 1.9 23.645.407-.136 1.052-.307 2.07-.307 2.07s-4.014 6.682-19.732 2.476c-1.395-.373-2.926-.848-3.98-1.832 0 0-1.361-1.119-1.565-4.105.034.034-.715-1.153-3.3-3.663z" fill="#7F5747"/><path d="M214.992 166.098c-.953 0-1.735-1.425-1.735-3.155 0-1.764.782-3.155 1.735-3.155h.952l-.102 6.344h-.85v-.034z" fill="#1174B9"/><path d="M214.141 162.943c0 1.764.783 3.155 1.735 3.155.953 0 1.735-1.425 1.735-3.155 0-1.764-.782-3.155-1.735-3.155-.952 0-1.735 1.391-1.735 3.155z" fill="#178FE3"/><path d="M214.924 162.943c0 1.255.476 2.307 1.054 2.307.579 0 1.055-1.018 1.055-2.307 0-1.255-.476-2.307-1.055-2.307-.612 0-1.054 1.018-1.054 2.307z" fill="#1174B9"/><path d="M216.523 162.943c0-1.086-.341-2.001-.817-2.239a.63.63 0 0 1 .238-.068c.579 0 1.055 1.018 1.055 2.307 0 1.255-.476 2.307-1.055 2.307a.63.63 0 0 1-.238-.068c.476-.238.817-1.154.817-2.239z" fill="#0A5F9A"/><path d="M187.265 166.098c-.953 0-1.735-1.425-1.735-3.155 0-1.764.782-3.155 1.735-3.155h.952l-.102 6.344h-.85v-.034z" fill="#1174B9"/><path d="M186.414 162.943c0 1.764.783 3.155 1.735 3.155.953 0 1.735-1.425 1.735-3.155 0-1.764-.782-3.155-1.735-3.155-.986 0-1.735 1.391-1.735 3.155z" fill="#178FE3"/><path d="M187.163 162.943c0 1.255.476 2.307 1.054 2.307.579 0 1.055-1.018 1.055-2.307 0-1.255-.476-2.307-1.055-2.307-.578 0-1.054 1.018-1.054 2.307z" fill="#1174B9"/><path d="M188.796 162.943c0-1.086-.341-2.001-.817-2.239a.63.63 0 0 1 .238-.068c.579 0 1.055 1.018 1.055 2.307 0 1.255-.476 2.307-1.055 2.307a.63.63 0 0 1-.238-.068c.442-.238.817-1.154.817-2.239z" fill="#0A5F9A"/><path d="M211.692 165.25s-9.288.881-20.753 0c0 0 .102 6.207.85 8.073.749 1.9 3.913 8.209 10.207 8.209 7.655 0 8.981-7.361 8.981-7.361s.885-3.765.715-8.921z" fill="#178FE3"/><path d="M204.377 148.875h-1.122c-.647 0-5.512-6.785-7.111-6.513-1.599.271-7.209 6.58-9.217 7.326 0 0-.547-17.537-1.397-18.114 0 0-.477-.882.85-2.239 1.327-1.357 3.3-3.528 3.3-3.528s.204 5.733 1.225 6.513c1.055.747 10.274 7.09 10.479 7.735.238.712 2.993 8.82 2.993 8.82z" fill="#F1F1F1"/><path d="M204.377 148.119h-1.122c-.647 0-5.512-6.785-7.111-6.514-1.599.272-6.498 5.767-8.505 6.514 0 0-1.259-16.724-2.109-17.301 0 0-.477-.882.85-2.239 1.327-1.357 3.3-3.528 3.3-3.528s.204 5.733 1.225 6.513c1.055.747 10.274 7.09 10.479 7.735.238.712 2.993 8.82 2.993 8.82z" fill="#fff"/><path d="M204.377 148.875s3.266-13.4 2.824-14.96c0 0-.817-3.257-.919-3.901 0 0 4.729 4.104 5.444 5.19 0 0 1.497 7.429 1.565 8.48.102 1.052-.919.374-1.599.102-.681-.271-1.055-1.051-1.633-.644-.579.373-3.402 6.784-5.682 5.733z" fill="#F1F1F1"/><path d="M204.377 148.119s3.266-13.4 2.824-14.96c0 0-.817-3.257-.919-3.901 0 0 4.729 4.104 5.444 5.19 0 0 1.497 7.429 1.565 8.481.102 1.051-.919.373-1.599.101-.681-.271-1.055-1.051-1.633-.644-.579.373-3.402 6.784-5.682 5.733zM150.046 171.016s3.844 6.276 13.812 7.87c0 0 1.463.781-.714 3.257 0 0-2.076 2.069-2.62 5.36-.34 2.001-12.486-1.391-15.207-7.294 0 0-.817-2.001.306-2.612 1.463-.78 3.13-3.256 2.926-5.19 0 .034.51-1.289 1.497-1.391z" fill="#fff"/><path d="M155.217 190.556s-2.11 36.704-1.633 43.149c0 0-1.974 3.833-7.009 0 0 0-5.069-37.688-2.653-43.149 2.415-5.462 10.24-2.171 11.295 0z" fill="#FFC79B"/><path d="M135.145 318.884c0 .916 8.028 1.663 17.929 1.663 9.9 0 17.929-.747 17.929-1.663l5.137-47.796h-46.133l5.138 47.796z" fill="#98ADBE"/><path opacity=".2" d="M171.003 318.884c0 .916-8.029 1.663-17.929 1.663-9.901 0-17.929-.747-17.929-1.663l-5.138-47.796h8.131c.987 45.32 26.129 44.37 33.375 43.183l-.51 4.613z" fill="#51616C"/><path opacity=".2" d="M134.022 271.088c.544 9.803 2.756 37.145 11.261 49.323-5.988-.271-10.138-.848-10.138-1.527l-5.138-47.796h4.015z" fill="#51616C"/><path d="M130.007 271.088c0 2.001 10.343 3.595 23.067 3.595 12.723 0 23.066-1.594 23.066-3.595 0-2.002-10.343-3.596-23.066-3.596-12.724 0-23.067 1.594-23.067 3.596z" fill="#6F8492"/><path d="M130.926 271.088c0 1.628 9.934 2.951 22.182 2.951 12.247 0 22.181-1.323 22.181-2.951 0-1.629-9.934-2.952-22.181-2.952-12.282 0-22.182 1.323-22.182 2.952z" fill="#667B81"/><path d="M172.295 272.546c-3.844.882-10.988 1.459-19.221 1.459-8.199 0-15.378-.611-19.188-1.459 3.844-.882 10.989-1.458 19.188-1.458 8.233 0 15.377.576 19.221 1.458z" fill="#fff"/><path d="M152.563 242.762c12.35 0 22.42 7.328 22.42 19.642v7.598c-.34-.203-.748-.373-1.191-.407v-7.191c0-11.67-9.526-18.454-21.229-18.454s-21.229 6.784-21.229 18.454v14.688h-1.191v-14.688c0-12.314 10.071-19.642 22.42-19.642z" fill="#51616C"/><path d="M159.98 244.018c8.743 3.053 15.037 8.65 15.037 18.386v7.598c-.34-.203-.748-.373-1.19-.407v-7.191c0-9.193-5.92-14.316-14.153-17.233.17-.373.238-.746.306-1.153z" fill="#51616C"/><path d="M144.126 245.68c-.238-.305-.374-.679-.476-1.086-.885.373-1.769.848-2.586 1.323 0-.475.068-1.051.306-1.594.681-1.561 1.769-2.816 1.769-2.816s.613-.067.749.611c0 0 1.531-4.58 2.688-6.751l-.068-2.34 7.008-1.595s4.423 11.873 3.776 16.351c0 0-.102 1.696-1.327 3.324 0 0-.102.408-1.803-.373 0 0-.986-.034-1.769.543-.782.577-1.769.271-2.551 0 0 0-2.994 1.018-3.913.034 0 0-1.565.577-2.824-.136 0 0-1.054-2.069-1.769-3.596 0 0-.068-.135-.136-.407a34.128 34.128 0 0 1 2.926-1.492z" fill="#FFC79B"/><path d="M217.033 100.899s5.579-12.28 1.395-13.977c-4.185-1.696-4.117 2.714-4.117 2.714l2.722 11.263z" fill="#2F110D"/><path d="M183.046 98.66c1.463-.34 2.688.577 3.64 1.594-.306-4.986.136-10.21 2.382-14.213 5.953-10.415 29.02-7.395 27.999 14.654 0 0-1.259 14.587-8.845 25.205 0 0-4.015 1.119-7.077-.136 0 0-9.492-5.258-11.941-11.161 0 0-.238-1.153-1.021-4.477-.306.475-.816.916-1.463.78-1.395-.305-4.593-4.105-5.443-7.293 0-.034-.817-4.343 1.769-4.953z" fill="#FFC79B"/><path d="M195.021 85.871s2.96 2.137 7.859 2.171c5.886.068 12.486-.034 13.234 4.206 0 0 11.193-6.106 1.361-11.398-9.832-5.325-12.009-5.732-16.976-6.547-4.457-.712-14.493 2.171-13.166 7.633l7.688 3.935z" fill="#442119"/><path d="M182.536 103.171s-.136-2.985 1.122-2.815c1.259.203 2.722 1.391 3.096 3.562 0 0-1.156.746-.782 1.662.408 1.052.953 1.391 1.361 1.391 0 0-.204 1.764-.681 1.764-.85 0-3.402-1.934-4.116-5.564z" fill="#E9AC7D"/><path d="M203.016 98.863c0 .034-.374-.44-1.156-.78-.205-.102-.409-.136-.647-.237-.238-.068-.476-.136-.748-.17h-.817c-.272-.034-.544.068-.816.102l-.817.135c-.238.102-.51.204-.748.272-.477.17-.919.373-1.225.61l-1.089.747c-.034 0-.034.034 0 .068 0 .034.034.034.068.034l1.191-.51c.34-.169.783-.27 1.225-.373.238-.033.476-.101.714-.17h.749c.238 0 .476-.033.714.035.238.034.476.068.681.102.238 0 .442.101.646.101.204.034.408.034.578.102.341.068.647.17.851.204.204.034.34.102.34.102.136.067.306.033.374-.068.102-.068.034-.238-.068-.306z" fill="#442119"/><path d="M211.385 103.714c0 1.018.443 1.832.987 1.832s.987-.814.987-1.832c0-1.018-.443-1.832-.987-1.832s-.987.814-.987 1.832z" fill="#211206"/><path d="M211.079 102.595s.102-.238.374-.509c.239-.271.613-.611 1.055-.611h.306l.306.102c.205.034.375.068.545.17.34.135.612.169.612.169l.034-.034s-.136-.237-.442-.508c-.136-.136-.34-.306-.612-.34a1.72 1.72 0 0 0-.409-.067l-.442.101c-.306.034-.51.272-.714.407-.17.204-.341.374-.409.543-.204.339-.272.577-.238.577h.034zM199.512 103.647c0 1.017.442 1.831.987 1.831.544 0 .986-.814.986-1.831 0-1.018-.442-1.832-.986-1.832-.545 0-.987.814-.987 1.832z" fill="#211206"/><path d="M198.628 102.527s.102-.237.374-.509c.238-.271.612-.61 1.054-.61h.307l.306.101c.204.034.374.102.544.17.34.136.613.17.613.17l.034-.034s-.137-.238-.443-.509c-.136-.136-.34-.306-.612-.339-.136-.034-.272-.068-.408-.068l-.443.101c-.306.034-.51.272-.714.408-.17.203-.34.373-.408.542-.204.34-.238.577-.238.577h.034z" fill="#211206"/><path d="M208.596 103.918c.034 1.051.272 2.069.578 3.087.204.475.374.983.646 1.458.205.475.579.916.885 1.323l.034.034.034.034c.238.17.476.441.544.679.034.135.068.237.034.373v.068s0 .067 0 0v.034l-.068.135c-.034.102-.068.17-.136.204-.136.237-.476.441-.748.644a3.57 3.57 0 0 1-.953.475c.374 0 .749-.102 1.089-.203.374-.136.68-.306 1.021-.645.102-.068.136-.169.17-.237l.068-.102.034-.034c.034-.102 0-.034.034-.068l.034-.102a1.15 1.15 0 0 0 0-.678c-.136-.441-.408-.746-.749-1.052l.068.068c-.272-.407-.578-.814-.816-1.255-.272-.407-.476-.882-.681-1.323a51.603 51.603 0 0 1-1.122-2.917zM210.195 98.66s-.715.848-1.021 1.831c-.17.475-.238.984-.272 1.391v.611s.068-1.018.578-1.866c.443-.882 1.191-1.492 1.191-1.492l-.476-.475z" fill="#E9AC7D"/><path d="M210.637 114.061s-5.477 1.153-10.683-.747c0 0 1.191 5.021 6.294 4.817 3.947-.169 4.389-4.07 4.389-4.07z" fill="#723C37"/><path d="M206.214 118.131c-2.959.136-4.592-1.526-5.443-2.917 4.321-.475 5.477 2.103 5.75 2.917h-.307z" fill="#DB7675"/><path d="M216.523 99.338s-.272-.373-.851-.78c-.136-.136-.306-.204-.476-.305a3.019 3.019 0 0 0-.578-.272c-.205-.068-.443-.135-.647-.203-.238-.068-.476-.068-.714-.102a3.831 3.831 0 0 0-1.395.068c-.204.068-.442.102-.647.17-.17.101-.34.203-.51.27-.612.374-.952.68-.952.68-.102.101-.102.237 0 .338.068.068.136.102.204.068h.034s.476-.068 1.054-.271c.307-.136.647-.204 1.021-.271.374-.136.748-.272 1.191-.272.204 0 .408-.068.612-.034.204.034.408.068.612.068.205 0 .375.102.545.136.17.068.34.102.476.17.613.237.953.542.953.542h.068c.034.034.034.068 0 0z" fill="#442119"/><path d="M200.192 114.027a4.704 4.704 0 0 1-.238-.713c4.559 1.662 9.356.984 10.445.78-.034.577-.204 1.425-.715 1.629-.782.305-5.137 1.255-9.492-1.696z" fill="#fff"/><path d="M186.686 100.254s1.701 3.257 2.178 3.426c.476.136.748-1.085.748-1.085s.885-4.75 1.905-7.022c1.021-2.24 6.6-6.75 7.077-8.854.476-2.103-8.71-7.226-12.554-5.53-3.811 1.697-2.926 15.028-2.382 17.403 0 0 1.225-.204 3.028 1.662z" fill="#442119"/><path d="M199.512 87.703c1.225-10.584 14.901 2.035 14.935 2.07-2.585-1.697-7.212-1.63-11.567-1.663-1.258-.068-2.381-.204-3.368-.407z" fill="#2F110D"/><path opacity=".5" d="M191.823 95.03c-.102.204-.204.373-.306.543-1.02 2.239-1.905 7.022-1.905 7.022s-.272 1.221-.748 1.085c-.477-.135-2.178-3.426-2.178-3.426-1.769-1.866-2.994-1.662-2.994-1.662-.34-1.493-.816-7.43-.17-12.009 1.225 8.006 5.342 8.922 8.301 8.447z" fill="#2F110D"/><path opacity=".3" d="M217.475 80.85c.749.407 1.361.815 1.872 1.188-6.26-2.544-20.073-6.988-26.265.068 0 0 .306-5.36 10.173-7.328 3.368.713 6.361 1.832 14.22 6.072z" fill="#7B4D47"/><path d="M207.439 119.319s-1.259.644-3.674 0c0 0 1.939 2.34 3.674 0z" fill="#E9AC7D"/></g><path d="M407.828 146.286l-53.062-15.399-6.923 11.46c24.511 12.017 73.725 35.812 74.489 34.857.764-.955-11.082-21.766-14.504-30.918z" fill="#D5F4FE"/><path d="M189.771 30.134c2.656 0 4.16-.864 4.832-2.048.48-.896-1.12-2.272-1.312-1.92-.48.96-1.888 1.952-2.976 1.952-1.44 0-3.488-1.792-3.488-5.92 0-4.768 1.28-7.04 3.168-7.04 1.888 0 2.048 1.824 1.632 2.56-.096.192.128 1.6 1.856 1.6 2.08 0 2.24-1.952 1.856-3.2-.384-1.152-1.824-2.976-5.76-2.976s-7.776 1.888-7.776 9.504c0 4.032 2.656 7.488 7.968 7.488zm14.711.608c3.776 0 6.144-2.848 6.144-7.008 0-4.672-2.336-7.264-6.912-7.264-2.336 0-3.584.832-4.064 1.312-1.344 1.344-1.984 3.84-1.76 6.624.288 3.36 3.392 6.336 6.592 6.336zm.064-1.824c-1.28 0-2.208-1.952-2.208-4.896 0-3.168.864-5.248 2.016-5.248 1.376 0 2.144 1.952 2.144 5.024 0 3.168-.64 5.12-1.952 5.12zm18.864-12.32c-1.888-.096-8.736.096-10.336.064-.704 0-.704 2.08-.096 2.08.384 0 1.728-.064 3.296-.096-.096 2.912-.288 9.44-.064 10.976.16 1.312 4.32.928 4.32.416-.256-5.504-.48-9.568-.608-11.52 1.44-.032 2.72-.064 3.232-.064.896 0 .992-1.792.256-1.856zm10.097.128c-1.472.192-2.432.96-3.104 1.824-.256-1.056-.864-1.792-2.112-1.984-1.6-.224-2.432.64-2.08.64.64 0 .16 16.192.16 17.984 0 1.152 4.64 1.344 4.576 0 0-.352-.256-11.04-.384-14.624.96-1.6 1.824-2.112 2.624-1.888.864.256 1.888 1.888 1.344 5.248-.416 2.4-1.024 4.64-3.072 4.448-.416-.064-.416 1.632 1.792 1.664.448 0 .928-.064 1.344-.192 1.28-.384 3.872-1.728 4.128-6.24.32-5.92-2.88-7.168-5.216-6.88zm17.388.064c-1.024 2.976-1.984 5.952-2.976 8.64-1.184-2.528-3.552-7.648-3.84-8.64-.32-1.024-4.064-.032-3.68.768 2.272 4.576 4.8 10.432 5.792 12.064-.48.992-.928 1.856-1.408 2.624-.576.896-1.312 1.76-2.656 1.824-.128 0-.064 1.984 1.952 1.984.992 0 2.624-.48 4.128-3.456 1.152-2.336 5.024-12.64 5.984-15.488.32-.928-3.04-.992-3.296-.32zm12.604 19.264c2.304 0 6.112-1.216 6.112-5.536 0-4.288-.032-6.88-.064-7.936-.128-4.128 0-5.568-2.08-5.856-2.208-.288-1.824.736-1.856 1.152-.064.448-.16 5.376-.896 7.072-.896 2.176-1.76 3.2-2.496 3.2-1.184 0-1.536-1.952-1.536-3.776 0-2.592 1.216-6.528 3.392-6.752.224-.032-.288-.992-1.952-.992-3.36 0-5.984 3.424-5.984 7.328 0 5.216 3.584 6.144 5.056 6.144 2.528 0 3.904-2.144 4.288-3.488.416-1.312.128 2.752.128 4.768s-1.12 2.688-2.24 2.688c-1.76 0-2.208-1.664-2.272-2.112-.064-.448-3.072.32-1.888 2.464.512.928 1.728 1.632 4.288 1.632zm21.59-18.976c-.096-1.088-3.072-.608-3.136 0-.064.448-.064 3.104-.064 5.888-.416 0-.864.032-1.312.032-.992.032-2.144.128-3.136.192l-.16-3.616c-.096-1.6-.608-2.752-2.24-3.008-1.6-.224-2.432.64-2.08.64.64 0 .16 10.24.16 12.032 0 1.152 4.64 1.344 4.576 0 0-.192-.064-2.112-.16-4.192 1.376-.128 3.168-.288 4.384-.416.032 2.112.064 4.096.16 5.088.096 1.024 3.904.576 3.904 0-.128-6.048-.832-11.936-.896-12.64zm5.264 9.76c0 1.248.576 2.624 1.696 3.328 2.368 1.472 5.152-.288 6.432-3.552.256-.672.256-.16.288.672.128 2.624 1.824 3.072 2.976 3.072 1.728 0 1.856-1.024 1.728-1.056-.928-.096-.896-5.696-.928-6.72.064-1.792.064-3.648.064-5.472 0-.928-3.904-.8-3.936 0-.032 1.216-.288 5.568-.768 7.2-.288 1.056-.928 3.904-2.368 3.936-.992.032-1.024-.896-1.312-8.672-.096-1.6-.576-2.752-2.208-3.008-1.6-.256-2.432.64-2.08.64.64 0 .416 7.84.416 9.632zm28.084 1.92c-.352 0-2.688-3.456-4.064-5.248.224-.192.416-.384.608-.576 1.856-2.048 2.24-3.136 2.496-4.096.352-1.312-2.304-2.88-2.496-2.24-.48 1.376-2.368 3.904-4.512 5.76 0-1.248.032-2.176 0-2.848-.096-1.6-.608-2.752-2.24-3.008-1.6-.224-2.432.64-2.08.64.64 0 .16 10.304.16 12.096 0 1.824 4.32 1.792 4.256.512a72.04 72.04 0 0 1-.128-4.256c.352-.032.832-.192 1.344-.416.864 1.472 2.464 4.256 2.816 4.672.864 1.056 2.048 1.216 2.816.832.992-.48 1.28-1.824 1.024-1.824zm3.135-1.92c0 1.248.576 2.624 1.696 3.328 2.368 1.472 5.152-.288 6.432-3.552.256-.672.256-.16.288.672.128 2.624 1.824 3.072 2.976 3.072 1.728 0 1.856-1.024 1.728-1.056-.928-.096-.896-5.696-.928-6.72.064-1.792.064-3.648.064-5.472 0-.928-3.904-.8-3.936 0-.032 1.216-.288 5.568-.768 7.2-.288 1.056-.928 3.904-2.368 3.936-.992.032-1.024-.896-1.312-8.672-.096-1.6-.576-2.752-2.208-3.008-1.6-.256-2.432.64-2.08.64.64 0 .416 7.84.416 9.632z" fill="#4BAAF4"/><defs><clipPath id="clip0"><path fill="#fff" d="M128 74.202h249v309H128z"/></clipPath></defs></svg>