<svg width="587" height="323" fill="none" xmlns="http://www.w3.org/2000/svg"><path d="M13.012 48.392c0-10.87-5.652-33.044 94.06-46.632 99.712-13.589 216.197 56.435 267.507 55.27 51.309-1.262 186.154-49.21 208.144 20.966 21.99 70.176-52.826 52.899-45.496 129.287 7.33 76.388 1.516 130.549-86.442 112.01-87.959-18.442-183.248-32.031-299.01-8.638C35.886 334.047-48.913 289.107 31.968 183.308c53.711-70.37-18.956-102.07-18.956-134.916z" fill="#D5F4FE"/><g clip-path="url(#clip0)"><path d="M405.101 125.846s5.075 5.086-2.221 10.913c-7.295 5.826-10.15 10.912-10.15 16.739s5.075 9.429 5.075 9.429-10.89.741-11.63-14.515c-.74-15.256 7.296-25.426 5.815-36.338-1.374-10.913 13.111 13.772 13.111 13.772z" fill="#DD4E4E"/><path d="M342.72 127.33s2.855 4.343 11.63 2.224c8.67-2.224 14.485-8.687 24.635-10.17 10.15-1.484 26.115 6.568 26.115 6.568l-10.89-63.884s0-7.31-15.965-10.17c-15.965-2.861-33.304 2.224-33.304 2.224l-2.221 73.208z" fill="#EA5E5E"/><path d="M357.945 96.818s-.74 5.085-7.929 15.256c-7.296 10.17-7.296 15.255-7.296 15.255l-7.929-43.543s18.079-6.568 23.154 13.032z" fill="#DD4E4E"/><path d="M205.061 18.419s63.015-7.31 102.24-10.171c39.12-2.86 37.005 2.86 40.6 3.602 3.595.742 10.15 84.967 10.15 84.967s-26.855-7.945-51.49-5.085c-24.635 2.86-88.39 13.773-88.39 13.773s12.265-51.49-13.11-87.086z" fill="#EA5E5E"/></g><path fill="#497FA5" d="M200.034 7.114l5.278-.644 29.78 244.224-5.277.644z"/><path fill-rule="evenodd" clip-rule="evenodd" d="M401.976 244.869H265.232c-9.282 0-16.906 7.659-16.906 17.04 0 9.349 7.592 17.039 16.906 17.039h136.776c9.282 0 16.905-7.658 16.905-17.039-.032-9.381-7.623-17.04-16.937-17.04z" fill="#22B6EF"/><path fill-rule="evenodd" clip-rule="evenodd" d="M271.483 273.747H151.836c5.263-6.095 7.305-14.774 0-23.677h119.647c4.243 0 7.72 5.329 7.72 11.838 0 6.478-3.477 11.839-7.72 11.839z" fill="#E9E9E9"/><path fill-rule="evenodd" clip-rule="evenodd" d="M156.589 261.782c-.032-3.702-1.435-7.69-4.753-11.743h119.647c4.211 0 7.688 5.265 7.72 11.743H156.589z" fill="#DFDFDF"/><path fill-rule="evenodd" clip-rule="evenodd" d="M147.881 278.917h124.017c6.125 0 12.568-7.754 12.568-17.136 0-9.381-6.475-16.912-12.568-16.912H147.881l.064 5.106 123.539.095c4.242 0 7.719 5.329 7.719 11.839 0 6.509-3.477 11.838-7.719 11.838l-123.539-.095-.064 5.265z" fill="#008ED9"/><path fill-rule="evenodd" clip-rule="evenodd" d="M301.244 255.623h75.086c3.668 0 6.699 3 6.699 6.701 0 3.67-2.999 6.701-6.699 6.701h-75.086c-3.668 0-6.699-2.999-6.699-6.701 0-3.669 3.031-6.701 6.699-6.701zM395.405 255.623h4.689c3.668 0 6.698 3 6.698 6.701 0 3.67-2.998 6.701-6.698 6.701h-4.689c-3.668 0-6.698-2.999-6.698-6.701 0-3.669 3.03-6.701 6.698-6.701z" fill="#FBFBFB"/><path fill-rule="evenodd" clip-rule="evenodd" d="M175.887 223.522h97.606c5.837 0 10.59 4.786 10.59 10.657 0 5.872-4.753 10.658-10.59 10.658h-97.606c-5.837 0-10.59-4.786-10.59-10.658 0-5.839 4.753-10.657 10.59-10.657z" fill="#A5C639"/><path fill-rule="evenodd" clip-rule="evenodd" d="M269.57 241.615h114.512c-3.286-3.829-4.562-9.254 0-14.838H269.57c-2.647 0-4.848 3.35-4.848 7.403 0 4.084 2.201 7.435 4.848 7.435z" fill="#E9E9E9"/><path fill-rule="evenodd" clip-rule="evenodd" d="M386.537 244.869H269.315c-3.828 0-7.879-4.85-7.879-10.721 0-5.872 4.051-10.594 7.879-10.594h117.254l-.032 3.191-116.935.063c-2.648 0-4.849 3.351-4.849 7.403 0 4.085 2.169 7.403 4.849 7.403l116.935-.063v3.318zM182.65 223.522h28.229c-4.211 0-7.656 4.786-7.656 10.657 0 5.872 3.445 10.658 7.656 10.658H182.65c-4.211 0-7.656-4.786-7.656-10.658 0-5.839 3.445-10.657 7.656-10.657zM226.253 223.522h30.718c-4.594 0-8.326 4.786-8.326 10.657 0 5.872 3.764 10.658 8.326 10.658h-30.718c-4.593 0-8.325-4.786-8.325-10.658 0-5.839 3.764-10.657 8.325-10.657z" fill="#B7D553"/><path fill-rule="evenodd" clip-rule="evenodd" d="M401.976 278.916H265.232c-9.282 0-16.906 9.828-16.906 21.858 0 12.03 7.592 21.858 16.906 21.858h136.776c9.282 0 16.905-9.828 16.905-21.858-.032-11.998-7.623-21.858-16.937-21.858z" fill="#008ED9"/><path fill-rule="evenodd" clip-rule="evenodd" d="M291.834 315.995H172.187c5.263-7.818 7.305-18.955 0-30.41h119.647c4.242 0 7.719 6.86 7.719 15.221 0 8.328-3.477 15.189-7.719 15.189z" fill="#DFDFDF"/><path fill-rule="evenodd" clip-rule="evenodd" d="M176.94 300.582c-.064-4.754-1.436-9.86-4.753-14.997h119.647c4.21 0 7.655 6.733 7.719 14.997H176.94z" fill="#E9E9E9"/><path fill-rule="evenodd" clip-rule="evenodd" d="M168.232 322.664h124.017c6.124 0 12.567-9.988 12.567-22.018 0-12.029-6.475-21.73-12.567-21.73H168.232l.064 6.542 123.538.127c4.243 0 7.719 6.861 7.719 15.221s-3.476 15.221-7.719 15.221l-123.538-.128-.064 6.765zM366.378 322.664c9.283 0 16.906-9.828 16.906-21.858 0-12.03-7.623-21.858-16.906-21.858h22.456c9.282 0 16.906 9.828 16.906 21.858 0 12.03-7.592 21.858-16.906 21.858h-22.456zM313.971 322.951c9.282 0 16.906-9.828 16.906-21.858 0-12.03-7.592-21.858-16.906-21.858h22.105c9.282 0 16.906 9.828 16.906 21.858 0 12.03-7.592 21.858-16.906 21.858h-22.105z" fill="#1174B9"/><path fill-rule="evenodd" clip-rule="evenodd" d="M251.005 294.744h10.271v16.337l-4.88-3.797-5.391 3.797v-16.337z" fill="#B7D553"/><defs><clipPath id="clip0"><path fill="#fff" d="M203.792 7.401h203v262h-203z"/></clipPath></defs></svg>