<svg width="516" height="384" fill="none" xmlns="http://www.w3.org/2000/svg"><path d="M383.704 137.839c-52.41-24.829-86.841-17.583-129.277-39.154C211.992 77.114 15.965 13.69 80.604 175.084c17.896 87.834-20.878 72.731-36.837 130.469-15.96 57.737 43.793 70.492 88.739 73.079 87.586 5.039 60.771-32.47 150.07-32.47C495.51 436.751 510.36 137.839 383.704 137.839z" fill="#D5F4FE"/><path d="M336.723 383.986H138.689V98.898h219.769v266.554c.04 10.239-9.717 18.534-21.735 18.534z" fill="#ECECEC"/><path d="M333.077 380.265H135.043V95.177h219.769V361.73c.04 10.24-9.717 18.535-21.735 18.535z" fill="#fff"/><path d="M299.402 251.948c2.974 0 2.974-3.334 0-3.334H189.259c-2.974 0-2.974 3.334 0 3.334h110.143z" fill="#22B6EF"/><path d="M239.911 117.561c-17.65 0-33.436 7.819-44.144 20.162l44.144 38.3 44.144-38.26c-10.669-12.383-26.495-20.202-44.144-20.202z" fill="#B7D553"/><path d="M301.94 167.45l-57.827 8.335v58.462c32.285 0 58.422-26.155 58.422-58.462 0-2.818-.198-5.596-.595-8.335z" fill="#1174B9"/><path d="M195.844 137.962c-20.823 24.687-17.69 61.558 7.02 82.355a57.424 57.424 0 0 0 6.743 4.922l30.897-49.612-44.66-37.665z" fill="#D5F4FE"/><path d="M240.424 234.168c-10.947 0-21.933-3.056-31.571-9.287l31.571-49.175v58.462z" fill="#5BC7F3"/><path d="M304.916 164.235c-1.627-11.39-6.505-21.67-13.684-29.965l-44.144 38.26 57.828-8.295z" fill="#309399"/><path d="M182.359 315.729h-21.458v51.715h21.458v-51.715z" fill="#9FB761"/><path d="M182.359 295.727h-21.458v24.29h21.458v-24.29z" fill="#B7D553"/><path d="M323.636 318.071h-21.457v51.715h21.457v-51.715z" fill="#9FB761"/><path d="M323.795 274.414h-21.616v47.945h21.616v-47.945z" fill="#B7D553"/><path d="M276.516 313.983h-21.457v54.652h21.457v-54.652z" fill="#9FB761"/><path d="M276.516 309.141h-21.457v36.276h21.457v-36.276z" fill="#B7D553"/><path d="M229.437 294.974H207.98v73.385h21.457v-73.385z" fill="#9FB761"/><path d="M229.437 266.555H207.98v58.701h21.457v-58.701z" fill="#B7D553"/><path d="M143.372 105.538a2.829 2.829 0 0 1-2.817-2.818 2.829 2.829 0 0 1 2.817-2.819 2.828 2.828 0 0 1 2.816 2.819c.04 1.548-1.23 2.818-2.816 2.818zm0-5.2a2.346 2.346 0 0 0-2.341 2.342c0 1.27 1.071 2.342 2.341 2.342a2.345 2.345 0 0 0 2.34-2.342 2.345 2.345 0 0 0-2.34-2.342zM152.099 105.537a2.828 2.828 0 0 1-2.816-2.819 2.828 2.828 0 0 1 2.816-2.818 2.829 2.829 0 0 1 2.817 2.818 2.829 2.829 0 0 1-2.817 2.819zm0-5.2a2.345 2.345 0 0 0-2.34 2.342c0 1.27 1.071 2.342 2.34 2.342 1.27 0 2.341-1.072 2.341-2.342 0-1.271-1.071-2.342-2.341-2.342zM160.782 105.535a2.828 2.828 0 0 1-2.816-2.818 2.828 2.828 0 0 1 2.816-2.819 2.829 2.829 0 0 1 2.817 2.819 2.829 2.829 0 0 1-2.817 2.818zm0-5.2a2.345 2.345 0 0 0-2.34 2.342c0 1.27 1.071 2.342 2.34 2.342a2.346 2.346 0 0 0 2.341-2.342 2.346 2.346 0 0 0-2.341-2.342z" fill="#fff"/><path d="M404.73 270.915l-20.905 13.787-48.507-74.387 20.905-13.787 48.507 74.387z" fill="#E3E3E3"/><path d="M415.43 309.67l-.244.15c-6.585 4.364-14.571 3.892-17.822-1.092l-37.638-56.258 24.426-16.89 37.315 57.245c3.267 4.948.548 12.481-6.037 16.845z" fill="#008ED9"/><path opacity=".2" d="M338.742 215.384l2.205 3.937 33.495 5.918-17.614-27.381-18.086 17.526z" fill="#BBBCBF"/><path d="M372.508 105.168c-22.841-34.71-69.535-44.276-104.273-21.367-34.737 22.908-44.38 69.636-21.556 104.382 22.84 34.71 69.535 44.276 104.308 21.384 34.738-22.909 44.38-69.636 21.521-104.399zm-27.329 95.578c-29.907 19.706-70.061 11.479-89.709-18.405-19.647-29.883-11.354-70.066 18.554-89.772 29.907-19.706 70.061-11.479 89.709 18.405 19.647 29.883 11.353 70.066-18.554 89.772z" fill="#008ED9"/><path opacity=".5" d="M345.206 200.76c29.899-19.712 38.201-59.903 18.542-89.77-19.659-29.866-59.835-38.099-89.735-18.387-29.9 19.711-38.202 59.902-18.542 89.769 19.659 29.867 59.835 38.099 89.735 18.388z" fill="#D1E7F5"/><path opacity=".22" d="M268.248 124.866c8.348-18.932 28.338-30.344 48.855-27.23 20.444 3.08 36.46 20.075 38.516 40.674.562 5.805 9.6 5.317 9.038-.488-2.335-23.697-19.59-43.313-42.819-48.5-22.872-5.11-46.5 5.77-58.618 25.595-1.181 1.905-2.162 3.945-3.09 5.966-2.348 5.301 5.754 9.32 8.118 3.983z" fill="#fff"/><path opacity=".31" d="M362.531 160.221a5.958 5.958 0 0 0 1.704-8.247 5.947 5.947 0 0 0-8.244-1.69 5.959 5.959 0 0 0-1.704 8.248 5.948 5.948 0 0 0 8.244 1.689z" fill="#fff"/><path d="M360.749 252.022l23.261-16.068a1.925 1.925 0 0 0 .575-2.487l-.133-.28c-.547-.993-1.817-1.269-2.755-.651l-23.111 16.311c-.849.615-1.058 1.829-.445 2.678l.036.017c.597.885 1.722 1.095 2.572.48z" fill="#1174B9"/><path d="M366.816 173.395c-6.55 14.164-18.002 25.512-32.227 31.878-14.049 6.271-29.995 7.173-44.71 2.831-15.056-4.455-27.959-14.736-36.114-28.04-7.95-12.991-10.842-28.73-8.401-43.729 2.527-15.57 11.025-29.889 23.308-39.721 11.851-9.463 27.041-14.512 42.163-14.001 15.816.522 30.993 7.086 42.39 17.987 10.974 10.49 17.713 24.979 19.199 40.074 1.073 11.149-.954 22.494-5.608 32.721-.928 2.021 2.207 3.458 3.135 1.438 6.478-14.197 7.859-30.118 4.012-45.203-3.746-14.733-12.752-27.99-24.888-37.09-12.592-9.44-28.382-14.1-44.065-13.296-15.099.767-29.792 6.918-41.129 16.877-11.819 10.438-19.671 24.966-22.091 40.586-2.332 15.048.748 30.568 8.243 43.787 7.685 13.568 20.275 24.056 34.814 29.541 14.431 5.435 30.448 5.613 45.095.795 17.686-5.827 32.252-19.112 40.081-35.964.856-2.054-2.279-3.491-3.207-1.471z" fill="#F7F7F7"/><path d="M140.193 30.134c2.656 0 4.16-.864 4.832-2.048.48-.896-1.12-2.272-1.312-1.92-.48.96-1.888 1.952-2.976 1.952-1.44 0-3.488-1.792-3.488-5.92 0-4.768 1.28-7.04 3.168-7.04 1.888 0 2.048 1.824 1.632 2.56-.096.192.128 1.6 1.856 1.6 2.08 0 2.24-1.952 1.856-3.2-.384-1.152-1.824-2.976-5.76-2.976s-7.776 1.888-7.776 9.504c0 4.032 2.656 7.488 7.968 7.488zm18.327-13.536c-1.888-.096-8.736.096-10.336.064-.704 0-.704 2.08-.096 2.08.384 0 1.728-.064 3.296-.096-.096 2.912-.288 9.44-.064 10.976.16 1.312 4.32.928 4.32.416-.256-5.504-.48-9.568-.608-11.52 1.44-.032 2.72-.064 3.232-.064.896 0 .992-1.792.256-1.856zm10.097.128c-1.472.192-2.432.96-3.104 1.824-.256-1.056-.864-1.792-2.112-1.984-1.6-.224-2.432.64-2.08.64.64 0 .16 16.192.16 17.984 0 1.152 4.64 1.344 4.576 0 0-.352-.256-11.04-.384-14.624.96-1.6 1.824-2.112 2.624-1.888.864.256 1.888 1.888 1.344 5.248-.416 2.4-1.024 4.64-3.072 4.448-.416-.064-.416 1.632 1.792 1.664.448 0 .928-.064 1.344-.192 1.28-.384 3.872-1.728 4.128-6.24.32-5.92-2.88-7.168-5.216-6.88zm7.819 7.456c0 4.832 3.104 5.856 4.576 5.888 2.624.064 4-2.112 4.32-3.168.16-.576.16-.16.416 1.088.384 2.048 1.696 2.528 2.88 2.528 1.696 0 1.824-1.056 1.696-1.056-.512 0-.992-7.712-.704-11.456.064-1.024-3.872-2.08-4.096-.096-.064.448-.352 3.808-1.248 7.04-.512 1.824-1.536 3.2-2.4 3.2-.928 0-1.28-1.44-1.28-3.2 0-2.336 1.248-6.464 3.424-6.688.224-.032-.288-.992-1.952-.992-3.36 0-5.632 3.424-5.632 6.912zm26.584-7.584c-1.888-.096-8.736.096-10.336.064-.704 0-.704 2.08-.096 2.08.384 0 1.728-.064 3.296-.096-.096 2.912-.288 9.44-.064 10.976.16 1.312 4.32.928 4.32.416-.256-5.504-.48-9.568-.608-11.52 1.44-.032 2.72-.064 3.232-.064.896 0 .992-1.792.256-1.856zm13.265 3.968c.224-2.112-1.344-3.968-4.224-3.968-3.968 0-6.656 2.752-6.656 7.264 0 2.976 1.248 6.752 6.528 6.752 2.304 0 3.488-.928 3.904-1.856.416-.928-.928-1.92-1.152-1.6-.96 1.344-1.728 1.824-2.624 1.728-.896-.128-1.824-.96-2.144-2.976h.544c1.92 0 5.344-1.12 5.824-5.344zm-6.528 3.488c0-.224.032-.448.032-.704.192-3.616 1.312-5.12 2.56-5.024 1.248.096 1.376 2.048 1.28 2.944-.288 2.208-1.792 2.848-3.296 2.848-.192 0-.384-.032-.576-.064zm17.093-6.912c-1.152 0-5.568-.192-6.848-.192-1.92 0-1.664.416-1.664 1.28-.128.896.32 9.504.32 11.776 0 1.184 4.288.768 4.288-.16 0-4.288-.288-8.544-.416-10.528.032-.032.064-.032.128-.032h4.192c.352 0 .576-2.144 0-2.144zm3.331 9.696c0 1.248.576 2.624 1.696 3.328 2.368 1.472 5.152-.288 6.432-3.552.256-.672.256-.16.288.672.128 2.624 1.824 3.072 2.976 3.072 1.728 0 1.856-1.024 1.728-1.056-.928-.096-.896-5.696-.928-6.72.064-1.792.064-3.648.064-5.472 0-.928-3.904-.8-3.936 0-.032 1.216-.288 5.568-.768 7.2-.288 1.056-.928 3.904-2.368 3.936-.992.032-1.024-.896-1.312-8.672-.096-1.6-.576-2.752-2.208-3.008-1.6-.256-2.432.64-2.08.64.64 0 .416 7.84.416 9.632zm25.268-8.352c-.064-1.76-.544-1.664-1.792-1.888-1.472-.288-7.456-.96-8.064 3.648-.224 1.952.736 3.584 2.816 4.576-.448 1.248-1.824 2.816-3.264 3.52-.96.48 2.016 2.624 3.136 1.92 1.696-1.088 2.592-2.752 3.264-4.448.128 0 .288.032.448.064.384.064.32.16.352.672.032.416 0 2.816 0 3.264 0 1.376 3.712.736 3.712-.288-.032-3.52-.544-10.208-.608-11.04zm-3.424 5.376c-1.056-.192-2.816-.832-2.688-2.944.064-1.632.736-2.56 2.4-2.56.32 0 .32 0 .416.48.032.288.256 3.808.256 4.736 0 .224 0 .352-.384.288zm22.967-7.136c-1.472.192-2.432.96-3.104 1.824-.256-1.056-.864-1.792-2.112-1.984-1.6-.224-2.432.64-2.08.64.64 0 .16 16.192.16 17.984 0 1.152 4.64 1.344 4.576 0 0-.352-.256-11.04-.384-14.624.96-1.6 1.824-2.112 2.624-1.888.864.256 1.888 1.888 1.344 5.248-.416 2.4-1.024 4.64-3.072 4.448-.416-.064-.416 1.632 1.792 1.664.448 0 .928-.064 1.344-.192 1.28-.384 3.872-1.728 4.128-6.24.32-5.92-2.88-7.168-5.216-6.88zm7.819 7.456c0 4.832 3.104 5.856 4.576 5.888 2.624.064 4-2.112 4.32-3.168.16-.576.16-.16.416 1.088.384 2.048 1.696 2.528 2.88 2.528 1.696 0 1.824-1.056 1.696-1.056-.512 0-.992-7.712-.704-11.456.064-1.024-3.872-2.08-4.096-.096-.064.448-.352 3.808-1.248 7.04-.512 1.824-1.536 3.2-2.4 3.2-.928 0-1.28-1.44-1.28-3.2 0-2.336 1.248-6.464 3.424-6.688.224-.032-.288-.992-1.952-.992-3.36 0-5.632 3.424-5.632 6.912zm21.112 6.336c1.152 0 5.728-.48 5.728-4.448 0-1.824-1.088-2.944-2.912-3.392 1.376-.864 2.08-1.952 1.92-3.296-.192-1.856-1.792-2.976-4.576-2.976-2.112 0-3.712.608-4.032 1.6-.512 1.664 1.824 1.632 1.92 1.344.224-.672.768-1.216 1.536-1.216.736 0 1.152.672 1.184 1.696.032 1.248-.896 2.24-2.496 2.4-.736.096-.608 2.496.096 2.24 1.952-.608 3.264.128 3.168 2.176-.096 1.28-.736 1.952-1.952 1.952-.288 0-1.76-.384-1.28-1.856.096-.32-2.624-.8-2.624 1.408 0 1.632 2.208 2.368 4.32 2.368zm18.022-7.008c1.696-.832 2.272-2.24 2.272-3.776 0-3.712-5.888-3.456-7.328-2.176-.544-.32-.352-1.152-2.368-1.152-1.184 0-1.92.544-1.952 1.28-.032 1.024.064 4.256.064 6.496 0 2.304.032 3.52.192 5.344.064.8 4.128 1.056 6.496 1.024 1.984-.032 5.632-.672 5.632-3.616 0-1.792-.896-3.072-3.008-3.424zm-2.912-4.832c.672 0 1.696.192 1.696 1.728 0 1.472-1.184 2.496-3.712 2.624 0-.864-.032-1.088-.032-2.624 0-.544 1.056-1.728 2.048-1.728zm2.048 8.288c-.096 1.664-2.112 2.144-4.192 1.728-.256-.064-.032-2.432.096-4.096.64 0 1.536 0 2.336.096.8.096 1.888.256 1.76 2.272zm7.225-.128c0 1.248.576 2.624 1.696 3.328 2.368 1.472 5.152-.288 6.432-3.552.256-.672.256-.16.288.672.128 2.624 1.824 3.072 2.976 3.072 1.728 0 1.856-1.024 1.728-1.056-.928-.096-.896-5.696-.928-6.72.064-1.792.064-3.648.064-5.472 0-.928-3.904-.8-3.936 0-.032 1.216-.288 5.568-.768 7.2-.288 1.056-.928 3.904-2.368 3.936-.992.032-1.024-.896-1.312-8.672-.096-1.6-.576-2.752-2.208-3.008-1.6-.256-2.432.64-2.08.64.64 0 .416 7.84.416 9.632zm25.62-10.24c-1.888-.096-8.736.096-10.336.064-.704 0-.704 2.08-.096 2.08.384 0 1.728-.064 3.296-.096-.096 2.912-.288 9.44-.064 10.976.16 1.312 4.32.928 4.32.416-.256-5.504-.48-9.568-.608-11.52 1.44-.032 2.72-.064 3.232-.064.896 0 .992-1.792.256-1.856zm3.505 10.24c0 1.248.576 2.624 1.696 3.328 2.368 1.472 5.152-.288 6.432-3.552.256-.672.256-.16.288.672.128 2.624 1.824 3.072 2.976 3.072 1.728 0 1.856-1.024 1.728-1.056-.928-.096-.896-5.696-.928-6.72.064-1.792.064-3.648.064-5.472 0-.928-3.904-.8-3.936 0-.032 1.216-.288 5.568-.768 7.2-.288 1.056-.928 3.904-2.368 3.936-.992.032-1.024-.896-1.312-8.672-.096-1.6-.576-2.752-2.208-3.008-1.6-.256-2.432.64-2.08.64.64 0 .416 7.84.416 9.632zm25.268-8.352c-.064-1.76-.544-1.664-1.792-1.888-1.472-.288-7.456-.96-8.064 3.648-.224 1.952.736 3.584 2.816 4.576-.448 1.248-1.824 2.816-3.264 3.52-.96.48 2.016 2.624 3.136 1.92 1.696-1.088 2.592-2.752 3.264-4.448.128 0 .288.032.448.064.384.064.32.16.352.672.032.416 0 2.816 0 3.264 0 1.376 3.712.736 3.712-.288-.032-3.52-.544-10.208-.608-11.04zm-3.424 5.376c-1.056-.192-2.816-.832-2.688-2.944.064-1.632.736-2.56 2.4-2.56.32 0 .32 0 .416.48.032.288.256 3.808.256 4.736 0 .224 0 .352-.384.288z" fill="#4BAAF4"/></svg>