<svg width="587" height="324" fill="none" xmlns="http://www.w3.org/2000/svg"><path d="M13.01 48.753c0-10.87-5.652-33.043 94.06-46.632 99.712-13.589 216.198 56.435 267.507 55.27 51.31-1.262 186.155-49.21 208.144 20.966 21.99 70.176-52.825 52.899-45.496 129.287 7.33 76.388 1.517 130.549-86.442 112.01-87.959-18.442-183.248-32.03-299.01-8.638C35.885 334.408-48.915 289.468 31.967 183.67 85.677 113.299 13.01 81.599 13.01 48.753z" fill="#D5F4FE"/><path d="M372.742 277.885l-169.174-.564c-3.172 0-5.722-2.567-5.722-5.761l.746-228.91c0-3.193 2.55-5.761 5.722-5.761l169.174.563c3.172 0 5.723 2.568 5.723 5.762l-.747 228.909c0 3.194-2.55 5.762-5.722 5.762z" fill="#1174B9"/><path d="M362.605 266.264l-145.919-.513c-2.736 0-4.935-2.333-4.935-5.236l.644-208.022c0-2.903 2.199-5.236 4.935-5.236l145.919.512c2.736 0 4.936 2.333 4.936 5.236l-.644 208.023c0 2.902-2.2 5.236-4.936 5.236z" fill="#fff"/><path d="M230.188 49.539c0 4.07-3.297 7.39-7.34 7.39-4.042 0-7.339-3.32-7.339-7.39l.062-25.114c0-4.071 3.297-7.39 7.34-7.39 4.042 0 7.339 3.319 7.339 7.39l-.062 25.114zM256.621 49.667c0 4.071-3.296 7.39-7.339 7.39-4.043 0-7.339-3.319-7.339-7.39l.062-25.177c0-4.07 3.296-7.39 7.339-7.39 4.043 0 7.339 3.32 7.339 7.39l-.062 25.177zM282.993 49.729c0 4.07-3.297 7.39-7.339 7.39-4.043 0-7.34-3.32-7.34-7.39l.063-25.114c0-4.071 3.296-7.39 7.339-7.39 4.043 0 7.339 3.319 7.339 7.39l-.062 25.114zM309.426 49.792c0 4.07-3.296 7.39-7.339 7.39-4.043 0-7.339-3.32-7.339-7.39l.062-25.115c0-4.07 3.297-7.39 7.339-7.39 4.043 0 7.34 3.32 7.34 7.39l-.063 25.115zM335.861 49.916c0 4.071-3.297 7.39-7.34 7.39-4.042 0-7.339-3.319-7.339-7.39l.062-25.114c0-4.07 3.297-7.39 7.34-7.39 4.042 0 7.339 3.32 7.339 7.39l-.062 25.114zM362.231 49.978c0 4.071-3.296 7.39-7.339 7.39-4.043 0-7.339-3.319-7.339-7.39l.062-25.114c0-4.07 3.296-7.39 7.339-7.39 4.043 0 7.339 3.32 7.339 7.39l-.062 25.114z" fill="#5BC7F3"/><g clip-path="url(#clip0)"><path d="M245.251 147.089h-15.692v45.63h15.692v-45.63z" fill="#B7D553"/><path d="M268.647 139.799h-15.692v52.921h15.692v-52.921zM291.729 115.193h-16.012v77.997h16.012v-77.997z" fill="#309399"/><path d="M315.745 115.193h-16.012v77.997h16.012v-77.997zM338.548 93.456h-15.692v99.263h15.692V93.456z" fill="#5BC7F3"/></g><path d="M306.625 218.259h-73.143a2.797 2.797 0 0 1-2.799-2.818 2.797 2.797 0 0 1 2.799-2.818h73.205a2.797 2.797 0 0 1 2.799 2.818c0 1.566-1.306 2.818-2.861 2.818zM306.625 230.349h-73.143a2.797 2.797 0 0 1-2.799-2.818 2.797 2.797 0 0 1 2.799-2.819h73.205a2.797 2.797 0 0 1 2.799 2.819c0 1.565-1.306 2.818-2.861 2.818zM264.953 242.435h-31.471a2.797 2.797 0 0 1-2.799-2.819 2.797 2.797 0 0 1 2.799-2.818h31.534a2.797 2.797 0 0 1 2.798 2.818c0 1.566-1.306 2.819-2.861 2.819z" fill="#EBEBEB"/><path d="M450.741 267.842l-16.808 15.296-53.953-59.951 16.808-15.296 53.953 59.951z" fill="#E3E3E3"/><path d="M465.772 301.115l-.197.169c-5.292 4.837-12.52 5.532-16.136 1.515l-41.658-45.206 19.529-18.574 41.507 46.137c3.626 3.983 2.247 11.122-3.045 15.959z" fill="#B7D553"/><path opacity=".2" d="M383.768 227.252l2.531 3.224 30.866.621-19.643-22.1-13.754 18.255z" fill="#BBBCBF"/><path d="M398.577 123.64c-25.362-27.946-68.579-29.992-96.509-4.575-27.93 25.417-30.008 68.692-4.657 96.673 25.362 27.946 68.579 29.992 96.543 4.585 27.93-25.417 30.009-68.692 4.623-96.683zm-11.071 89.582c-24.048 21.868-61.212 20.107-83.032-3.956-21.82-24.062-20.031-61.277 4.017-83.145 24.049-21.867 61.213-20.106 83.033 3.956 21.819 24.063 20.031 61.277-4.018 83.145z" fill="#B7D553"/><path opacity=".5" d="M387.528 213.239c24.037-21.873 25.829-59.102 4.004-83.153-21.826-24.05-59.004-25.815-83.041-3.941-24.036 21.873-25.829 59.102-4.003 83.152 21.825 24.051 59.004 25.816 83.04 3.942z" fill="#D1E7F5"/><path opacity=".22" d="M307.865 155.902c4.824-18.154 21.144-31.19 39.978-31.268 18.765-.098 35.515 12.907 40.254 31.1 1.32 5.129 9.355 3.427 8.035-1.703-5.424-20.933-23.653-36.117-45.211-37.519-21.227-1.383-40.884 11.685-48.963 31.168-.791 1.874-1.384 3.842-1.932 5.785-1.36 5.085 6.469 7.557 7.839 2.437z" fill="#fff"/><path opacity=".31" d="M397.364 174.422a5.415 5.415 0 0 0 .368-7.64 5.397 5.397 0 0 0-7.63-.362 5.414 5.414 0 0 0-.367 7.64 5.396 5.396 0 0 0 7.629.362z" fill="#fff"/><path d="M408.648 257.048l18.601-17.674a1.75 1.75 0 0 0 .167-2.313l-.159-.232c-.631-.815-1.808-.885-2.562-.199l-18.433 17.872c-.675.671-.692 1.79-.023 2.465l.035.01c.66.711 1.698.742 2.374.071z" fill="#309399"/><path d="M403.066 185.653c-3.883 13.624-12.557 25.41-24.417 33.113-11.718 7.593-25.89 10.635-39.696 8.799-14.128-1.89-27.143-9.309-36.326-20.104-8.955-10.543-13.761-24.26-13.681-38.059.078-14.324 5.686-28.361 15.318-38.902 9.297-10.149 22.208-16.806 35.841-18.465 14.255-1.745 28.789 2.019 40.541 10.205 11.315 7.876 19.395 19.933 22.849 33.268 2.53 9.854 2.307 20.316-.429 30.145-.548 1.942 2.465 2.793 3.014.85 3.813-13.644 2.813-28.123-2.757-41.119-5.431-12.695-15.37-23.329-27.532-29.795-12.618-6.708-27.433-8.679-41.384-5.761-13.431 2.801-25.742 10.377-34.509 20.9-9.131 11.02-14.13 25.154-14.104 39.507.024 13.829 4.967 27.323 13.547 38.135 8.798 11.098 21.562 18.745 35.371 21.631 13.705 2.857 28.093.774 40.551-5.599 15.039-7.704 26.234-21.662 30.886-37.879.479-1.963-2.535-2.813-3.083-.87z" fill="#F7F7F7"/><defs><clipPath id="clip0"><path fill="#fff" d="M217.005 81.478h132.1V192.72h-132.1z"/></clipPath></defs></svg>