<svg width="157" height="135" fill="none" xmlns="http://www.w3.org/2000/svg"><path d="M130.022 116.193c-35.009-3.629-76.929 10.417-92.826 16.933C21.298 139.603.32 119.314 6.99 92.783c6.67-26.532 1.175-41.358-4.839-58.76C-3.86 16.621 4.33 8.935 21.955 2.81c30.654-10.69 61.516 24.425 94.934 24.425 53.706 0 48.176 92.627 13.133 88.959z" fill="#D5F4FE"/><g clip-path="url(#clip0)"><path d="M107.213 14.264H41.135a3.156 3.156 0 0 0-3.145 3.145v95.384a3.156 3.156 0 0 0 3.145 3.145h66.078a3.157 3.157 0 0 0 3.145-3.145V17.409c.034-1.762-1.383-3.145-3.145-3.145z" fill="#026BB5"/><path d="M107.213 12.398H41.135a3.156 3.156 0 0 0-3.145 3.145v95.384a3.156 3.156 0 0 0 3.145 3.145h66.078a3.157 3.157 0 0 0 3.145-3.145V15.543c.034-1.728-1.383-3.145-3.145-3.145z" fill="#1174B9"/><path d="M104.517 17.997H43.866v90.822h60.651V17.997z" fill="#CCD6FD"/><path d="M104.517 16.165H43.866v90.822h60.651V16.165z" fill="#fff"/><path d="M53.231 16.165c.035 2.488 2.074 4.63 4.7 4.63h32.486c2.627 0 4.666-2.142 4.7-4.63H53.231z" fill="#19A0D0"/><path d="M94.115 10.152a3.324 3.324 0 0 0-3.214-2.558H80.084a5.87 5.87 0 0 0-5.875-5.875 5.87 5.87 0 0 0-5.875 5.875H57.517a3.324 3.324 0 0 0-3.214 2.558l-.899 3.836c-.691 2.937 1.555 5.771 4.596 5.771h32.417c3.041 0 5.288-2.834 4.596-5.771l-.898-3.836zm-19.388.242a2.82 2.82 0 0 1-3.318-3.318 2.805 2.805 0 0 1 2.212-2.212 2.82 2.82 0 0 1 3.318 3.318c-.173 1.106-1.071 2.004-2.212 2.211z" fill="#5BC7F3"/><path d="M62.77 40.322H49.117a.656.656 0 0 1-.656-.657v-13.65c0-.346.276-.657.656-.657H62.77c.346 0 .657.276.657.656V39.7c0 .345-.276.622-.657.622zm-11.578-2.73h8.847a.656.656 0 0 0 .657-.657v-8.19a.656.656 0 0 0-.657-.657h-8.19a.656.656 0 0 0-.657.656v8.848zM67.712 30.749h15.24c.38 0 .692.311.692.691v1.21c0 .38-.312.691-.692.691h-15.24a.693.693 0 0 1-.692-.691v-1.21c-.034-.38.277-.691.692-.691zM67.712 36.14h31.932c.381 0 .692.311.692.691v1.21c0 .38-.311.691-.692.691H67.712a.693.693 0 0 1-.692-.691v-1.21c-.034-.38.277-.69.692-.69z" fill="#E5E5E5"/><path d="M67.712 30.749h15.24c.38 0 .692.311.692.691v1.21c0 .38-.312.691-.692.691h-15.24a.693.693 0 0 1-.692-.691v-1.21c-.034-.38.277-.691.692-.691zM67.712 36.14h31.932c.381 0 .692.311.692.691v1.21c0 .38-.311.691-.692.691H67.712a.693.693 0 0 1-.692-.691v-1.21c-.034-.38.277-.69.692-.69zM62.77 62.163H49.117a.656.656 0 0 1-.656-.656V47.82c0-.345.276-.656.656-.656H62.77c.346 0 .657.276.657.656v13.686c0 .38-.276.656-.657.656zm-11.578-2.73h8.847a.656.656 0 0 0 .657-.656v-8.191a.656.656 0 0 0-.657-.657h-8.19a.656.656 0 0 0-.657.657v8.847zM67.713 52.245h15.241c.38 0 .691.31.691.691v1.21c0 .38-.31.69-.691.69h-15.24a.693.693 0 0 1-.692-.69v-1.21c-.034-.38.277-.691.691-.691zM100.301 57.982H66.986v2.592H100.3v-2.592z" fill="#E5E5E5"/><path d="M67.713 52.245h15.241c.38 0 .691.31.691.691v1.21c0 .38-.31.69-.691.69h-15.24a.693.693 0 0 1-.692-.69v-1.21c-.034-.38.277-.691.691-.691zM100.301 57.982H66.986v2.592H100.3v-2.592zM62.77 84.005H49.117a.656.656 0 0 1-.656-.657V69.663c0-.346.276-.657.656-.657H62.77c.346 0 .657.277.657.657v13.685c0 .38-.276.657-.657.657zm-11.578-2.73h8.847a.656.656 0 0 0 .657-.657v-8.19a.656.656 0 0 0-.657-.657h-8.19a.656.656 0 0 0-.657.656v8.848zM68.23 74.086h15.24c.38 0 .692.311.692.692v1.21c0 .38-.311.69-.691.69H68.23a.693.693 0 0 1-.691-.69v-1.21c-.035-.38.276-.692.69-.692zM68.23 79.789h31.933c.38 0 .691.31.691.69v1.21c0 .38-.311.692-.691.692H68.23a.693.693 0 0 1-.691-.692v-1.175a.68.68 0 0 1 .69-.725z" fill="#E5E5E5"/><path d="M68.23 74.086h15.24c.38 0 .692.311.692.692v1.21c0 .38-.311.69-.691.69H68.23a.693.693 0 0 1-.691-.69v-1.21c-.035-.38.276-.692.69-.692zM68.23 79.789h31.933c.38 0 .691.31.691.69v1.21c0 .38-.311.692-.691.692H68.23a.693.693 0 0 1-.691-.692v-1.175a.68.68 0 0 1 .69-.725z" fill="#E5E5E5"/><path d="M63.322 25.358L56.48 32.27a.762.762 0 0 1-1.072.034l-1.9-1.693a.806.806 0 0 0-1.106.069l-1.314 1.486a.806.806 0 0 0 .07 1.106l4.423 3.905c.311.276.795.276 1.071-.035l9.228-9.262c.31-.31.31-.829 0-1.105l-1.417-1.383a.784.784 0 0 0-1.14-.034zM63.322 46.439L56.48 53.35a.762.762 0 0 1-1.072.034l-1.9-1.693c-.346-.276-.83-.242-1.106.07l-1.314 1.485a.806.806 0 0 0 .07 1.106l4.423 3.905c.311.277.795.277 1.071-.034l9.193-9.297c.311-.31.311-.83 0-1.106l-1.417-1.382c-.276-.311-.795-.311-1.106 0zM63.322 67.555l-6.842 6.912a.762.762 0 0 1-1.072.034l-1.9-1.693c-.346-.277-.83-.242-1.106.069l-1.314 1.486a.806.806 0 0 0 .07 1.106l4.423 3.905c.311.276.795.276 1.071-.035l9.193-9.296c.311-.311.311-.83 0-1.106l-1.417-1.382c-.276-.311-.795-.311-1.106 0z" fill="#B7D553"/><path d="M62.77 105.432H49.117a.657.657 0 0 1-.656-.657V91.09c0-.346.276-.657.656-.657H62.77c.346 0 .657.276.657.657v13.685c0 .38-.276.657-.657.657zm-11.578-2.73h8.847a.657.657 0 0 0 .657-.657v-8.19a.656.656 0 0 0-.657-.657h-8.19a.656.656 0 0 0-.657.656v8.848zM68.23 95.513h15.24c.38 0 .692.311.692.691v1.21c0 .38-.311.691-.691.691H68.23a.693.693 0 0 1-.691-.691v-1.21c-.035-.38.276-.69.69-.69zM68.23 101.25h31.933c.38 0 .691.311.691.691v1.21c0 .38-.311.691-.691.691H68.23a.693.693 0 0 1-.691-.691v-1.21c-.035-.38.276-.691.69-.691z" fill="#E5E5E5"/><path d="M63.322 88.981l-6.842 6.912a.762.762 0 0 1-1.072.035l-1.9-1.694c-.346-.276-.83-.241-1.106.07l-1.314 1.486a.806.806 0 0 0 .07 1.105l4.423 3.906c.311.276.795.276 1.071-.035l9.193-9.296c.311-.311.311-.83 0-1.106l-1.417-1.383c-.276-.31-.795-.31-1.106 0z" fill="#B7D553"/><path d="M114.47 46.854l2.143-5.322c.104-.208.277-.38.518-.415a.699.699 0 0 1 .623.207l3.179 3.594c.173.173.207.45.104.691l-1.348 3.318a.663.663 0 0 1-.864.38l-3.974-1.59c-.381-.138-.519-.518-.381-.863z" fill="#AFC943"/><path d="M119.067 42.914l-1.383-1.555c-.138-.173-.38-.242-.622-.208-.242.035-.414.208-.518.415l-2.143 5.322a.664.664 0 0 0 .38.864l2.005.795 2.281-5.633z" fill="#B7D553"/><path d="M82.261 111.445l22.36-55.502c.726-1.797 2.177-3.249 4.043-3.802a5.35 5.35 0 0 0 3.387-3.075l1.106-2.73a.663.663 0 0 1 .864-.38l6.636 2.66a.664.664 0 0 1 .38.864l-1.106 2.73c-.588 1.486-.449 3.11.311 4.528a6.59 6.59 0 0 1 .276 5.53l-22.429 55.571c-1.659 4.112-6.359 6.117-10.471 4.458l-.899-.346c-4.112-1.693-6.117-6.393-4.458-10.506z" fill="#EFF6FE"/><path d="M120.138 61.541l-14.688-5.91c-.311-.138-.656.035-.794.312l-23.812 59.096c-.864 2.143.173 4.597 2.316 5.461l8.052 3.248c2.143.864 4.596-.173 5.46-2.315l23.812-59.097c.103-.345-.035-.691-.346-.795z" fill="#B7D553"/><path opacity=".2" d="M96.672 121.398l23.812-59.096a6.59 6.59 0 0 0-.277-5.53c-.725-1.417-.898-3.041-.311-4.527l1.106-2.73a.663.663 0 0 0-.38-.864l-3.94-1.59-29.41 75.097.346.139 3.594 1.451c2.143.83 4.596-.207 5.46-2.35z" fill="#40409B"/></g><defs><clipPath id="clip0"><path fill="#fff" d="M.217 1.719h156.588v122.306H.217z"/></clipPath></defs></svg>