<svg width="638" height="394" fill="none" xmlns="http://www.w3.org/2000/svg"><path d="M63.746 76.617c0-10.87-5.652-33.043 94.06-46.632 99.712-13.588 216.198 56.435 267.507 55.27 51.309-1.261 186.155-49.21 208.144 20.966 21.99 70.176-52.826 52.899-45.496 129.287 7.33 76.389 1.517 130.55-86.442 112.011-87.959-18.442-183.248-32.031-299.01-8.639C86.621 362.272 1.821 317.332 82.703 211.534c53.71-70.37-18.957-102.071-18.957-134.917z" fill="#D5F4FE"/><path d="M582.986 112.212l-129.041-44.83-67.13 193.231 129.041 44.83 67.13-193.231z" fill="#E5E5E5"/><path d="M583.699 114.116l-129.041-44.83-67.13 193.231 129.041 44.83 67.13-193.231z" fill="#fff"/><path d="M477.023 134.652l-29.044-10.09a1.477 1.477 0 0 1-.911-1.882l10.089-29.043a1.479 1.479 0 0 1 1.883-.912l29.043 10.09a1.477 1.477 0 0 1 .912 1.882l-10.116 29.117c-.255.736-1.048 1.119-1.856.838zm-22.614-14.366l18.823 6.54a1.478 1.478 0 0 0 1.882-.912l6.054-17.426a1.477 1.477 0 0 0-.911-1.882l-17.426-6.054a1.478 1.478 0 0 0-1.883.911l-6.539 18.823zM494.613 117.938l32.426 11.265a1.561 1.561 0 0 1 .96 1.981l-.894 2.574a1.561 1.561 0 0 1-1.982.959l-32.425-11.265a1.56 1.56 0 0 1-.96-1.981l.894-2.573c.207-.835 1.099-1.267 1.981-.96zM490.629 129.405l67.939 23.603a1.561 1.561 0 0 1 .96 1.981l-.894 2.574a1.561 1.561 0 0 1-1.981.96l-67.94-23.603a1.562 1.562 0 0 1-.96-1.982l.895-2.573c.207-.835 1.099-1.266 1.981-.96zM460.878 181.122l-29.043-10.09a1.478 1.478 0 0 1-.912-1.882l10.116-29.117a1.478 1.478 0 0 1 1.882-.912l29.044 10.09a1.479 1.479 0 0 1 .911 1.883l-10.115 29.117c-.281.808-1.074 1.192-1.883.911zm-22.613-14.366l18.823 6.54a1.478 1.478 0 0 0 1.882-.912l6.054-17.426a1.477 1.477 0 0 0-.912-1.882l-17.426-6.054a1.477 1.477 0 0 0-1.882.911l-6.539 18.823zM478.728 163.672l32.425 11.265a1.56 1.56 0 0 1 .96 1.981l-.894 2.574a1.561 1.561 0 0 1-1.982.959l-32.425-11.265a1.56 1.56 0 0 1-.96-1.981l.894-2.573c.208-.835 1.099-1.267 1.982-.96zM543.822 199.965l-70.881-24.625-1.916 5.515 70.881 24.624 1.916-5.514zM444.734 227.593l-29.043-10.09a1.477 1.477 0 0 1-.912-1.882l10.116-29.117a1.478 1.478 0 0 1 1.882-.912l29.043 10.09a1.477 1.477 0 0 1 .912 1.882l-10.115 29.117c-.281.809-1.074 1.193-1.883.912zm-22.614-14.366l18.823 6.539a1.478 1.478 0 0 0 1.883-.911l6.054-17.426a1.479 1.479 0 0 0-.912-1.883l-17.426-6.054a1.478 1.478 0 0 0-1.882.912l-6.54 18.823zM463.684 210.525l32.425 11.265a1.56 1.56 0 0 1 .96 1.981l-.894 2.573a1.561 1.561 0 0 1-1.981.96l-32.426-11.265a1.561 1.561 0 0 1-.96-1.981l.894-2.574c.208-.834 1.099-1.266 1.982-.959zM459.469 222.657l67.939 23.603a1.562 1.562 0 0 1 .96 1.982l-.894 2.573a1.561 1.561 0 0 1-1.981.96l-67.94-23.603a1.562 1.562 0 0 1-.96-1.982l.869-2.499c.207-.835 1.124-1.34 2.007-1.034z" fill="#E5E5E5"/><path d="M489.259 103.226l-19.667 9.648c-.892.431-1.848.099-2.305-.719l-2.792-5.008c-.458-.818-1.586-1.127-2.404-.67l-3.893 2.191c-.818.458-1.127 1.586-.67 2.404l6.525 11.578c.457.818 1.487 1.176 2.305.719l26.478-12.885c.891-.432 1.274-1.535.817-2.353l-1.993-3.989a1.766 1.766 0 0 0-2.401-.916zM473.678 148.076l-19.667 9.648c-.892.432-1.848.1-2.305-.719l-2.793-5.007c-.531-.844-1.586-1.128-2.404-.671l-3.892 2.191c-.818.458-1.128 1.586-.671 2.404l6.526 11.579c.457.818 1.486 1.175 2.304.718l26.43-12.984c.892-.432 1.275-1.535.818-2.353l-1.993-3.989c-.359-.866-1.462-1.249-2.353-.817zM458.07 193.002l-19.667 9.648c-.892.432-1.848.1-2.305-.718l-2.792-5.008c-.531-.844-1.586-1.128-2.404-.671l-3.893 2.191c-.818.458-1.128 1.586-.67 2.404l6.525 11.579c.457.818 1.487 1.175 2.305.718l26.429-12.984c.892-.432 1.275-1.535.818-2.353l-1.993-3.988c-.358-.867-1.461-1.25-2.353-.818z" fill="#B7D553"/><path d="M428.897 273.179l-29.043-10.09a1.478 1.478 0 0 1-.912-1.882l10.116-29.117a1.478 1.478 0 0 1 1.882-.912l29.044 10.09a1.479 1.479 0 0 1 .911 1.883l-10.115 29.117c-.281.809-1.074 1.192-1.883.911zm-22.613-14.366l18.823 6.54a1.478 1.478 0 0 0 1.882-.912l6.054-17.426a1.477 1.477 0 0 0-.912-1.882l-17.426-6.054a1.477 1.477 0 0 0-1.882.911l-6.539 18.823zM447.846 256.111l32.426 11.265a1.561 1.561 0 0 1 .96 1.981l-.894 2.574a1.562 1.562 0 0 1-1.982.96l-32.425-11.265a1.562 1.562 0 0 1-.96-1.982l.894-2.573c.208-.835 1.099-1.267 1.981-.96zM443.607 268.316l67.939 23.603a1.56 1.56 0 0 1 .96 1.981l-.894 2.574a1.561 1.561 0 0 1-1.982.959l-67.939-23.602a1.562 1.562 0 0 1-.96-1.982l.894-2.573c.208-.835 1.099-1.267 1.982-.96z" fill="#E5E5E5"/><path d="M210.421 153.919l-120.83 55.119c-6.41 2.925-14.003.16-16.943-6.285l-37.435-82.064c-2.912-6.384-.052-13.991 6.36-16.916l120.829-55.119c6.412-2.925 14.032-.098 16.944 6.286l37.435 82.064c3.002 6.416.113 13.963-6.36 16.915z" fill="#ECECEC"/><path d="M211.037 151.885l-120.83 55.119c-6.411 2.925-14.003.16-16.943-6.285l-37.435-82.064c-2.912-6.384-.052-13.991 6.36-16.916L163.017 46.62c6.412-2.925 14.032-.098 16.943 6.286l37.436 82.064c3.001 6.416.113 13.963-6.36 16.915z" fill="#fff"/><path d="M174.116 39.927L29.921 105.705l11.256 24.674L185.37 64.602l-11.255-24.675z" fill="#EC5D79"/><path d="M108.158 86.847c3.065-1.398 4.42-5.004 3.029-8.055-1.392-3.051-5.004-4.391-8.069-2.993-3.064 1.397-4.42 5.004-3.028 8.055 1.392 3.05 5.004 4.39 8.068 2.993z" fill="#CD3E5A"/><path d="M106.901 83.047a3.03 3.03 0 0 1-4.034-1.497l-4.788-10.495a3.03 3.03 0 0 1 1.514-4.028 3.03 3.03 0 0 1 4.034 1.497l4.788 10.495c.672 1.474-.035 3.353-1.514 4.028z" fill="#ECECEC"/><path d="M106.758 83.778a3.03 3.03 0 0 1-4.034-1.496l-4.788-10.496a3.03 3.03 0 0 1 1.514-4.028 3.03 3.03 0 0 1 4.035 1.497l4.787 10.496c.672 1.473-.034 3.352-1.514 4.027z" fill="#fff"/><path d="M81.773 98.883c3.064-1.398 4.42-5.004 3.028-8.055-1.391-3.051-5.004-4.391-8.068-2.993-3.064 1.398-4.42 5.004-3.028 8.055 1.392 3.05 5.004 4.391 8.068 2.993z" fill="#CD3E5A"/><path d="M80.515 95.083a3.03 3.03 0 0 1-4.034-1.496L71.693 83.09a3.03 3.03 0 0 1 1.514-4.028 3.03 3.03 0 0 1 4.035 1.497l4.787 10.496c.672 1.473.028 3.324-1.514 4.027z" fill="#ECECEC"/><path d="M80.373 95.814a3.03 3.03 0 0 1-4.034-1.496L71.55 83.822a3.03 3.03 0 0 1 1.514-4.028 3.03 3.03 0 0 1 4.034 1.497l4.788 10.496c.672 1.473.027 3.324-1.514 4.027z" fill="#fff"/><path d="M56.99 110.188c3.065-1.398 4.42-5.004 3.029-8.055-1.392-3.051-5.004-4.391-8.068-2.993-3.065 1.397-4.42 5.004-3.029 8.055 1.392 3.051 5.004 4.391 8.069 2.993z" fill="#CD3E5A"/><path d="M55.672 106.416a3.03 3.03 0 0 1-4.034-1.496L46.85 94.424c-.7-1.535.034-3.353 1.514-4.028a3.03 3.03 0 0 1 4.034 1.497l4.788 10.496c.672 1.473.027 3.324-1.514 4.027z" fill="#ECECEC"/><path d="M55.53 107.147a3.03 3.03 0 0 1-4.035-1.496l-4.788-10.496c-.7-1.534.035-3.353 1.514-4.028a3.03 3.03 0 0 1 4.035 1.497l4.788 10.496c.671 1.473.027 3.324-1.515 4.027z" fill="#fff"/><path d="M160.744 62.858c3.065-1.397 4.421-5.004 3.029-8.055-1.392-3.05-5.004-4.39-8.068-2.993-3.065 1.398-4.421 5.005-3.029 8.055 1.392 3.051 5.004 4.391 8.068 2.993z" fill="#CD3E5A"/><path d="M159.487 59.059a3.03 3.03 0 0 1-4.034-1.497l-4.788-10.496a3.03 3.03 0 0 1 1.514-4.027 3.03 3.03 0 0 1 4.034 1.496l4.788 10.496c.672 1.473.027 3.325-1.514 4.028z" fill="#ECECEC"/><path d="M159.345 59.79a3.03 3.03 0 0 1-4.034-1.497l-4.788-10.495a3.03 3.03 0 0 1 1.514-4.028 3.03 3.03 0 0 1 4.034 1.496l4.788 10.496c.672 1.474.027 3.325-1.514 4.028z" fill="#fff"/><path d="M134.544 74.81c3.064-1.397 4.42-5.004 3.028-8.055-1.392-3.05-5.004-4.39-8.068-2.993-3.064 1.398-4.42 5.004-3.028 8.055 1.391 3.051 5.004 4.391 8.068 2.993z" fill="#CD3E5A"/><path d="M133.286 71.01a3.03 3.03 0 0 1-4.034-1.496l-4.788-10.496a3.03 3.03 0 0 1 1.514-4.027 3.03 3.03 0 0 1 4.035 1.496l4.788 10.496c.672 1.473-.035 3.353-1.515 4.028z" fill="#ECECEC"/><path d="M133.144 71.742a3.03 3.03 0 0 1-4.034-1.497l-4.788-10.496a3.03 3.03 0 0 1 1.514-4.027 3.03 3.03 0 0 1 4.034 1.496l4.788 10.496c.672 1.474-.034 3.353-1.514 4.028z" fill="#fff"/><path fill="#ECECEC" d="M101.979 110.861l11.294-5.152 4.772 10.46-11.294 5.152zM118.185 103.468l11.294-5.152 4.772 10.46-11.294 5.152zM134.391 96.075l11.294-5.152 4.772 10.46-11.294 5.152zM150.598 88.682l11.294-5.152 4.772 10.46-11.294 5.152zM166.804 81.289l11.294-5.152 4.772 10.46-11.295 5.152zM59.757 147.062l11.294-5.152 4.772 10.46-11.294 5.152zM75.963 139.67l11.294-5.153 4.772 10.46-11.294 5.152zM92.17 132.276l11.294-5.152 4.772 10.46-11.294 5.152zM108.376 124.884l11.294-5.152 4.772 10.46-11.294 5.152zM124.582 117.491l11.294-5.152 4.772 10.46-11.294 5.152zM140.789 110.098l11.294-5.152 4.772 10.46-11.294 5.152zM156.995 102.705l11.294-5.152 4.772 10.46-11.294 5.152zM173.201 95.312l11.294-5.152 4.772 10.46-11.294 5.152zM66.154 161.085l11.294-5.152 4.772 10.46-11.294 5.152zM82.36 153.692l11.294-5.152L98.426 159l-11.294 5.152zM98.567 146.299l11.294-5.152 4.772 10.46-11.294 5.152zM114.773 138.907l11.294-5.152 4.772 10.46-11.294 5.152zM130.979 131.514l11.294-5.152 4.772 10.46-11.294 5.152zM147.186 124.121l11.294-5.152 4.772 10.46-11.294 5.152zM163.392 116.728l11.294-5.152 4.772 10.46-11.294 5.152zM179.598 109.335l11.294-5.152 4.772 10.46-11.294 5.152zM72.55 175.108l11.294-5.152 4.772 10.46-11.294 5.152zM88.757 167.715l11.294-5.152 4.772 10.46-11.294 5.152zM104.964 160.322l11.294-5.152 4.772 10.46-11.294 5.152zM121.169 152.93l11.294-5.152 4.772 10.46-11.294 5.152zM137.376 145.537l11.294-5.152 4.772 10.46-11.294 5.152zM153.583 138.144l11.294-5.152 4.772 10.46-11.294 5.152zM169.789 130.751l11.294-5.152 4.772 10.46-11.294 5.152zM185.995 123.358l11.294-5.152 4.772 10.46-11.294 5.152zM78.948 189.13l11.294-5.151 4.772 10.46-11.294 5.152zM95.154 181.738l11.294-5.152 4.772 10.46-11.294 5.152zM111.361 174.345l11.294-5.152 4.772 10.46-11.294 5.152zM127.566 166.953l11.294-5.152 4.772 10.46-11.294 5.152z"/><path d="M424.347 301.866l-169.174-.564c-3.172 0-5.722-2.568-5.722-5.762l.746-228.909c0-3.194 2.55-5.761 5.722-5.761l169.174.563c3.172 0 5.723 2.568 5.723 5.762l-.747 228.909c0 3.194-2.55 5.762-5.722 5.762z" fill="#1174B9"/><path d="M414.21 290.244l-145.919-.512c-2.736 0-4.935-2.333-4.935-5.236L264 76.473c0-2.902 2.199-5.236 4.935-5.236l145.919.513c2.736 0 4.936 2.333 4.936 5.236l-.644 208.022c0 2.903-2.2 5.236-4.936 5.236z" fill="#fff"/><path d="M281.793 73.52c0 4.07-3.297 7.39-7.34 7.39-4.042 0-7.339-3.32-7.339-7.39l.062-25.114c0-4.071 3.297-7.39 7.34-7.39 4.042 0 7.339 3.319 7.339 7.39l-.062 25.114zM308.226 73.648c0 4.07-3.296 7.39-7.339 7.39-4.043 0-7.339-3.32-7.339-7.39l.062-25.177c0-4.07 3.296-7.39 7.339-7.39 4.043 0 7.339 3.32 7.339 7.39l-.062 25.177zM334.598 73.71c0 4.07-3.297 7.39-7.34 7.39-4.042 0-7.339-3.32-7.339-7.39l.062-25.115c0-4.07 3.297-7.39 7.34-7.39 4.042 0 7.339 3.32 7.339 7.39l-.062 25.114zM361.032 73.772c0 4.071-3.297 7.39-7.34 7.39-4.042 0-7.339-3.319-7.339-7.39l.062-25.114c0-4.07 3.297-7.39 7.34-7.39 4.042 0 7.339 3.32 7.339 7.39l-.062 25.114zM387.465 73.897c0 4.07-3.296 7.39-7.339 7.39-4.042 0-7.339-3.32-7.339-7.39l.062-25.114c0-4.071 3.297-7.39 7.339-7.39 4.043 0 7.34 3.319 7.34 7.39l-.063 25.114zM413.836 73.959c0 4.07-3.296 7.39-7.339 7.39-4.043 0-7.339-3.32-7.339-7.39l.062-25.114c0-4.071 3.296-7.39 7.339-7.39 4.043 0 7.339 3.319 7.339 7.39l-.062 25.114z" fill="#5BC7F3"/><g clip-path="url(#clip0)"><path d="M296.856 171.069h-15.692V216.7h15.692v-45.631z" fill="#B7D553"/><path d="M320.252 163.779h-15.693V216.7h15.693v-52.921zM343.333 139.173h-16.012v77.997h16.012v-77.997z" fill="#309399"/><path d="M367.35 139.173h-16.012v77.997h16.012v-77.997zM390.153 117.436H374.46V216.7h15.693v-99.264z" fill="#5BC7F3"/></g><path d="M358.23 242.24h-73.143a2.797 2.797 0 0 1-2.799-2.818 2.797 2.797 0 0 1 2.799-2.819h73.205a2.797 2.797 0 0 1 2.799 2.819c0 1.565-1.306 2.818-2.861 2.818zM358.23 254.33h-73.143a2.797 2.797 0 0 1-2.799-2.819 2.797 2.797 0 0 1 2.799-2.818h73.205a2.797 2.797 0 0 1 2.799 2.818c0 1.566-1.306 2.819-2.861 2.819zM316.558 266.415h-31.471a2.797 2.797 0 0 1-2.799-2.818 2.797 2.797 0 0 1 2.799-2.818h31.534a2.796 2.796 0 0 1 2.798 2.818c0 1.566-1.306 2.818-2.861 2.818z" fill="#EBEBEB"/><path d="M177.127 328.282l-15.294-16.809 59.955-53.948 15.294 16.81-59.955 53.947z" fill="#E3E3E3"/><path d="M143.852 343.31l-.169-.197c-4.836-5.292-5.53-12.52-1.513-16.135l45.21-41.654 18.572 19.53-46.141 41.503c-3.983 3.626-11.122 2.246-15.959-3.047z" fill="#B7D553"/><path opacity=".2" d="M217.723 261.313l-3.225 2.531-.623 30.866 22.102-19.641-18.254-13.756z" fill="#BBBCBF"/><path d="M321.333 276.13c27.949-25.358 29.999-68.575 4.584-96.507-25.414-27.933-68.69-30.014-96.673-4.666-27.948 25.359-29.998 68.576-4.593 96.543 25.414 27.932 68.69 30.014 96.682 4.63zm-89.581-11.078c-21.865-24.05-20.101-61.214 3.963-83.032 24.065-21.817 61.279-20.025 83.145 4.025 21.865 24.051 20.101 61.215-3.963 83.032-24.065 21.818-61.279 20.026-83.145-4.025z" fill="#B7D553"/><path opacity=".5" d="M231.735 265.074c21.872 24.039 59.1 25.834 83.153 4.011 24.052-21.823 25.82-59.002 3.949-83.04-21.872-24.038-59.1-25.834-83.153-4.011-24.052 21.824-25.82 59.002-3.949 83.04z" fill="#D1E7F5"/><path opacity=".22" d="M289.079 185.416c18.153 4.826 31.188 21.147 31.265 39.982.096 18.764-12.91 35.513-31.104 40.25-5.129 1.32-3.427 9.355 1.702 8.036 20.934-5.423 36.119-23.651 37.523-45.208 1.385-21.227-11.681-40.886-31.163-48.966-1.875-.791-3.842-1.384-5.785-1.933-5.085-1.36-7.557 6.469-2.438 7.839z" fill="#fff"/><path opacity=".31" d="M270.552 274.913a5.412 5.412 0 0 0 7.639.369 5.395 5.395 0 0 0 .363-7.629 5.414 5.414 0 0 0-7.64-.369 5.395 5.395 0 0 0-.362 7.629z" fill="#fff"/><path d="M187.925 286.19l17.672 18.603a1.75 1.75 0 0 0 2.313.167l.232-.159c.815-.63.885-1.807.199-2.562l-17.87-18.434c-.671-.676-1.79-.693-2.466-.023l-.01.034c-.71.66-.741 1.699-.07 2.374z" fill="#309399"/><path d="M259.321 280.615c-13.625-3.884-25.41-12.56-33.111-24.42-7.593-11.718-10.633-25.891-8.796-39.697 1.891-14.127 9.311-27.142 20.106-36.324 10.544-8.954 24.262-13.759 38.061-13.678 14.324.08 28.36 5.688 38.901 15.321 10.148 9.298 16.804 22.21 18.462 35.843 1.743 14.256-2.022 28.789-10.209 40.54-7.877 11.315-19.934 19.393-33.27 22.846-9.854 2.529-20.317 2.306-30.144-.431-1.943-.549-2.794 2.465-.851 3.013 13.644 3.815 28.122 2.816 41.119-2.753 12.696-5.429 23.33-15.367 29.798-27.529 6.708-12.618 8.681-27.432 5.764-41.383-2.8-13.432-10.375-25.744-20.897-34.511-11.019-9.133-25.153-14.133-39.506-14.108-13.829.023-27.323 4.965-38.135 13.544-11.099 8.797-18.748 21.561-21.635 35.369-2.858 13.705-.777 28.093 5.595 40.551 7.703 15.04 21.66 26.236 37.877 30.89 1.963.479 2.813-2.535.871-3.083z" fill="#F7F7F7"/><defs><clipPath id="clip0"><path fill="#fff" d="M268.61 105.458h132.1V216.7h-132.1z"/></clipPath></defs></svg>