<svg width="157" height="134" fill="none" xmlns="http://www.w3.org/2000/svg"><g clip-path="url(#clip0)"><path d="M27.127 31.697c35.043 3.214 76.963-9.228 92.861-14.999 15.897-5.771 36.875 12.2 30.17 35.7-6.704 23.5-1.14 36.633 4.838 52.081 5.979 15.448-2.177 22.221-19.802 27.647-30.654 9.435-61.481-21.668-94.935-21.668-53.67.034-48.14-82.01-13.132-78.761z" fill="#D5F4FE"/><path d="M74.628 3.192H99.05c1.207 0 2.207 1 2.207 2.207v12.039c0 1.207-1 2.207-2.207 2.207H74.628c-1.207 0-2.207-1-2.207-2.207V5.399c0-1.207 1-2.207 2.207-2.207z" fill="#19A0D0"/><path d="M70.662 6.917h32.32a2.915 2.915 0 0 1 2.898 2.898v15.901a2.915 2.915 0 0 1-2.898 2.897h-32.32a2.915 2.915 0 0 1-2.898-2.897V9.815a2.915 2.915 0 0 1 2.898-2.898z" fill="#1174B9"/><path d="M69.075 3.192h24.421c1.208 0 2.208 1 2.208 2.207v12.039c0 1.207-1 2.207-2.208 2.207H69.075c-1.207 0-2.208-1-2.208-2.207V5.399c0-1.207 1-2.207 2.208-2.207z" fill="#5BC7F3"/><path d="M65.143 6.917h32.32a2.915 2.915 0 0 1 2.898 2.898v15.901a2.915 2.915 0 0 1-2.898 2.897h-32.32a2.915 2.915 0 0 1-2.898-2.897V9.815a2.893 2.893 0 0 1 2.898-2.898z" fill="#008ED9"/><path d="M84.252 10.125c28.733 0 52.051 23.318 52.051 52.05 0 28.734-23.318 52.051-52.05 52.051-1.036 0-2.07-.034-3.105-.103h-3.243v-.276c-25.732-3.139-45.703-25.077-45.703-51.671 0-26.595 19.971-48.533 45.703-51.672v-.379h6.347z" fill="#1174B9"/><path d="M81.286 114.985c28.664 0 52.05-23.387 52.05-52.05 0-28.665-23.386-52.051-52.05-52.051-28.664 0-52.05 23.386-52.05 52.05 0 28.664 23.386 52.051 52.05 52.051z" fill="#008ED9"/><path d="M81.286 108.19c24.938 0 45.255-20.317 45.255-45.256 0-24.904-20.317-45.255-45.255-45.255-24.94 0-45.256 20.317-45.256 45.255 0 24.94 20.351 45.256 45.256 45.256z" fill="#D4D4D4"/><path fill-rule="evenodd" clip-rule="evenodd" d="M81.286 104.395c22.834 0 41.426-18.626 41.426-41.426 0-22.835-18.626-41.427-41.426-41.427-22.835 0-41.427 18.627-41.427 41.427s18.592 41.426 41.427 41.426z" fill="#fff"/><path d="M81.286 30.821a1.222 1.222 0 0 1-1.208-1.207V27.51c0-.656.552-1.208 1.208-1.208.655 0 1.207.552 1.207 1.208v2.104a1.2 1.2 0 0 1-1.207 1.207zm0 68.814a1.222 1.222 0 0 1-1.208-1.207v-2.104c0-.655.552-1.207 1.208-1.207.655 0 1.207.552 1.207 1.207v2.104a1.2 1.2 0 0 1-1.207 1.207zm16.073-64.502c-.586-.345-.793-1.07-.448-1.656l1.07-1.828c.344-.587 1.069-.794 1.655-.449.586.345.793 1.07.449 1.656l-1.07 1.828a1.263 1.263 0 0 1-1.656.449zm-34.424 59.57c-.586-.345-.793-1.07-.448-1.656l1.069-1.828c.345-.586 1.07-.793 1.656-.448.586.344.793 1.069.448 1.655l-1.07 1.828c-.31.587-1.069.794-1.655.449zm46.187-47.808c-.345-.587-.138-1.31.448-1.656l1.828-1.069c.587-.345 1.311-.138 1.656.448.345.587.138 1.311-.448 1.656l-1.829 1.07c-.586.31-1.31.103-1.655-.45zm-59.605 34.39c-.345-.587-.138-1.31.449-1.656l1.828-1.07c.586-.344 1.31-.137 1.655.45.345.586.138 1.31-.448 1.655l-1.828 1.07c-.552.344-1.31.137-1.656-.45zm63.916-18.35c0-.656.552-1.208 1.208-1.208h2.104c.655 0 1.207.552 1.207 1.207 0 .656-.552 1.208-1.207 1.208h-2.104c-.69.034-1.208-.518-1.208-1.208zm-68.814 0c0-.656.552-1.208 1.207-1.208h2.105c.655 0 1.207.552 1.207 1.207 0 .656-.552 1.208-1.207 1.208h-2.105c-.655.034-1.207-.518-1.207-1.208zm64.503 16.073c.345-.586 1.069-.793 1.655-.448l1.829 1.07c.586.344.793 1.069.448 1.655-.345.586-1.069.793-1.656.448l-1.828-1.069c-.586-.345-.793-1.07-.448-1.656zm-59.605-34.39c.345-.586 1.07-.793 1.656-.448L53 45.24c.586.344.793 1.069.448 1.655-.344.586-1.069.793-1.655.448l-1.828-1.069a1.239 1.239 0 0 1-.449-1.656zM97.36 90.771c.587-.345 1.311-.138 1.656.448l1.07 1.828c.344.587.137 1.31-.449 1.656-.586.345-1.31.138-1.656-.449l-1.069-1.828c-.345-.586-.138-1.31.448-1.655zM62.935 31.166c.587-.345 1.31-.138 1.656.448l1.07 1.829c.344.586.137 1.31-.45 1.655-.586.345-1.31.138-1.655-.448l-1.035-1.794a1.261 1.261 0 0 1 .414-1.69z" fill="#383771"/><path d="M81.286 64.383c.793 0 1.448-.655 1.448-1.449V38.548c0-.794-.655-1.45-1.448-1.45-.794 0-1.45.656-1.45 1.45v24.386c.035.794.656 1.449 1.45 1.449z" fill="#008ED9"/><path d="M80.285 61.934a1.458 1.458 0 0 0 0 2.035l12.66 12.66a1.458 1.458 0 0 0 2.035 0 1.458 1.458 0 0 0 0-2.036L82.32 61.934c-.586-.552-1.483-.552-2.034 0z" fill="#5BC7F3"/></g><defs><clipPath id="clip0"><path fill="#fff" d="M.378.351h156.588v133.572H.378z"/></clipPath></defs></svg>