<svg width="516" height="384" fill="none" xmlns="http://www.w3.org/2000/svg"><path d="M383.704 142.346c-52.409-24.829-86.841-17.583-129.276-39.154-42.436-21.571-238.462-84.994-173.824 76.399C98.5 267.425 59.727 252.322 43.767 310.06c-15.96 57.738 43.793 70.492 88.739 73.079 87.586 5.04 60.771-32.47 150.07-32.47C495.51 441.258 510.36 142.346 383.704 142.346z" fill="#D5F4FE"/><path d="M51.461 383.986s156.864-168.1 311.237 0H51.461z" fill="#B7D553"/><path d="M152.999 383.986s156.863-153.5 311.237 0H152.999z" fill="#B7D553"/><path d="M436.382 368.72H151.576v15.075h284.806V368.72z" fill="#E19A47"/><path d="M424.507 200.501l-55.831-60.398-74.122-25.762-70.196 25.762-59.662 60.398V368.72h259.811V200.501z" fill="#F44"/><path d="M297.331 111.669h-5.459v87.497h5.459v-87.497z" fill="#fff"/><path d="M371.536 135.177l-78.644 61.819 3.381 4.27 78.644-61.819-3.381-4.27z" fill="#fff"/><path d="M218.667 135.186l-3.381 4.27 78.644 61.82 3.381-4.27-78.644-61.82z" fill="#fff"/><path d="M424.507 194.299H164.696v7.729h259.811v-7.729z" fill="#fff"/><path opacity=".1" d="M164.696 233.611l59.662-60.399 70.196-25.857 74.122 25.857 55.831 60.399v-33.11l-55.831-60.398-74.122-25.762-70.196 25.762-59.662 60.398v33.11z" fill="#000"/><path d="M151.672 214.814l-8.332-8.015 73.165-75.188 78.049-28.625 82.166 28.625 69.717 76.142-8.427 7.824-67.706-74.043-75.655-26.334-71.632 26.334-71.345 73.28z" fill="#F9C21B"/><path d="M354.79 267.293H234.988V368.72H354.79V267.293z" fill="#fff"/><path d="M348.374 273.113H241.5v95.607h106.874v-95.607z" fill="#F4BC68"/><path d="M342.532 368.72L241.5 278.265v-5.152h5.746l101.128 90.454v5.153h-5.842z" fill="#E19A47"/><path d="M241.5 362.995l101.702-89.882h5.172v5.725L246.671 368.72H241.5v-5.725z" fill="#E19A47"/><path d="M295.99 273.113h-2.202v95.607h2.202v-95.607z" fill="#E19A47"/><path d="M124.461 304.123V383.7h12.832s.766-37.212 19.345-55.246l-32.177-24.331z" fill="#162806"/><path d="M131.26 383.605h9.193s1.533-7.92-9.193-7.92v7.92z" fill="#162806"/><path d="M131.739 359.751c11.741 0 21.26-7.946 21.26-17.748 0-9.801-9.519-17.747-21.26-17.747-11.742 0-21.26 7.946-21.26 17.747 0 9.802 9.518 17.748 21.26 17.748z" fill="#FFBECB"/><path d="M228.27 304.123V383.7h12.833s.766-37.212 19.344-55.246l-32.177-24.331z" fill="#162806"/><path d="M234.974 383.605h9.193s1.533-7.92-9.193-7.92v7.92z" fill="#162806"/><path d="M260.064 261.949h-127.08c-18.387 0-33.997 12.595-36.391 29.579-1.15 8.397-1.34 17.27 4.309 29.102 10.343 21.659 32.752 36.067 58.13 36.067h72.303c20.781 0 32.081-18.797 30.645-38.071l-1.916-56.677z" fill="#fff"/><path d="M96.114 304.123V383.7h12.833s.766-37.212 19.344-55.246l-32.177-24.331z" fill="#fff"/><path d="M103.392 383.605h9.194s1.532-7.92-9.194-7.92v7.92zM202.318 304.123V383.7h12.832s.767-37.212 19.345-55.246l-32.177-24.331z" fill="#fff"/><path d="M209.692 383.605h9.193s1.533-7.92-9.193-7.92v7.92z" fill="#fff"/><path d="M108.085 281.032s-20.877-6.87-21.93 8.97c-1.15 15.839-5.555 40.17-24.804 38.357" stroke="#fff" stroke-width="3.763" stroke-miterlimit="10"/><path d="M63.937 325.878v4.771c0 1.24-1.436 2.003-2.586 1.431l-5.362-2.672c-1.341-.668-1.245-2.385.191-2.958l5.363-2.099c1.15-.381 2.394.382 2.394 1.527zM174.259 282.464h12.832c8.428 0 15.323-6.87 15.323-15.267v-5.343h-43.382v5.343c-.096 8.492 6.704 15.267 15.227 15.267zM223.961 319.58c6.135 0 11.109-4.613 11.109-10.305 0-5.691-4.974-10.305-11.109-10.305s-11.109 4.614-11.109 10.305c0 5.692 4.974 10.305 11.109 10.305zM122.833 308.226c4.654 0 8.427-3.503 8.427-7.824s-3.773-7.824-8.427-7.824c-4.655 0-8.428 3.503-8.428 7.824s3.773 7.824 8.428 7.824zM282.473 261.758s24.421-4.961 32.752 7.252c0 0-10.821 15.839-32.752 1.145v-8.397zM251.35 261.758s-24.421-4.961-32.752 7.252c0 0 10.821 15.839 32.752 1.145v-8.397z" fill="#162806"/><path d="M277.11 250.499h10.056s7.086-1.622 6.799-9.255c0 0 13.216 18.988-11.492 20.419l-5.363-11.164zM256.329 250.499h-10.055s-7.087-1.622-6.799-9.255c0 0-13.216 18.988 11.492 20.419l5.362-11.164z" fill="#C9C9C9"/><path d="M249.147 262.045c.383-11.546 6.895-11.546 6.895-11.546h21.068s6.512 0 6.896 11.546c.383 11.545 2.298 10.782 2.298 19.846 0 6.679-3.926 31.106-10.917 41.983-3.927 6.107-13.503 6.107-17.525 0-6.991-10.877-10.918-35.304-10.918-41.983-.095-8.969 1.82-8.206 2.203-19.846z" fill="#fff"/><path d="M285.825 276.357s-13.982 7.347-15.035 33.205l8.427 6.202s5.746-11.641 7.279-33.778c-.096.096.095-5.247-.671-5.629zM247.423 276.357s13.982 7.347 15.035 33.205l-8.427 6.488s-5.842-11.832-7.374-33.968c.096 0 .096-5.343.766-5.725z" fill="#162806"/><path d="M279.409 322.347h-26.336s-4.309-13.072 13.025-13.072c16.95-.095 13.311 13.072 13.311 13.072z" fill="#FFBECB"/><path d="M272.514 317.863c0 .859.766 1.526 1.723 1.526.958 0 1.724-.667 1.724-1.526s-.766-1.527-1.724-1.527c-.957 0-1.723.764-1.723 1.527zM256.712 317.863c0 .859.767 1.526 1.724 1.526.958 0 1.724-.667 1.724-1.526s-.766-1.527-1.724-1.527c-.957.096-1.724.764-1.724 1.527z" fill="#162806"/><path d="M204.552 13.462c-.864 1.6-1.984 3.52-3.2 5.472-1.472-2.528-2.752-4.672-3.072-5.248-.704-1.344-4.608 0-3.936 1.216.608 1.088 2.624 4.512 4.576 7.84-1.6 2.464-3.104 4.64-4.032 5.92-.8 1.088 1.216 2.176 1.76 1.664.224-.192 1.76-2.528 3.584-5.376 1.312 2.24 2.368 4.128 2.688 4.768.544 1.152 4.352-.256 3.68-1.568-.8-1.568-2.368-4.32-3.936-7.008 1.792-2.784 3.456-5.408 4.192-6.56.672-1.024-1.984-1.728-2.304-1.12zm10.68 17.28c3.776 0 6.144-2.848 6.144-7.008 0-4.672-2.336-7.264-6.912-7.264-2.336 0-3.584.832-4.064 1.312-1.344 1.344-1.984 3.84-1.76 6.624.288 3.36 3.392 6.336 6.592 6.336zm.064-1.824c-1.28 0-2.208-1.952-2.208-4.896 0-3.168.864-5.248 2.016-5.248 1.376 0 2.144 1.952 2.144 5.024 0 3.168-.64 5.12-1.952 5.12zm13.392 1.6c1.152 0 5.728-.48 5.728-4.448 0-1.824-1.088-2.944-2.912-3.392 1.376-.864 2.08-1.952 1.92-3.296-.192-1.856-1.792-2.976-4.576-2.976-2.112 0-3.712.608-4.032 1.6-.512 1.664 1.824 1.632 1.92 1.344.224-.672.768-1.216 1.536-1.216.736 0 1.152.672 1.184 1.696.032 1.248-.896 2.24-2.496 2.4-.736.096-.608 2.496.096 2.24 1.952-.608 3.264.128 3.168 2.176-.096 1.28-.736 1.952-1.952 1.952-.288 0-1.76-.384-1.28-1.856.096-.32-2.624-.8-2.624 1.408 0 1.632 2.208 2.368 4.32 2.368zm18.183-12.032c-.064-1.76-.544-1.664-1.792-1.888-1.472-.288-7.456-.96-8.064 3.648-.224 1.952.736 3.584 2.816 4.576-.448 1.248-1.824 2.816-3.264 3.52-.96.48 2.016 2.624 3.136 1.92 1.696-1.088 2.592-2.752 3.264-4.448.128 0 .288.032.448.064.384.064.32.16.352.672.032.416 0 2.816 0 3.264 0 1.376 3.712.736 3.712-.288-.032-3.52-.544-10.208-.608-11.04zm-3.424 5.376c-1.056-.192-2.816-.832-2.688-2.944.064-1.632.736-2.56 2.4-2.56.32 0 .32 0 .416.48.032.288.256 3.808.256 4.736 0 .224 0 .352-.384.288zm14.551-8.704c1.376 0 2.688-.736 3.296-2.912.064-.256-1.184-.8-1.28-.288-.224 1.152-.768 1.952-1.696 1.952-.608 0-1.504-.192-1.824-1.664-.128-.576-2.272-.096-2.048.576.736 2.144 2.528 2.336 3.552 2.336zm-6.176 11.68c0 1.248.576 2.624 1.696 3.328 2.368 1.472 5.152-.288 6.432-3.552.256-.672.256-.16.288.672.128 2.624 1.824 3.072 2.976 3.072 1.728 0 1.856-1.024 1.728-1.056-.928-.096-.896-5.696-.928-6.72.064-1.792.064-3.648.064-5.472 0-.928-3.904-.8-3.936 0-.032 1.216-.288 5.568-.768 7.2-.288 1.056-.928 3.904-2.368 3.936-.992.032-1.024-.896-1.312-8.672-.096-1.6-.576-2.752-2.208-3.008-1.6-.256-2.432.64-2.08.64.64 0 .416 7.84.416 9.632zm21.812 3.776c2.304 0 4-.928 4.416-1.856.416-.928-1.056-1.824-1.248-1.472-.48.96-1.952 1.824-3.04 1.6-.864-.192-2.24-1.44-2.24-4.48 0-4.32.992-6.112 2.432-6.112.896 0 1.28.672.96 1.664-.064.192.32 1.216 1.568 1.216 1.184 0 1.888-.64 1.888-1.568.064-1.952-2.144-3.04-4.928-3.04-3.968 0-6.24 3.36-6.24 7.2 0 4.256 2.304 6.848 6.432 6.848zm17.214-14.016c-1.888-.096-8.736.096-10.336.064-.704 0-.704 2.08-.096 2.08.384 0 1.728-.064 3.296-.096-.096 2.912-.288 9.44-.064 10.976.16 1.312 4.32.928 4.32.416-.256-5.504-.48-9.568-.608-11.52 1.44-.032 2.72-.064 3.232-.064.896 0 .992-1.792.256-1.856zm12.113 6.912c1.696-.832 2.272-2.24 2.272-3.776 0-3.712-5.888-3.456-7.328-2.176-.544-.32-.352-1.152-2.368-1.152-1.184 0-1.92.544-1.952 1.28-.032 1.024.064 4.256.064 6.496 0 2.304.032 3.52.192 5.344.064.8 4.128 1.056 6.496 1.024 1.984-.032 5.632-.672 5.632-3.616 0-1.792-.896-3.072-3.008-3.424zm-2.912-4.832c.672 0 1.696.192 1.696 1.728 0 1.472-1.184 2.496-3.712 2.624 0-.864-.032-1.088-.032-2.624 0-.544 1.056-1.728 2.048-1.728zm2.048 8.288c-.096 1.664-2.112 2.144-4.192 1.728-.256-.064-.032-2.432.096-4.096.64 0 1.536 0 2.336.096.8.096 1.888.256 1.76 2.272zm12.729 3.776c3.776 0 6.144-2.848 6.144-7.008 0-4.672-2.336-7.264-6.912-7.264-2.336 0-3.584.832-4.064 1.312-1.344 1.344-1.984 3.84-1.76 6.624.288 3.36 3.392 6.336 6.592 6.336zm.064-1.824c-1.28 0-2.208-1.952-2.208-4.896 0-3.168.864-5.248 2.016-5.248 1.376 0 2.144 1.952 2.144 5.024 0 3.168-.64 5.12-1.952 5.12z" fill="#4BAAF4"/></svg>