<svg width="2546" height="591" fill="none" xmlns="http://www.w3.org/2000/svg"><path fill="#0874C1" d="M0 .735h2546v590.224H0z"/><mask id="a" maskUnits="userSpaceOnUse" x="0" y="0" width="2546" height="591"><path fill="#007BBC" d="M0 .735h2546v590.224H0z"/></mask><g mask="url(#a)"><path d="M1532.07 416.403c-93.21 79.455-103.78 179.539-97.41 219.648 387.73 39.473 1163.18 112.689 1163.18 89.769 0-28.65 131.82-394.424 112.72-449.813-19.1-55.39-244.48-252.117-475.59-143.249-169.3 79.755-145.16 156.618-254.02 200.548-108.87 43.929-332.37-16.221-448.88 83.097zM737.518 410.674c105.431 32.087 288.442 128.91 196.76 226.318-287.77 64.94-966.099 173.249-979.85 136.577-13.753-36.671-27.377-458.394-32.47-664.672 31.833 24.193 126.058 61.884 248.297 19.1 152.798-53.48 250.207-34.38 318.966 19.1 68.759 53.479 116.509 223.467 248.297 263.577z" fill="#008ED9"/><g clip-path="url(#clip0)" fill-rule="evenodd" clip-rule="evenodd"><path d="M1784.22 144.487l128.75-6.525c9.85-.466 17.97 5.748 17.97 13.982v12.272c0 8.234-8.12 15.225-17.97 15.691l-128.75 6.524c-2.97.156-5.79-.31-8.29-1.242-5.78-2.175-10.15 3.573-10-2.175l.32-22.837c0-8.078 8.12-15.224 17.97-15.69zM1903.44 198.859v416.648l-169.85-9.165V203.52l169.85-4.661z" fill="#5BC7F3"/><path d="M1903.44 198.859v416.648l51.1-27.341V213.928l-51.1-15.069z" fill="#22B6EF"/><path d="M1903.44 198.859l-1.56-9.321 28.75-20.351 23.91 44.741-51.1-15.069z" fill="#5BC7F3"/><path d="M1818.44 326.557c39.22 2.175 71.09 35.73 71.09 74.723s-31.87 68.82-71.09 66.645c-39.23-2.175-71.1-35.73-71.1-74.723.15-39.148 31.87-68.975 71.1-66.645z" fill="#fff"/><path d="M1903.44 198.859l26.56-29.516-162.66 5.437-33.75 28.739 169.85-4.66z" fill="#22B6EF"/><path d="M1903.44 372.851v68.509l-169.85-6.214v-66.179l169.85 3.884z" fill="#fff"/><path d="M1903.44 372.851v68.51l51.41-4.195v-66.179l-51.41 1.864z" fill="#EDEDED"/><path d="M1818.44 332.77c27.03 1.554 50.31 19.419 60 43.498l-4.53-.155c-9.38-21.749-30.63-37.595-55.32-38.993-26.25-1.553-48.59 13.982-57.03 36.818l-4.53-.155c8.28-25.322 32.65-42.721 61.41-41.013zm53.75 103.308c-11.56 16.467-31.41 26.72-53.75 25.322-21.26-1.243-40.01-12.428-51.88-28.74l5.31.156c11.1 13.826 27.82 23.302 46.57 24.39 19.84 1.087 37.34-7.302 48.28-21.283l5.47.155z" fill="#22B6EF"/></g><g clip-path="url(#clip1)" fill-rule="evenodd" clip-rule="evenodd"><path d="M2016.89 236.009l126.06 27.022c9.63 2.098 15.87 10.203 13.74 18.156l-3.18 11.855c-2.13 7.953-11.79 12.602-21.42 10.504l-126.06-27.022c-2.9-.618-5.5-1.797-7.67-3.344-5.03-3.597-10.74.823-9.1-4.689l6.21-21.978c2.09-7.802 11.79-12.602 21.42-10.504zM2117.98 319.386l-107.84 402.451-161.69-52.814 104.26-389.097 165.27 39.46z" fill="#5BC7F3"/><path d="M2117.98 319.386l-107.84 402.451 56.44-13.185 96.86-361.486-45.46-27.78z" fill="#22B6EF"/><path d="M2117.98 319.386l.9-9.408 33.04-12.216 11.52 49.404-45.46-27.78z" fill="#5BC7F3"/><path d="M2002.82 420.732c37.32 12.252 59.43 52.914 49.34 90.578-10.1 37.664-48.61 58.225-85.93 45.973-37.32-12.252-59.43-52.914-49.33-90.579 10.28-37.773 48.64-58.374 85.92-45.972z" fill="#fff"/><path d="M2117.98 319.386l33.3-21.636-158.53-36.849-40.04 19.025 165.27 39.46z" fill="#22B6EF"/><path d="M2072.95 487.449l-17.73 66.175-162.46-49.964 17.13-63.924 163.06 47.713z" fill="#fff"/><path d="M2072.95 487.449l-17.73 66.175 50.74 9.254 17.13-63.924-50.14-11.505z" fill="#EDEDED"/><path d="M2001.21 426.734c25.71 8.497 43.58 31.779 46.7 57.545l-4.33-1.323c-3.43-23.434-19.86-44.24-43.34-51.98-24.96-8.295-50.56.927-64.62 20.801l-4.34-1.323c14.55-22.315 42.6-32.813 69.93-23.72zm25.19 113.699c-15.43 12.914-37.26 17.681-58.48 10.547-20.2-6.7-35.42-22.358-42.67-41.187l5.09 1.525c7.14 16.226 20.84 29.707 38.67 35.611 18.88 6.186 37.96 2.613 52.14-8.061l5.25 1.565z" fill="#22B6EF"/></g><path d="M2315.68 448.388l-30.99 28.958-102.16-110.532 30.99-28.958 102.16 110.532z" fill="#E3E3E3"/><path d="M2344.55 510.104l-.37.32c-9.75 9.157-23.22 10.632-30.07 3.226l-78.85-83.323 35.98-35.142 78.6 85.064c6.86 7.342 4.46 20.699-5.29 29.855z" fill="#B7D553"/><path opacity=".2" d="M2189.7 374.306l4.8 5.953 57.62.393-37.21-40.752-25.21 34.406z" fill="#BBBCBF"/><path d="M2214.77 180.598c-48.02-51.519-128.71-54.267-180.2-6.147-51.49 48.119-54.3 128.923-6.3 180.508 48.02 51.52 128.71 54.267 180.27 6.165 51.48-48.119 54.29-128.924 6.23-180.526zm-18.44 167.435c-44.33 41.4-113.73 39.035-155.04-5.326-41.31-44.36-38.89-113.847 5.44-155.247 44.33-41.401 113.72-39.035 155.04 5.325 41.31 44.361 38.89 113.847-5.44 155.248z" fill="#B7D553"/><path opacity=".5" d="M2196.37 348.064c44.31-41.411 46.73-110.924 5.41-155.262-41.32-44.338-110.74-46.711-155.05-5.299-44.31 41.411-46.73 110.924-5.41 155.262 41.32 44.338 110.74 46.71 155.05 5.299z" fill="#D1E7F5"/><path opacity=".22" d="M2046.3 243.046c8.55-33.994 38.68-58.724 73.82-59.337 35.02-.648 66.59 23.205 75.89 57.037 2.59 9.539 17.54 6.162 14.95-3.377-10.64-38.928-45.03-66.808-85.29-68.89-39.65-2.056-76.01 22.816-90.6 59.371-1.43 3.517-2.48 7.203-3.46 10.842-2.41 9.522 12.26 13.941 14.69 4.354z" fill="#fff"/><path opacity=".31" d="M2213.76 275.388c4.07-3.805 4.3-10.191.5-14.264-3.8-4.074-10.18-4.292-14.25-.487-4.07 3.804-4.29 10.191-.49 14.264 3.79 4.073 10.17 4.291 14.24.487z" fill="#fff"/><path d="M2236.86 429.288l34.28-33.44a3.265 3.265 0 0 0 .25-4.32l-.3-.429c-1.2-1.505-3.4-1.606-4.79-.307l-33.95 33.804c-1.24 1.269-1.25 3.357.02 4.602l.06.017c1.25 1.31 3.19 1.342 4.43.073z" fill="#309399"/><path d="M2224.68 296.203c-6.91 25.52-22.8 47.727-44.74 62.394-21.68 14.459-48.05 20.486-73.86 17.402-26.41-3.176-50.88-16.698-68.28-36.614-16.97-19.451-26.28-44.928-26.47-70.68-.21-26.73 9.91-53.062 27.62-72.971 17.1-19.169 41.02-31.91 66.42-35.343 26.56-3.609 53.77 3.056 75.9 18.04 21.31 14.416 36.69 36.713 43.46 61.512 4.97 18.324 4.81 37.853-.05 56.26-.97 3.639 4.67 5.151 5.64 1.512 6.78-25.555 4.56-52.547-6.16-76.66-10.44-23.554-29.25-43.15-52.11-54.916-23.71-12.204-51.4-15.515-77.36-9.725-25 5.56-47.78 20.001-63.88 39.855-16.77 20.789-25.74 47.287-25.34 74.069.39 25.804 9.94 50.861 26.22 70.823 16.69 20.492 40.7 34.446 66.54 39.489 25.64 4.991 52.44.749 75.53-11.451 27.87-14.749 48.42-41.073 56.69-71.449.85-3.674-4.79-5.186-5.77-1.547z" fill="#F7F7F7"/><path d="M728.089 229.305l-248.848-18.089-27.088 372.634 248.848 18.09 27.088-372.635z" fill="#E5E5E5"/><path d="M730.247 232.328l-248.849-18.09-27.088 372.635 248.849 18.089 27.088-372.634z" fill="#fff"/><path d="M551.754 318.986l-56.008-4.072c-1.418-.103-2.612-1.33-2.498-2.89l4.071-56.008c.103-1.418 1.33-2.612 2.89-2.499l56.009 4.072c1.418.103 2.611 1.33 2.498 2.89l-4.082 56.15c-.103 1.418-1.32 2.47-2.88 2.357zm-46.686-14.655l36.299 2.639c1.418.103 2.777-.939 2.89-2.499l2.443-33.605c.103-1.418-.939-2.776-2.498-2.89l-33.606-2.443c-1.418-.103-2.776.939-2.89 2.499l-2.638 36.299zM574.887 281.183l62.531 4.545a2.852 2.852 0 0 1 2.63 3.042l-.361 4.963a2.852 2.852 0 0 1-3.042 2.63l-62.531-4.546a2.852 2.852 0 0 1-2.63-3.042l.361-4.963c-.028-1.57 1.341-2.753 3.042-2.629zM573.279 303.296l131.017 9.524a2.853 2.853 0 0 1 2.63 3.042l-.361 4.963a2.852 2.852 0 0 1-3.042 2.63l-131.018-9.524a2.851 2.851 0 0 1-2.629-3.042l.36-4.963c-.028-1.57 1.341-2.753 3.043-2.63zM545.24 408.601l-56.009-4.072c-1.418-.103-2.611-1.33-2.498-2.89l4.082-56.15c.103-1.418 1.33-2.612 2.89-2.498l56.008 4.071c1.418.103 2.612 1.33 2.498 2.89l-4.081 56.151c-.114 1.559-1.33 2.611-2.89 2.498zm-46.687-14.655l36.299 2.639c1.418.103 2.777-.939 2.89-2.498l2.443-33.606c.103-1.418-.938-2.776-2.498-2.89l-33.605-2.442c-1.418-.103-2.777.938-2.89 2.498l-2.639 36.299zM568.48 369.377l62.532 4.545a2.852 2.852 0 0 1 2.629 3.042l-.36 4.963a2.853 2.853 0 0 1-3.042 2.63l-62.532-4.546a2.85 2.85 0 0 1-2.629-3.042l.36-4.963c-.028-1.57 1.341-2.753 3.042-2.629zM700.477 402.634l-136.69-9.937-.773 10.635 136.69 9.936.773-10.634zM538.726 498.217l-56.009-4.071c-1.418-.104-2.612-1.331-2.498-2.89l4.081-56.151c.104-1.418 1.331-2.611 2.89-2.498l56.009 4.071c1.418.104 2.612 1.331 2.498 2.89l-4.081 56.151c-.114 1.559-1.331 2.611-2.89 2.498zm-46.687-14.655l36.299 2.639c1.418.103 2.777-.939 2.89-2.498l2.443-33.605c.103-1.418-.939-2.777-2.498-2.89l-33.605-2.443c-1.418-.103-2.777.938-2.89 2.498l-2.639 36.299zM564.088 459.147l62.531 4.545a2.853 2.853 0 0 1 2.63 3.043l-.361 4.962a2.852 2.852 0 0 1-3.042 2.63l-62.531-4.546a2.852 2.852 0 0 1-2.63-3.042l.361-4.962c-.029-1.57 1.34-2.754 3.042-2.63zM562.388 482.544l131.017 9.524a2.852 2.852 0 0 1 2.63 3.042l-.361 4.963a2.852 2.852 0 0 1-3.042 2.63l-131.017-9.525a2.85 2.85 0 0 1-2.63-3.042l.35-4.821c-.028-1.57 1.351-2.895 3.053-2.771z" fill="#E5E5E5"/><path d="M558.487 257.758l-30.137 26.318c-1.369 1.183-3.212 1.049-4.406-.178l-7.294-7.514c-1.193-1.228-3.33-1.24-4.558-.047l-5.831 5.706c-1.227 1.193-1.24 3.331-.046 4.558l16.985 17.342c1.193 1.227 3.179 1.371 4.406.178l40.621-35.249c1.369-1.184 1.524-3.31.33-4.538l-5.401-6.094a3.226 3.226 0 0 0-4.669-.482zM552.199 344.249l-30.137 26.318c-1.368 1.184-3.212 1.05-4.406-.178l-7.293-7.514c-1.336-1.238-3.331-1.24-4.558-.047l-5.832 5.706c-1.227 1.194-1.239 3.331-.046 4.558l16.985 17.342c1.194 1.227 3.179 1.371 4.406.178l40.49-35.401c1.369-1.183 1.524-3.31.33-4.538l-5.401-6.094c-1.042-1.358-3.169-1.513-4.538-.33zM545.901 430.887l-30.136 26.318c-1.369 1.183-3.213 1.049-4.406-.178l-7.294-7.515c-1.335-1.237-3.331-1.24-4.558-.046l-5.831 5.706c-1.228 1.193-1.24 3.33-.047 4.558l16.985 17.342c1.194 1.227 3.179 1.371 4.406.177l40.49-35.4c1.369-1.184 1.524-3.311.33-4.538l-5.401-6.094c-1.042-1.359-3.169-1.513-4.538-.33z" fill="#B7D553"/><path d="M532.336 586.128l-56.009-4.072c-1.418-.103-2.611-1.33-2.498-2.89l4.082-56.15c.103-1.418 1.33-2.612 2.89-2.498l56.008 4.071c1.418.103 2.612 1.33 2.499 2.89l-4.082 56.15c-.113 1.56-1.33 2.612-2.89 2.499zm-46.687-14.655l36.3 2.639c1.417.103 2.776-.939 2.889-2.499l2.443-33.605c.103-1.418-.938-2.776-2.498-2.89l-33.605-2.443c-1.418-.103-2.777.939-2.89 2.499l-2.639 36.299zM557.697 547.058l62.531 4.546a2.85 2.85 0 0 1 2.63 3.042l-.361 4.962a2.85 2.85 0 0 1-3.042 2.63l-62.531-4.545a2.853 2.853 0 0 1-2.63-3.042l.361-4.963c-.028-1.57 1.341-2.754 3.042-2.63zM555.987 570.594l131.018 9.524a2.852 2.852 0 0 1 2.629 3.042l-.361 4.963a2.852 2.852 0 0 1-3.042 2.63l-131.017-9.524a2.853 2.853 0 0 1-2.63-3.042l.361-4.963c-.029-1.57 1.34-2.754 3.042-2.63z" fill="#E5E5E5"/><path d="M537.869 638.887l-298.727 78.978c-5.596 1.499-11.309-1.825-12.819-7.46L119.43 306.207c-1.51-5.635 1.775-11.371 7.371-12.87l298.727-78.978c5.596-1.5 11.309 1.825 12.819 7.46L545.24 626.017c1.51 5.635-1.775 11.371-7.371 12.87z" fill="#1174B9"/><path d="M514.492 623.177l-257.675 68.075c-4.827 1.293-9.81-1.784-11.182-6.905l-97.201-367.301c-1.372-5.121 1.405-10.278 6.232-11.571L412.341 237.4c4.827-1.294 9.81 1.783 11.182 6.904l97.201 367.302c1.372 5.121-1.405 10.277-6.232 11.571z" fill="#fff"/><path d="M178.428 303.423c1.924 7.182-2.322 14.596-9.455 16.508-7.132 1.911-14.517-2.387-16.441-9.569l-11.763-44.336c-1.924-7.182 2.323-14.597 9.455-16.508 7.132-1.911 14.517 2.387 16.441 9.569l11.763 44.336zM225.123 291.154c1.924 7.182-2.322 14.596-9.455 16.507-7.132 1.912-14.517-2.386-16.441-9.568l-11.792-44.447c-1.924-7.182 2.322-14.596 9.454-16.507 7.133-1.911 14.517 2.386 16.442 9.568l11.792 44.447zM271.677 278.796c1.924 7.182-2.322 14.596-9.455 16.507-7.132 1.911-14.517-2.386-16.441-9.568l-11.762-44.337c-1.925-7.181 2.322-14.596 9.454-16.507 7.132-1.911 14.517 2.387 16.441 9.569l11.763 44.336zM318.342 266.411c1.924 7.182-2.322 14.597-9.454 16.508-7.133 1.911-14.518-2.387-16.442-9.569l-11.762-44.336c-1.925-7.182 2.322-14.597 9.454-16.508 7.133-1.911 14.517 2.387 16.442 9.569l11.762 44.336zM365.036 254.135c1.924 7.182-2.322 14.596-9.455 16.507-7.132 1.912-14.517-2.386-16.441-9.568l-11.762-44.336c-1.925-7.182 2.322-14.597 9.454-16.508 7.132-1.911 14.517 2.387 16.442 9.569l11.762 44.336zM411.589 241.779c1.924 7.182-2.322 14.596-9.455 16.507-7.132 1.911-14.517-2.387-16.441-9.569l-11.762-44.336c-1.925-7.182 2.322-14.596 9.454-16.507 7.132-1.911 14.517 2.386 16.441 9.568l11.763 44.337z" fill="#5BC7F3"/><g clip-path="url(#clip2)"><path d="M251.117 468.401l-27.685 7.418 21.571 80.503 27.684-7.418-21.57-80.503z" fill="#B7D553"/><path d="M288.945 444.481l-27.684 7.418 25.017 93.364 27.684-7.418-25.017-93.364zM318.035 390.159l-28.249 7.569 36.871 137.604 28.249-7.569-36.871-137.604z" fill="#309399"/><path d="M360.406 378.806l-28.249 7.569 36.871 137.604 28.249-7.57-36.871-137.603zM390.359 329.678l-27.684 7.418 46.924 175.123 27.684-7.418-46.924-175.123z" fill="#5BC7F3"/></g><path d="M393.037 564.949l-129.04 34.576c-2.743.735-5.53-.887-6.27-3.649-.74-2.762.862-5.56 3.606-6.295l129.15-34.606c2.743-.735 5.53.887 6.27 3.649.74 2.763-.972 5.59-3.716 6.325zM398.752 586.278l-129.04 34.577c-2.743.735-5.53-.887-6.27-3.649-.74-2.763.862-5.561 3.606-6.296l129.15-34.605c2.743-.735 5.53.886 6.27 3.649.74 2.762-.972 5.589-3.716 6.324z" fill="#EBEBEB"/></g><defs><clipPath id="clip0"><path fill="#fff" d="M1733.59 137.962h221.263v477.545H1733.59z"/></clipPath><clipPath id="clip1"><path transform="rotate(15 1969.68 216.602)" fill="#fff" d="M1969.68 216.602h221.263v477.545H1969.68z"/></clipPath><clipPath id="clip2"><path transform="rotate(-15 170.269 366.002)" fill="#fff" d="M170.269 366.002h241.274V569.18H170.269z"/></clipPath></defs></svg>