<svg width="587" height="324" fill="none" xmlns="http://www.w3.org/2000/svg"><path d="M13.054 49.153c0-10.87-5.652-33.043 94.06-46.632 99.712-13.588 216.198 56.435 267.507 55.27 51.309-1.261 186.154-49.21 208.144 20.966 21.99 70.177-52.826 52.899-45.496 129.288 7.33 76.388 1.517 130.549-86.442 112.01-87.959-18.442-183.248-32.031-299.01-8.639C35.928 334.808-48.871 289.868 32.011 184.07 85.72 113.7 13.054 82 13.054 49.153z" fill="#D5F4FE"/><path d="M417.851 219.157H165.219v-99.816L290.537 14.39 417.851 119.34v99.816z" fill="#1174B9"/><path d="M399.806 28.826H179.655v245.413h220.151V28.826z" fill="#E3E3E3"/><path d="M399.806 32.435H183.265v245.413h216.541V32.435z" fill="#fff"/><path d="M387.687 56.817H195.163v8.485h192.524v-8.485zM387.687 74.235H195.164v8.485h192.523v-8.485zM387.687 91.651H195.164v8.485h192.523v-8.485zM387.687 109.069H195.164v8.485h192.523v-8.485zM387.687 126.486H195.164v8.486h192.523v-8.486zM387.687 143.904H195.164v8.486h192.523v-8.486zM387.687 161.322H195.164v8.485h192.523v-8.485zM387.687 178.738H195.164v8.486h192.523v-8.486zM387.687 197.272H195.164v8.486h192.523v-8.486z" fill="#E9E9E9"/><path d="M387.687 215.807H195.164v8.485h192.523v-8.485zM387.687 234.563H195.164v8.486h192.523v-8.486zM387.687 253.098H195.164v8.485h192.523v-8.485z" fill="#979695"/><path d="M417.629 281.457H165.441V119.341l125.318 81.058 126.87-81.058v162.116z" fill="#008ED9"/><path d="M417.186 281.457l-126.649-80.835-124.874 80.835h251.523z" fill="#1174B9"/><circle cx="392.588" cy="39.653" r="25.263" fill="#EC5D79"/><path d="M406.028 59.706c0 .438-.024.813-.071 1.125-.047.297-.117.54-.211.727a.911.911 0 0 1-.281.375.628.628 0 0 1-.375.117h-16.734a.596.596 0 0 1-.352-.117 1.103 1.103 0 0 1-.305-.375 3.255 3.255 0 0 1-.187-.727 7.706 7.706 0 0 1-.07-1.125c0-.453.015-.828.047-1.125.046-.312.109-.562.187-.75.094-.187.195-.32.305-.398a.558.558 0 0 1 .375-.14h5.648V37.557l-4.875 2.695c-.359.172-.656.282-.89.328-.219.032-.399-.015-.54-.14-.125-.14-.21-.375-.257-.703-.047-.328-.071-.79-.071-1.383 0-.375.008-.68.024-.914.015-.25.054-.461.117-.633a1.12 1.12 0 0 1 .258-.422 2.95 2.95 0 0 1 .445-.352l6.516-4.218a.793.793 0 0 1 .281-.14c.125-.048.281-.079.469-.095.187-.03.429-.046.726-.046.313-.016.711-.024 1.196-.024.593 0 1.07.016 1.429.047.375.016.657.055.844.117.188.047.313.117.375.211.063.094.094.211.094.352v25.054h4.945c.141 0 .266.047.375.141.125.078.227.21.305.398.094.188.156.438.187.75.047.297.071.672.071 1.125z" fill="#fff"/></svg>